<svg width="1440" height="2786" viewBox="0 0 1440 2786" fill="none" xmlns="http://www.w3.org/2000/svg">
<path d="M-69 2786H17.0487V0.000244141H-69V2786Z" fill="#90379E"/>
<path d="M55.873 2786H79.7338V0.000244141H55.873V2786Z" fill="#90379E"/>
<path d="M117.744 2786H203.793V0.000244141H117.744V2786Z" fill="#90379E"/>
<path d="M242.617 2786H266.478V0.000244141H242.617V2786Z" fill="#90379E"/>
<path d="M304.49 2786H390.539V0.000244141H304.49V2786Z" fill="#90379E"/>
<path d="M429.361 2786H453.221V0.000244141H429.361V2786Z" fill="#90379E"/>
<path d="M491.232 2786H577.281V0.000244141H491.232V2786Z" fill="#90379E"/>
<path d="M616.107 2786H639.967V0.000244141H616.107V2786Z" fill="#90379E"/>
<path d="M677.977 2786H764.025V0.000244141H677.977V2786Z" fill="#90379E"/>
<path d="M802.852 2786H826.711V0.000244141H802.852V2786Z" fill="#90379E"/>
<path d="M864.721 2786H950.769V0.000244141H864.721V2786Z" fill="#90379E"/>
<path d="M989.592 2786H1013.45V0.000244141H989.592V2786Z" fill="#90379E"/>
<path d="M1051.46 2786H1137.51V0.000244141H1051.46V2786Z" fill="#90379E"/>
<path d="M1176.34 2786H1200.2V0.000244141H1176.34V2786Z" fill="#90379E"/>
<path d="M1238.21 2786H1324.26V0.000244141H1238.21V2786Z" fill="#90379E"/>
<path d="M1363.08 2786H1386.94V0.000244141H1363.08V2786Z" fill="#90379E"/>
<path d="M1511 0.000244141H1424.95V2786H1511V0.000244141Z" fill="#90379E"/>
</svg>
