<svg width="430" height="1016" viewBox="0 0 430 1016" fill="none" xmlns="http://www.w3.org/2000/svg">
<mask id="mask0_384_11121" style="mask-type:alpha" maskUnits="userSpaceOnUse" x="0" y="0" width="430" height="1016">
<rect width="430" height="1016" fill="#D9D9D9"/>
</mask>
<g mask="url(#mask0_384_11121)">
<path d="M629 814H-200V102H629V814Z" fill="#E4A771"/>
<path d="M227.438 124.088C227.438 124.088 226.802 145.768 256.114 154.104C285.425 162.442 297.277 160.809 306.742 173.573C306.742 173.573 295.623 155.512 270.531 149.16C245.442 142.807 227.438 124.088 227.438 124.088Z" fill="#EE5C39"/>
<path d="M358.83 198.716C358.83 198.716 376.245 208.682 384.551 224.894C392.859 241.104 400.575 235.123 398.603 226.237C396.63 217.352 367.816 198.388 358.83 198.716Z" fill="#43568F"/>
<path d="M341.758 171.705C349.14 161.975 330.286 160.172 335.474 171.104C330.286 160.172 319.213 174.767 331.783 175.968C319.213 174.767 326.995 191.164 334.377 181.434C326.995 191.164 345.849 192.967 340.662 182.035C345.849 192.967 356.92 178.372 344.352 177.17C356.92 178.372 349.14 161.975 341.758 171.705Z" fill="#5972BF"/>
<path d="M341.676 176.914C341.876 175.023 340.423 173.335 338.43 173.145C336.438 172.954 334.659 174.332 334.458 176.223C334.258 178.116 335.71 179.804 337.704 179.994C339.696 180.185 341.475 178.806 341.676 176.914Z" fill="#F2E1C5"/>
<path d="M316.309 160.455C316.309 160.455 307.351 133.904 300.593 138.002C293.833 142.099 316.309 160.455 316.309 160.455Z" fill="#5972BF"/>
<path d="M287.275 143.844C287.275 143.844 272.489 121.479 266.07 128.967C259.652 136.457 287.275 143.844 287.275 143.844Z" fill="#F2E1C5"/>
<path d="M359.29 183.822C359.29 183.822 374.857 167.982 378.177 172.988C381.497 177.992 359.29 183.822 359.29 183.822Z" fill="#43568F"/>
<path d="M398.953 209.525C398.953 209.525 411.006 212.785 408.398 216.361C405.791 219.938 398.953 209.525 398.953 209.525Z" fill="#5972BF"/>
<path d="M359.578 191.672C359.578 191.672 367.685 191.855 378.773 197.262C389.861 202.672 393.41 198.664 391.537 194.729C389.663 190.795 367.206 188.447 359.578 191.672Z" fill="#F2E1C5"/>
<path d="M422.149 290.373C422.149 290.373 424.294 256.257 412.033 260.058C399.771 263.86 422.149 290.373 422.149 290.373Z" fill="#EE5C39"/>
<path d="M426.709 318.923C426.709 318.923 421.827 294.23 415.15 297.923C408.475 301.617 426.709 318.923 426.709 318.923Z" fill="#F2E1C5"/>
<path d="M431.267 350.256C431.267 350.256 428.655 327.182 422.294 330.722C415.934 334.261 431.267 350.256 431.267 350.256Z" fill="#5972BF"/>
<path d="M432.925 364.95C432.925 364.95 421.736 407.415 432.925 407.415C444.114 407.415 432.925 364.95 432.925 364.95Z" fill="#43568F"/>
<path d="M432.924 241.835C432.924 241.835 425.051 262.572 432.924 262.572C440.798 262.572 432.924 241.835 432.924 241.835Z" fill="#43568F"/>
<path d="M201.626 124.088C201.626 124.088 202.262 145.768 172.952 154.104C143.641 162.442 131.787 160.809 122.322 173.573C122.322 173.573 133.441 155.512 158.531 149.16C183.623 142.807 201.626 124.088 201.626 124.088Z" fill="#EE5C39"/>
<path d="M70.2346 198.716C70.2346 198.716 52.8196 208.682 44.5116 224.894C36.2052 241.104 28.489 235.123 30.4616 226.237C32.4342 217.352 61.2502 198.388 70.2346 198.716Z" fill="#43568F"/>
<path d="M87.3064 171.705C79.9233 161.975 98.7771 160.172 93.5904 171.104C98.7771 160.172 109.85 174.767 97.2819 175.968C109.85 174.767 102.069 191.164 94.6878 181.434C102.069 191.164 83.2154 192.967 88.4037 182.035C83.2154 192.967 72.1441 178.372 84.7122 177.17C72.1441 178.372 79.9233 161.975 87.3064 171.705Z" fill="#5972BF"/>
<path d="M87.3881 176.914C87.1876 175.023 88.6413 173.335 90.6338 173.145C92.6279 172.954 94.4048 174.332 94.6054 176.223C94.806 178.116 93.3539 179.804 91.3614 179.994C89.3673 180.185 87.5887 178.806 87.3881 176.914Z" fill="#F2E1C5"/>
<path d="M112.755 160.455C112.755 160.455 121.711 133.904 128.472 138.002C135.232 142.099 112.755 160.455 112.755 160.455Z" fill="#5972BF"/>
<path d="M141.79 143.844C141.79 143.844 156.576 121.479 162.994 128.967C169.412 136.457 141.79 143.844 141.79 143.844Z" fill="#F2E1C5"/>
<path d="M69.7729 183.822C69.7729 183.822 54.2078 167.982 50.8876 172.988C47.5674 177.992 69.7729 183.822 69.7729 183.822Z" fill="#43568F"/>
<path d="M30.1121 209.525C30.1121 209.525 18.0595 212.785 20.667 216.361C23.2744 219.938 30.1121 209.525 30.1121 209.525Z" fill="#5972BF"/>
<path d="M69.4877 191.672C69.4877 191.672 61.3803 191.855 50.2924 197.262C39.2046 202.672 35.6556 198.664 37.5288 194.729C39.4019 190.795 61.861 188.447 69.4877 191.672Z" fill="#F2E1C5"/>
<path d="M6.91399 290.373C6.91399 290.373 4.76904 256.257 17.0305 260.058C29.2919 263.86 6.91399 290.373 6.91399 290.373Z" fill="#EE5C39"/>
<path d="M2.35693 318.923C2.35693 318.923 7.23863 294.23 13.9155 297.923C20.5908 301.617 2.35693 318.923 2.35693 318.923Z" fill="#F2E1C5"/>
<path d="M-2.20154 350.256C-2.20154 350.256 0.410875 327.182 6.77117 330.722C13.1315 334.261 -2.20154 350.256 -2.20154 350.256Z" fill="#5972BF"/>
<path d="M-3.85941 364.95C-3.85941 364.95 7.32954 407.415 -3.85941 407.415C-15.0484 407.415 -3.85941 364.95 -3.85941 364.95Z" fill="#43568F"/>
<path d="M-3.85849 241.835C-3.85849 241.835 4.01522 262.572 -3.85849 262.572C-11.7322 262.572 -3.85849 241.835 -3.85849 241.835Z" fill="#43568F"/>
<path d="M409.581 347.965C409.581 261.773 315.791 183.63 226.289 183.63H202.778C113.276 183.63 19.486 261.773 19.486 347.965V663.3H409.581V347.965Z" fill="#602B1C"/>
<path d="M19.486 332.232C19.486 246.041 113.276 167.896 202.778 167.896H226.289C315.791 167.896 409.581 246.041 409.581 332.232V347.966C409.581 261.773 315.791 183.63 226.289 183.63H202.778C113.276 183.63 19.486 261.773 19.486 347.966V332.232Z" fill="#3E1F0D"/>
<path d="M397.252 351.677C397.252 272.102 309.391 207.593 225.545 207.593H203.519C119.675 207.593 31.8125 272.102 31.8125 351.677V663.3H397.252V351.677Z" fill="#5972BF"/>
<path d="M214.532 207.593V663.3" stroke="#1C1C20" stroke-width="2.66667" stroke-miterlimit="10"/>
<path d="M257.008 260.058C257.008 260.058 263.726 233.839 273.939 240.655C284.152 247.472 257.008 260.058 257.008 260.058Z" fill="#9BAAD9"/>
<path d="M277.046 255.404C277.046 255.404 293.565 250.685 293.565 255.404C293.565 260.124 277.046 255.404 277.046 255.404Z" fill="#43568F"/>
<path d="M353.336 296.74C353.336 296.74 343.234 283.467 347.934 281.924C352.633 280.381 353.336 296.74 353.336 296.74Z" fill="#43568F"/>
<path d="M299.562 249.791C304.13 249.565 308.713 250.106 313.184 251.031C317.673 251.929 322.034 253.364 326.246 255.109C328.356 255.977 330.375 257.036 332.402 258.06L335.322 259.809C335.804 260.107 336.3 260.384 336.77 260.697L338.144 261.689C341.889 264.217 345.143 267.369 347.971 270.743C344.178 268.308 340.603 265.803 336.712 263.733C332.887 261.598 328.966 259.641 324.898 257.981C320.869 256.246 316.721 254.739 312.501 253.389C308.269 252.049 303.978 250.861 299.562 249.791Z" fill="#1C1C20"/>
<path d="M309.439 260.267C309.439 258.993 308.353 257.962 307.01 257.962C305.668 257.962 304.58 258.993 304.58 260.267C304.58 261.54 305.668 262.572 307.01 262.572C308.353 262.572 309.439 261.54 309.439 260.267Z" fill="#F2E1C5"/>
<path d="M320.679 263.791C320.679 262.518 319.592 261.485 318.249 261.485C316.908 261.485 315.821 262.518 315.821 263.791C315.821 265.064 316.908 266.096 318.249 266.096C319.592 266.096 320.679 265.064 320.679 263.791Z" fill="#F2E1C5"/>
<path d="M330.809 268.402C330.809 267.13 329.722 266.096 328.381 266.096C327.038 266.096 325.951 267.13 325.951 268.402C325.951 269.675 327.038 270.707 328.381 270.707C329.722 270.707 330.809 269.675 330.809 268.402Z" fill="#F2E1C5"/>
<path d="M339.824 274.105C339.824 272.832 338.737 271.799 337.394 271.799C336.053 271.799 334.964 272.832 334.964 274.105C334.964 275.378 336.053 276.41 337.394 276.41C338.737 276.41 339.824 275.378 339.824 274.105Z" fill="#F2E1C5"/>
<path d="M365.858 323.466C365.858 323.466 360.866 357.579 369.136 358.124C377.404 358.67 365.858 323.466 365.858 323.466Z" fill="#9BAAD9"/>
<path d="M371.432 367.152C371.432 367.152 364.25 386.817 371.432 386.817C378.615 386.817 371.432 367.152 371.432 367.152Z" fill="#43568F"/>
<path d="M362.957 310.125C377.753 310.125 363.922 296.999 363.922 311.041C363.922 296.999 350.093 310.125 364.887 310.125C350.093 310.125 363.922 323.251 363.922 309.21C363.922 323.251 377.753 310.125 362.957 310.125Z" fill="#1C1C20"/>
<path d="M370.469 401.795C385.263 401.795 371.434 388.669 371.434 402.71C371.434 388.669 357.604 401.795 372.399 401.795C357.604 401.795 371.434 414.921 371.434 400.879C371.434 414.921 385.263 401.795 370.469 401.795Z" fill="#1C1C20"/>
<path d="M347.621 418.428H243.889C239.272 418.428 235.528 414.876 235.528 410.493V308.093C235.528 285.909 254.478 267.924 277.852 267.924C321.001 267.924 355.982 301.123 355.982 342.075V410.493C355.982 414.876 352.239 418.428 347.621 418.428Z" fill="#43568F"/>
<path d="M235.528 401.122L242.216 407.415L248.906 401.122L255.595 407.415L262.288 401.122L268.969 407.415L275.657 401.122L282.342 407.415L289.032 401.122L295.721 407.415L302.413 401.122L309.106 407.415L315.8 401.122L322.493 407.415L329.185 401.122L335.877 407.415L342.572 401.122L349.277 407.415L355.982 401.122" stroke="#9BAAD9" stroke-width="2.66667" stroke-miterlimit="10"/>
<path d="M295.756 286.409C295.756 286.409 290.828 275.09 295.756 275.09C300.682 275.09 295.756 286.409 295.756 286.409Z" fill="#F2E1C5"/>
<path d="M286.929 290.373C286.929 290.373 279.42 283.489 283.073 281.977C286.728 280.465 286.929 290.373 286.929 290.373Z" fill="#9BAAD9"/>
<path d="M277.046 295.227C277.046 295.227 268.288 289.832 271.57 287.687C274.852 285.539 277.046 295.227 277.046 295.227Z" fill="#9BAAD9"/>
<path d="M269.977 300.299C269.977 300.299 262.463 298.221 264.331 296.007C266.199 293.794 269.977 300.299 269.977 300.299Z" fill="#9BAAD9"/>
<path d="M304.58 290.373C304.58 290.373 312.089 283.489 308.436 281.977C304.782 280.465 304.58 290.373 304.58 290.373Z" fill="#9BAAD9"/>
<path d="M314.466 295.227C314.466 295.227 323.223 289.832 319.943 287.687C316.661 285.539 314.466 295.227 314.466 295.227Z" fill="#9BAAD9"/>
<path d="M321.532 300.299C321.532 300.299 329.046 298.221 327.178 296.007C325.31 293.794 321.532 300.299 321.532 300.299Z" fill="#9BAAD9"/>
<path d="M264.951 305.293C264.951 305.293 249.133 310.023 249.068 305.5C249.002 300.977 264.951 305.293 264.951 305.293Z" fill="#F2E1C5"/>
<path d="M326.562 305.293C326.562 305.293 342.381 310.023 342.445 305.5C342.51 300.977 326.562 305.293 326.562 305.293Z" fill="#F2E1C5"/>
<path d="M308.61 307.457C308.496 306.913 305.21 291.78 295.755 291.358C286.3 291.78 283.015 306.913 282.9 307.457C268.343 308.952 257.008 320.645 257.008 334.858V383.943C257.008 387.563 259.841 390.618 263.622 391.079L275.328 392.505C288.889 394.156 302.621 394.156 316.182 392.505L327.886 391.079C331.669 390.618 334.502 387.563 334.502 383.943V334.858C334.502 320.645 323.167 308.952 308.61 307.457Z" fill="#C2A131"/>
<path d="M309.926 315.12C315.388 318.987 319.862 324.117 323.093 329.894C324.664 332.809 325.909 335.902 326.691 339.126C327.393 342.335 327.661 345.742 327.659 348.928L327.963 368.288L327.974 369.498C327.979 369.671 327.976 369.934 327.954 370.231C327.92 370.508 327.883 370.789 327.795 371.057C327.495 372.149 326.778 373.082 325.897 373.741C325.009 374.405 323.941 374.809 322.851 374.936C322.582 374.979 322.292 374.977 322.037 374.992L321.402 374.996L320.126 375.007L309.926 375.092L311.508 373.591L311.529 379.47L311.534 380.94L311.529 381.722C311.521 382.074 311.468 382.425 311.382 382.769C311.028 384.154 310.055 385.304 308.872 386.001C308.279 386.355 307.63 386.608 306.961 386.761C306.628 386.842 306.286 386.883 305.945 386.913L305.436 386.935L305.048 386.937L301.951 386.945L295.757 386.964L289.562 386.948L286.466 386.938L286.076 386.937L285.567 386.915C285.226 386.885 284.884 386.844 284.551 386.762C283.883 386.61 283.234 386.356 282.64 386.002C281.457 385.305 280.482 384.155 280.13 382.769C280.044 382.427 279.991 382.074 279.981 381.722L279.976 380.94L279.981 379.47L280.001 373.591L281.586 375.097L271.386 375.01L270.112 375.001L269.475 374.995C269.22 374.982 268.93 374.984 268.663 374.941C267.571 374.812 266.503 374.408 265.615 373.744C264.733 373.083 264.013 372.15 263.713 371.057C263.627 370.789 263.591 370.508 263.556 370.231C263.536 369.934 263.529 369.671 263.536 369.498L263.546 368.288L263.848 348.928C263.848 345.742 264.115 342.335 264.817 339.124C265.601 335.902 266.845 332.808 268.418 329.892C271.65 324.116 276.124 318.985 281.586 315.12C276.499 319.393 272.361 324.644 269.565 330.424C268.202 333.331 267.218 336.369 266.578 339.461C266.046 342.601 265.923 345.659 266.057 348.928L266.359 368.288L266.369 369.498C266.367 369.728 266.38 369.868 266.387 369.973C266.41 370.094 266.42 370.217 266.467 370.333C266.601 370.807 266.944 371.243 267.397 371.57C267.851 371.897 268.421 372.108 269.014 372.164C269.167 372.188 269.304 372.179 269.475 372.188L270.112 372.183L271.386 372.172L281.586 372.086L283.167 372.073L283.172 373.591L283.19 379.47L283.195 380.94C283.199 381.165 283.192 381.476 283.204 381.629C283.207 381.766 283.23 381.901 283.262 382.033C283.398 382.562 283.797 383.065 284.367 383.396C284.649 383.561 284.967 383.684 285.301 383.757C285.468 383.8 285.64 383.816 285.814 383.831L286.076 383.842H286.466L289.562 383.833L295.757 383.819L301.951 383.835L305.048 383.844L305.436 383.846L305.699 383.833C305.873 383.817 306.046 383.801 306.211 383.759C306.546 383.685 306.865 383.562 307.146 383.397C307.717 383.067 308.116 382.562 308.252 382.035C308.285 381.901 308.308 381.767 308.312 381.629C308.323 381.476 308.317 381.165 308.318 380.94L308.323 379.47L308.346 373.591L308.351 372.078L309.926 372.091L320.126 372.175L321.402 372.187L322.037 372.191C322.209 372.182 322.347 372.193 322.499 372.169C323.093 372.111 323.665 371.9 324.119 371.573C324.573 371.244 324.916 370.808 325.05 370.335C325.097 370.218 325.107 370.094 325.128 369.975C325.137 369.868 325.15 369.728 325.146 369.498L325.158 368.288L325.461 348.928C325.596 345.659 325.471 342.601 324.938 339.461C324.299 336.368 323.316 333.33 321.952 330.423C319.154 324.643 315.017 319.391 309.926 315.12Z" fill="#D9CE55"/>
<path d="M295.757 346.323C295.757 346.323 287.192 305.157 295.757 305.157C304.32 305.157 295.757 346.323 295.757 346.323Z" fill="#D9CE55"/>
<path d="M295.757 346.323C295.757 346.323 287.192 377.874 295.757 377.874C304.32 377.874 295.757 346.323 295.757 346.323Z" fill="#D9CE55"/>
<path d="M295.757 346.323C295.757 346.323 273.655 352.616 273.655 346.323C273.655 340.03 295.757 346.323 295.757 346.323Z" fill="#D9CE55"/>
<path d="M288.54 338.835C288.54 338.835 273.938 331.371 277.308 328.173C280.677 324.975 288.54 338.835 288.54 338.835Z" fill="#F2E1C5"/>
<path d="M302.97 338.835C302.97 338.835 317.572 331.371 314.202 328.173C310.833 324.975 302.97 338.835 302.97 338.835Z" fill="#F2E1C5"/>
<path d="M288.54 353.81C288.54 353.81 273.938 361.273 277.308 364.471C280.677 367.67 288.54 353.81 288.54 353.81Z" fill="#F2E1C5"/>
<path d="M302.97 353.81C302.97 353.81 317.572 361.273 314.202 364.471C310.833 367.67 302.97 353.81 302.97 353.81Z" fill="#F2E1C5"/>
<path d="M295.755 346.323C295.755 346.323 317.856 352.616 317.856 346.323C317.856 340.03 295.755 346.323 295.755 346.323Z" fill="#D9CE55"/>
<path d="M294.882 347.15C308.27 334.445 283.24 334.445 296.627 347.15C283.24 334.445 283.24 358.199 296.627 345.494C283.24 358.199 308.27 358.199 294.882 345.494C308.27 358.199 308.27 334.445 294.882 347.15Z" fill="#1C1C20"/>
<path d="M255.02 292.834C255.02 290.871 253.345 289.281 251.276 289.281C249.209 289.281 247.533 290.871 247.533 292.834C247.533 294.796 249.209 296.387 251.276 296.387C253.345 296.387 255.02 294.796 255.02 292.834Z" fill="#EE5C39"/>
<path d="M263.606 282.451C263.606 280.713 262.123 279.305 260.291 279.305C258.461 279.305 256.976 280.713 256.976 282.451C256.976 284.188 258.461 285.597 260.291 285.597C262.123 285.597 263.606 284.188 263.606 282.451Z" fill="#EE5C39"/>
<path d="M273.32 276.41C273.32 275.107 272.206 274.05 270.834 274.05C269.461 274.05 268.347 275.107 268.347 276.41C268.347 277.714 269.461 278.77 270.834 278.77C272.206 278.77 273.32 277.714 273.32 276.41Z" fill="#EE5C39"/>
<path d="M282.91 274.431C282.91 273.561 282.167 272.858 281.252 272.858C280.336 272.858 279.595 273.561 279.595 274.431C279.595 275.299 280.336 276.004 281.252 276.004C282.167 276.004 282.91 275.299 282.91 274.431Z" fill="#EE5C39"/>
<path d="M347.621 440.988H243.889C239.272 440.988 235.528 444.54 235.528 448.923V551.323C235.528 573.507 254.478 591.492 277.852 591.492C321.001 591.492 355.982 558.292 355.982 517.34V448.923C355.982 444.54 352.239 440.988 347.621 440.988Z" fill="#43568F"/>
<path d="M235.528 458.293L242.216 452L248.906 458.293L255.595 452L262.288 458.293L268.969 452L275.657 458.293L282.342 452L289.032 458.293L295.721 452L302.413 458.293L309.106 452L315.8 458.293L322.493 452L329.185 458.293L335.877 452L342.572 458.293L349.277 452L355.982 458.293" stroke="#9BAAD9" stroke-width="2.66667" stroke-miterlimit="10"/>
<path d="M295.756 573.006C295.756 573.006 290.828 584.326 295.756 584.326C300.682 584.326 295.756 573.006 295.756 573.006Z" fill="#F2E1C5"/>
<path d="M286.929 569.042C286.929 569.042 279.42 575.926 283.073 577.436C286.728 578.948 286.929 569.042 286.929 569.042Z" fill="#9BAAD9"/>
<path d="M277.046 564.187C277.046 564.187 268.288 569.581 271.57 571.729C274.852 573.876 277.046 564.187 277.046 564.187Z" fill="#9BAAD9"/>
<path d="M269.977 559.116C269.977 559.116 262.463 561.195 264.331 563.408C266.199 565.622 269.977 559.116 269.977 559.116Z" fill="#9BAAD9"/>
<path d="M304.58 569.042C304.58 569.042 312.089 575.926 308.436 577.436C304.782 578.948 304.58 569.042 304.58 569.042Z" fill="#9BAAD9"/>
<path d="M314.466 564.187C314.466 564.187 323.223 569.581 319.943 571.729C316.661 573.876 314.466 564.187 314.466 564.187Z" fill="#9BAAD9"/>
<path d="M321.532 559.116C321.532 559.116 329.046 561.195 327.178 563.408C325.31 565.622 321.532 559.116 321.532 559.116Z" fill="#9BAAD9"/>
<path d="M264.951 554.122C264.951 554.122 249.133 549.392 249.068 553.915C249.002 558.438 264.951 554.122 264.951 554.122Z" fill="#F2E1C5"/>
<path d="M326.562 554.122C326.562 554.122 342.381 549.392 342.445 553.915C342.51 558.438 326.562 554.122 326.562 554.122Z" fill="#F2E1C5"/>
<path d="M308.61 551.958C308.496 552.503 305.21 567.635 295.755 568.057C286.3 567.635 283.015 552.503 282.9 551.958C268.343 550.464 257.008 538.77 257.008 524.558V475.472C257.008 471.852 259.841 468.797 263.622 468.336L275.328 466.909C288.889 465.259 302.621 465.259 316.182 466.909L327.886 468.336C331.669 468.797 334.502 471.852 334.502 475.472V524.558C334.502 538.77 323.167 550.464 308.61 551.958Z" fill="#C2A131"/>
<path d="M309.926 544.295C315.017 540.024 319.154 534.773 321.952 528.993C323.316 526.087 324.299 523.048 324.938 519.955C325.471 516.815 325.596 513.756 325.461 510.489L325.158 491.127L325.146 489.917C325.15 489.686 325.137 489.548 325.128 489.441C325.107 489.321 325.097 489.197 325.05 489.081C324.916 488.607 324.573 488.171 324.119 487.842C323.665 487.515 323.093 487.304 322.499 487.246C322.347 487.223 322.209 487.234 322.037 487.224L321.402 487.229L320.126 487.24L309.926 487.323L308.351 487.337L308.346 485.824L308.323 479.945L308.318 478.474C308.317 478.251 308.323 477.939 308.312 477.785C308.308 477.648 308.285 477.514 308.252 477.381C308.116 476.854 307.717 476.347 307.146 476.018C306.865 475.853 306.546 475.73 306.211 475.656C306.046 475.614 305.873 475.598 305.699 475.581L305.436 475.57L305.048 475.571L301.951 475.581L295.757 475.597L289.562 475.582L286.466 475.573L286.076 475.571L285.814 475.584C285.64 475.6 285.468 475.615 285.301 475.658C284.967 475.732 284.649 475.855 284.367 476.02C283.797 476.349 283.398 476.854 283.262 477.382C283.23 477.514 283.207 477.648 283.204 477.785C283.192 477.939 283.199 478.251 283.195 478.474L283.19 479.945L283.172 485.824L283.167 487.342L281.586 487.328L271.386 487.243L270.112 487.232L269.475 487.227C269.304 487.237 269.167 487.226 269.014 487.251C268.421 487.307 267.851 487.518 267.397 487.846C266.944 488.173 266.601 488.609 266.467 489.082C266.42 489.197 266.41 489.321 266.387 489.442C266.38 489.548 266.367 489.686 266.369 489.917L266.359 491.127L266.057 510.489C265.923 513.756 266.046 516.815 266.578 519.953C267.218 523.046 268.202 526.084 269.565 528.991C272.361 534.771 276.499 540.022 281.586 544.295C276.124 540.43 271.65 535.3 268.418 529.521C266.845 526.609 265.601 523.515 264.817 520.291C264.115 517.08 263.848 513.671 263.848 510.489L263.546 491.127L263.536 489.917C263.529 489.744 263.536 489.48 263.556 489.184C263.591 488.907 263.627 488.626 263.713 488.358C264.013 487.265 264.733 486.332 265.615 485.671C266.503 485.007 267.571 484.603 268.663 484.474C268.93 484.432 269.22 484.433 269.475 484.421L270.112 484.414L271.386 484.405L281.586 484.318L280.001 485.824L279.981 479.945L279.976 478.474L279.981 477.694C279.991 477.341 280.044 476.989 280.13 476.646C280.482 475.26 281.457 474.11 282.64 473.413C283.234 473.059 283.883 472.804 284.551 472.653C284.884 472.571 285.226 472.53 285.567 472.5L286.076 472.477H286.466L289.562 472.467L295.757 472.452L301.951 472.471L305.048 472.478H305.436L305.945 472.502C306.286 472.532 306.628 472.573 306.961 472.655C307.63 472.806 308.279 473.061 308.872 473.415C310.055 474.111 311.028 475.261 311.382 476.646C311.468 476.99 311.521 477.341 311.529 477.694L311.534 478.474L311.529 479.945L311.508 485.824L309.926 484.323L320.126 484.408L321.402 484.419L322.037 484.424C322.292 484.438 322.582 484.436 322.851 484.477C323.941 484.606 325.009 485.011 325.897 485.675C326.778 486.334 327.495 487.267 327.795 488.358C327.883 488.626 327.92 488.907 327.954 489.184C327.976 489.482 327.979 489.744 327.974 489.917L327.963 491.127L327.659 510.489C327.661 513.673 327.393 517.08 326.691 520.29C325.909 523.513 324.664 526.606 323.093 529.52C319.862 535.298 315.388 540.428 309.926 544.295Z" fill="#D9CE55"/>
<path d="M295.757 513.092C295.757 513.092 287.192 554.258 295.757 554.258C304.32 554.258 295.757 513.092 295.757 513.092Z" fill="#D9CE55"/>
<path d="M295.757 513.092C295.757 513.092 287.192 481.542 295.757 481.542C304.32 481.542 295.757 513.092 295.757 513.092Z" fill="#D9CE55"/>
<path d="M295.757 513.092C295.757 513.092 273.655 506.8 273.655 513.092C273.655 519.385 295.757 513.092 295.757 513.092Z" fill="#D9CE55"/>
<path d="M288.54 520.582C288.54 520.582 273.938 528.044 277.308 531.242C280.677 534.439 288.54 520.582 288.54 520.582Z" fill="#F2E1C5"/>
<path d="M302.97 520.582C302.97 520.582 317.572 528.044 314.202 531.242C310.833 534.439 302.97 520.582 302.97 520.582Z" fill="#F2E1C5"/>
<path d="M288.54 505.604C288.54 505.604 273.938 498.142 277.308 494.944C280.677 491.746 288.54 505.604 288.54 505.604Z" fill="#F2E1C5"/>
<path d="M302.97 505.604C302.97 505.604 317.572 498.142 314.202 494.944C310.833 491.746 302.97 505.604 302.97 505.604Z" fill="#F2E1C5"/>
<path d="M295.755 513.092C295.755 513.092 317.856 506.8 317.856 513.092C317.856 519.385 295.755 513.092 295.755 513.092Z" fill="#D9CE55"/>
<path d="M294.882 512.265C308.27 524.97 283.24 524.97 296.627 512.265C283.24 524.97 283.24 501.216 296.627 513.922C283.24 501.216 308.27 501.216 294.882 513.922C308.27 501.216 308.27 524.97 294.882 512.265Z" fill="#1C1C20"/>
<path d="M255.02 566.583C255.02 568.545 253.345 570.135 251.276 570.135C249.209 570.135 247.533 568.545 247.533 566.583C247.533 564.619 249.209 563.029 251.276 563.029C253.345 563.029 255.02 564.619 255.02 566.583Z" fill="#EE5C39"/>
<path d="M263.606 576.964C263.606 578.703 262.123 580.111 260.291 580.111C258.461 580.111 256.976 578.703 256.976 576.964C256.976 575.228 258.461 573.818 260.291 573.818C262.123 573.818 263.606 575.228 263.606 576.964Z" fill="#EE5C39"/>
<path d="M273.32 583.004C273.32 584.308 272.206 585.364 270.834 585.364C269.461 585.364 268.347 584.308 268.347 583.004C268.347 581.701 269.461 580.644 270.834 580.644C272.206 580.644 273.32 581.701 273.32 583.004Z" fill="#EE5C39"/>
<path d="M282.91 584.985C282.91 585.855 282.167 586.558 281.252 586.558C280.336 586.558 279.595 585.855 279.595 584.985C279.595 584.116 280.336 583.412 281.252 583.412C282.167 583.412 282.91 584.116 282.91 584.985Z" fill="#EE5C39"/>
<path d="M172.056 260.058C172.056 260.058 165.34 233.839 155.127 240.655C144.913 247.472 172.056 260.058 172.056 260.058Z" fill="#9BAAD9"/>
<path d="M152.021 255.404C152.021 255.404 135.499 250.685 135.499 255.404C135.499 260.124 152.021 255.404 152.021 255.404Z" fill="#43568F"/>
<path d="M75.7273 296.74C75.7273 296.74 85.8305 283.467 81.1311 281.924C76.4318 280.381 75.7273 296.74 75.7273 296.74Z" fill="#43568F"/>
<path d="M129.502 249.791C124.934 249.565 120.35 250.106 115.88 251.031C111.391 251.929 107.03 253.364 102.818 255.109C100.707 255.977 98.6901 257.036 96.6612 258.06L93.7404 259.809C93.2597 260.107 92.7641 260.384 92.2933 260.697L90.9192 261.689C87.1746 264.217 83.9207 267.369 81.0928 270.743C84.8854 268.308 88.4609 265.803 92.3514 263.733C96.1771 261.598 100.097 259.641 104.165 257.981C108.195 256.246 112.341 254.739 116.564 253.389C120.794 252.049 125.086 250.861 129.502 249.791Z" fill="#1C1C20"/>
<path d="M119.625 260.267C119.625 258.993 120.713 257.962 122.054 257.962C123.396 257.962 124.484 258.993 124.484 260.267C124.484 261.54 123.396 262.572 122.054 262.572C120.713 262.572 119.625 261.54 119.625 260.267Z" fill="#F2E1C5"/>
<path d="M108.386 263.791C108.386 262.518 109.473 261.485 110.816 261.485C112.157 261.485 113.244 262.518 113.244 263.791C113.244 265.064 112.157 266.096 110.816 266.096C109.473 266.096 108.386 265.064 108.386 263.791Z" fill="#F2E1C5"/>
<path d="M98.2556 268.402C98.2556 267.13 99.343 266.096 100.684 266.096C102.027 266.096 103.114 267.13 103.114 268.402C103.114 269.675 102.027 270.707 100.684 270.707C99.343 270.707 98.2556 269.675 98.2556 268.402Z" fill="#F2E1C5"/>
<path d="M89.2439 274.105C89.2439 272.832 90.3313 271.799 91.6723 271.799C93.0133 271.799 94.1007 272.832 94.1007 274.105C94.1007 275.378 93.0133 276.41 91.6723 276.41C90.3313 276.41 89.2439 275.378 89.2439 274.105Z" fill="#F2E1C5"/>
<path d="M63.206 323.466C63.206 323.466 68.1987 357.579 59.9288 358.124C51.6623 358.67 63.206 323.466 63.206 323.466Z" fill="#9BAAD9"/>
<path d="M57.6322 367.152C57.6322 367.152 64.8146 386.817 57.6322 386.817C50.448 386.817 57.6322 367.152 57.6322 367.152Z" fill="#43568F"/>
<path d="M66.1082 310.125C51.3139 310.125 65.1435 296.999 65.1435 311.041C65.1435 296.999 78.973 310.125 64.1787 310.125C78.973 310.125 65.1435 323.251 65.1435 309.21C65.1435 323.251 51.3139 310.125 66.1082 310.125Z" fill="#1C1C20"/>
<path d="M58.5961 401.795C43.8002 401.795 57.6314 388.669 57.6314 402.71C57.6314 388.669 71.4609 401.795 56.6667 401.795C71.4609 401.795 57.6314 414.921 57.6314 400.879C57.6314 414.921 43.8002 401.795 58.5961 401.795Z" fill="#1C1C20"/>
<path d="M81.4424 418.428H185.176C189.793 418.428 193.536 414.876 193.536 410.493V308.093C193.536 285.909 174.587 267.924 151.212 267.924C108.062 267.924 73.083 301.123 73.083 342.075V410.493C73.083 414.876 76.8259 418.428 81.4424 418.428Z" fill="#43568F"/>
<path d="M193.536 401.122L186.847 407.415L180.157 401.122L173.469 407.415L166.778 401.122L160.097 407.415L153.408 401.122L146.723 407.415L140.031 401.122L133.344 407.415L126.652 401.122L119.959 407.415L113.265 401.122L106.572 407.415L99.8801 401.122L93.1866 407.415L86.4932 401.122L79.7881 407.415L73.083 401.122" stroke="#9BAAD9" stroke-width="2.66667" stroke-miterlimit="10"/>
<path d="M133.309 286.409C133.309 286.409 138.236 275.09 133.309 275.09C128.383 275.09 133.309 286.409 133.309 286.409Z" fill="#F2E1C5"/>
<path d="M142.137 290.373C142.137 290.373 149.646 283.489 145.992 281.977C142.339 280.465 142.137 290.373 142.137 290.373Z" fill="#9BAAD9"/>
<path d="M152.019 295.227C152.019 295.227 160.777 289.832 157.494 287.687C154.212 285.539 152.019 295.227 152.019 295.227Z" fill="#9BAAD9"/>
<path d="M159.085 300.299C159.085 300.299 166.599 298.221 164.733 296.007C162.865 293.794 159.085 300.299 159.085 300.299Z" fill="#9BAAD9"/>
<path d="M124.484 290.373C124.484 290.373 116.973 283.489 120.628 281.977C124.281 280.465 124.484 290.373 124.484 290.373Z" fill="#9BAAD9"/>
<path d="M114.598 295.227C114.598 295.227 105.84 289.832 109.122 287.687C112.404 285.539 114.598 295.227 114.598 295.227Z" fill="#9BAAD9"/>
<path d="M107.533 300.299C107.533 300.299 100.019 298.221 101.885 296.007C103.753 293.794 107.533 300.299 107.533 300.299Z" fill="#9BAAD9"/>
<path d="M164.114 305.293C164.114 305.293 179.933 310.023 179.999 305.5C180.064 300.977 164.114 305.293 164.114 305.293Z" fill="#F2E1C5"/>
<path d="M102.506 305.293C102.506 305.293 86.6874 310.023 86.6211 305.5C86.5548 300.977 102.506 305.293 102.506 305.293Z" fill="#F2E1C5"/>
<path d="M120.454 307.457C120.569 306.913 123.854 291.78 133.309 291.358C142.766 291.78 146.05 306.913 146.164 307.457C160.721 308.952 172.056 320.645 172.056 334.858V383.943C172.056 387.563 169.223 390.618 165.441 391.079L153.738 392.505C140.175 394.156 126.445 394.156 112.882 392.505L101.178 391.079C97.3953 390.618 94.5624 387.563 94.5624 383.943V334.858C94.5624 320.645 105.897 308.952 120.454 307.457Z" fill="#C2A131"/>
<path d="M119.14 315.12C114.05 319.391 109.912 324.643 107.116 330.423C105.75 333.33 104.767 336.368 104.129 339.461C103.595 342.601 103.471 345.659 103.605 348.928L103.908 368.288L103.92 369.498C103.917 369.728 103.93 369.868 103.938 369.975C103.96 370.094 103.97 370.218 104.016 370.335C104.152 370.808 104.494 371.244 104.946 371.573C105.402 371.9 105.972 372.111 106.567 372.169C106.72 372.193 106.857 372.182 107.028 372.191L107.666 372.187L108.941 372.175L119.14 372.091L120.715 372.078L120.722 373.591L120.742 379.47L120.746 380.94C120.75 381.165 120.743 381.476 120.755 381.629C120.758 381.767 120.781 381.901 120.814 382.035C120.949 382.562 121.35 383.067 121.918 383.397C122.202 383.562 122.52 383.685 122.855 383.759C123.021 383.801 123.195 383.817 123.367 383.833L123.631 383.846L124.019 383.844L127.115 383.835L133.31 383.819L139.504 383.833L142.602 383.842H142.988L143.252 383.831C143.426 383.816 143.598 383.8 143.764 383.757C144.099 383.684 144.417 383.561 144.699 383.396C145.269 383.065 145.669 382.562 145.805 382.033C145.836 381.901 145.859 381.766 145.863 381.629C145.876 381.476 145.868 381.165 145.871 380.94L145.876 379.47L145.894 373.591L145.899 372.073L147.481 372.086L157.68 372.172L158.955 372.183L159.591 372.188C159.762 372.179 159.9 372.188 160.052 372.164C160.645 372.108 161.216 371.897 161.672 371.57C162.122 371.243 162.466 370.807 162.6 370.333C162.646 370.217 162.656 370.094 162.678 369.973C162.686 369.868 162.699 369.728 162.698 369.498L162.708 368.288L163.009 348.928C163.145 345.659 163.021 342.601 162.489 339.461C161.849 336.369 160.864 333.331 159.502 330.424C156.705 324.644 152.568 319.393 147.479 315.12C152.942 318.985 157.416 324.116 160.65 329.892C162.223 332.808 163.465 335.902 164.249 339.124C164.95 342.335 165.219 345.742 165.219 348.928L165.521 368.288L165.53 369.498C165.537 369.671 165.532 369.934 165.511 370.231C165.476 370.508 165.439 370.789 165.353 371.057C165.053 372.15 164.334 373.083 163.452 373.744C162.563 374.408 161.496 374.812 160.403 374.941C160.135 374.984 159.845 374.982 159.591 374.995L158.955 375.001L157.68 375.01L147.481 375.097L149.065 373.591L149.084 379.47L149.089 380.94L149.084 381.722C149.075 382.074 149.022 382.427 148.936 382.769C148.583 384.155 147.61 385.305 146.426 386.002C145.833 386.356 145.185 386.61 144.515 386.762C144.18 386.844 143.84 386.885 143.499 386.915L142.988 386.937L142.602 386.938L139.504 386.948L133.31 386.964L127.115 386.945L124.019 386.937L123.631 386.935L123.122 386.913C122.78 386.883 122.439 386.842 122.106 386.761C121.436 386.608 120.788 386.355 120.195 386.001C119.011 385.304 118.038 384.154 117.685 382.769C117.599 382.425 117.546 382.074 117.537 381.722L117.532 380.94L117.537 379.47L117.559 373.591L119.14 375.092L108.941 375.007L107.666 374.996L107.028 374.992C106.774 374.977 106.484 374.979 106.217 374.936C105.125 374.809 104.058 374.405 103.171 373.741C102.289 373.082 101.569 372.149 101.271 371.057C101.183 370.789 101.147 370.508 101.114 370.231C101.09 369.934 101.087 369.671 101.092 369.498L101.104 368.288L101.405 348.928C101.405 345.742 101.674 342.335 102.373 339.126C103.157 335.902 104.402 332.809 105.974 329.894C109.204 324.117 113.68 318.987 119.14 315.12Z" fill="#D9CE55"/>
<path d="M133.309 346.323C133.309 346.323 141.874 305.157 133.309 305.157C124.744 305.157 133.309 346.323 133.309 346.323Z" fill="#D9CE55"/>
<path d="M133.309 346.323C133.309 346.323 141.874 377.874 133.309 377.874C124.744 377.874 133.309 346.323 133.309 346.323Z" fill="#D9CE55"/>
<path d="M133.31 346.323C133.31 346.323 155.411 352.616 155.411 346.323C155.411 340.03 133.31 346.323 133.31 346.323Z" fill="#D9CE55"/>
<path d="M140.525 338.835C140.525 338.835 155.127 331.371 151.757 328.173C148.387 324.975 140.525 338.835 140.525 338.835Z" fill="#F2E1C5"/>
<path d="M126.093 338.835C126.093 338.835 111.491 331.371 114.861 328.173C118.231 324.975 126.093 338.835 126.093 338.835Z" fill="#F2E1C5"/>
<path d="M140.525 353.81C140.525 353.81 155.127 361.273 151.757 364.471C148.387 367.67 140.525 353.81 140.525 353.81Z" fill="#F2E1C5"/>
<path d="M126.093 353.81C126.093 353.81 111.491 361.273 114.861 364.471C118.231 367.67 126.093 353.81 126.093 353.81Z" fill="#F2E1C5"/>
<path d="M133.309 346.323C133.309 346.323 111.208 352.616 111.208 346.323C111.208 340.03 133.309 346.323 133.309 346.323Z" fill="#D9CE55"/>
<path d="M134.184 347.15C120.797 334.445 145.825 334.445 132.438 347.15C145.825 334.445 145.825 358.199 132.438 345.494C145.825 358.199 120.797 358.199 134.184 345.494C120.797 358.199 120.797 334.445 134.184 347.15Z" fill="#1C1C20"/>
<path d="M174.045 292.834C174.045 290.871 175.721 289.281 177.788 289.281C179.857 289.281 181.532 290.871 181.532 292.834C181.532 294.796 179.857 296.387 177.788 296.387C175.721 296.387 174.045 294.796 174.045 292.834Z" fill="#EE5C39"/>
<path d="M165.458 282.451C165.458 280.713 166.943 279.305 168.773 279.305C170.604 279.305 172.088 280.713 172.088 282.451C172.088 284.188 170.604 285.597 168.773 285.597C166.943 285.597 165.458 284.188 165.458 282.451Z" fill="#EE5C39"/>
<path d="M155.744 276.41C155.744 275.107 156.858 274.05 158.23 274.05C159.604 274.05 160.717 275.107 160.717 276.41C160.717 277.714 159.604 278.77 158.23 278.77C156.858 278.77 155.744 277.714 155.744 276.41Z" fill="#EE5C39"/>
<path d="M146.156 274.431C146.156 273.561 146.898 272.858 147.813 272.858C148.728 272.858 149.471 273.561 149.471 274.431C149.471 275.299 148.728 276.004 147.813 276.004C146.898 276.004 146.156 275.299 146.156 274.431Z" fill="#EE5C39"/>
<path d="M81.4424 440.988H185.176C189.793 440.988 193.536 444.54 193.536 448.923V551.323C193.536 573.507 174.587 591.492 151.212 591.492C108.062 591.492 73.083 558.292 73.083 517.34V448.923C73.083 444.54 76.8259 440.988 81.4424 440.988Z" fill="#43568F"/>
<path d="M193.536 458.293L186.847 452L180.157 458.293L173.469 452L166.778 458.293L160.097 452L153.408 458.293L146.723 452L140.031 458.293L133.344 452L126.652 458.293L119.959 452L113.265 458.293L106.572 452L99.8801 458.293L93.1866 452L86.4932 458.293L79.7881 452L73.083 458.293" stroke="#9BAAD9" stroke-width="2.66667" stroke-miterlimit="10"/>
<path d="M133.309 573.006C133.309 573.006 138.236 584.326 133.309 584.326C128.383 584.326 133.309 573.006 133.309 573.006Z" fill="#F2E1C5"/>
<path d="M142.137 569.042C142.137 569.042 149.646 575.926 145.992 577.436C142.339 578.948 142.137 569.042 142.137 569.042Z" fill="#9BAAD9"/>
<path d="M152.019 564.187C152.019 564.187 160.777 569.581 157.494 571.729C154.212 573.876 152.019 564.187 152.019 564.187Z" fill="#9BAAD9"/>
<path d="M159.085 559.116C159.085 559.116 166.599 561.195 164.733 563.408C162.865 565.622 159.085 559.116 159.085 559.116Z" fill="#9BAAD9"/>
<path d="M124.484 569.042C124.484 569.042 116.973 575.926 120.628 577.436C124.281 578.948 124.484 569.042 124.484 569.042Z" fill="#9BAAD9"/>
<path d="M114.598 564.187C114.598 564.187 105.84 569.581 109.122 571.729C112.404 573.876 114.598 564.187 114.598 564.187Z" fill="#9BAAD9"/>
<path d="M107.533 559.116C107.533 559.116 100.019 561.195 101.885 563.408C103.753 565.622 107.533 559.116 107.533 559.116Z" fill="#9BAAD9"/>
<path d="M164.114 554.122C164.114 554.122 179.933 549.392 179.999 553.915C180.064 558.438 164.114 554.122 164.114 554.122Z" fill="#F2E1C5"/>
<path d="M102.506 554.122C102.506 554.122 86.6874 549.392 86.6211 553.915C86.5548 558.438 102.506 554.122 102.506 554.122Z" fill="#F2E1C5"/>
<path d="M120.454 551.958C120.569 552.503 123.854 567.635 133.309 568.057C142.766 567.635 146.05 552.503 146.164 551.958C160.721 550.464 172.056 538.77 172.056 524.558V475.472C172.056 471.852 169.223 468.797 165.441 468.336L153.738 466.909C140.175 465.259 126.445 465.259 112.882 466.909L101.178 468.336C97.3953 468.797 94.5624 471.852 94.5624 475.472V524.558C94.5624 538.77 105.897 550.464 120.454 551.958Z" fill="#C2A131"/>
<path d="M119.14 544.295C113.68 540.428 109.204 535.298 105.974 529.52C104.402 526.606 103.157 523.513 102.373 520.29C101.674 517.08 101.405 513.673 101.405 510.489L101.104 491.127L101.092 489.917C101.087 489.744 101.09 489.482 101.114 489.184C101.147 488.907 101.183 488.626 101.271 488.358C101.569 487.267 102.289 486.334 103.171 485.675C104.058 485.011 105.125 484.606 106.217 484.477C106.484 484.436 106.774 484.438 107.028 484.424L107.666 484.419L108.941 484.408L119.14 484.323L117.559 485.824L117.537 479.945L117.532 478.474L117.537 477.694C117.546 477.341 117.599 476.99 117.685 476.646C118.038 475.261 119.011 474.111 120.195 473.415C120.788 473.061 121.436 472.806 122.106 472.655C122.439 472.573 122.78 472.532 123.122 472.502L123.631 472.478H124.019L127.115 472.471L133.31 472.452L139.504 472.467L142.602 472.477H142.988L143.499 472.5C143.84 472.53 144.18 472.571 144.515 472.653C145.185 472.804 145.833 473.059 146.426 473.413C147.61 474.11 148.583 475.26 148.936 476.646C149.022 476.989 149.075 477.341 149.084 477.694L149.089 478.474L149.084 479.945L149.065 485.824L147.481 484.318L157.68 484.405L158.955 484.414L159.591 484.421C159.845 484.433 160.135 484.432 160.403 484.474C161.496 484.603 162.563 485.007 163.452 485.671C164.334 486.332 165.053 487.265 165.353 488.358C165.439 488.626 165.476 488.907 165.511 489.184C165.532 489.48 165.537 489.744 165.53 489.917L165.521 491.127L165.219 510.489C165.219 513.671 164.95 517.08 164.249 520.291C163.465 523.515 162.223 526.609 160.65 529.521C157.416 535.3 152.942 540.43 147.479 544.295C152.568 540.022 156.705 534.771 159.502 528.991C160.864 526.084 161.849 523.046 162.489 519.953C163.021 516.815 163.145 513.756 163.009 510.489L162.708 491.127L162.698 489.917C162.699 489.686 162.686 489.548 162.678 489.442C162.656 489.321 162.646 489.197 162.6 489.082C162.466 488.609 162.122 488.173 161.672 487.846C161.216 487.518 160.645 487.307 160.052 487.251C159.9 487.226 159.762 487.237 159.591 487.227L158.955 487.232L157.68 487.243L147.481 487.328L145.899 487.342L145.894 485.824L145.876 479.945L145.871 478.474C145.868 478.251 145.876 477.939 145.863 477.785C145.859 477.648 145.836 477.514 145.805 477.382C145.669 476.854 145.269 476.349 144.699 476.02C144.417 475.855 144.099 475.732 143.764 475.658C143.598 475.615 143.426 475.6 143.252 475.584L142.988 475.571L142.602 475.573L139.504 475.582L133.31 475.597L127.115 475.581L124.019 475.571L123.631 475.57L123.367 475.581C123.195 475.598 123.021 475.614 122.855 475.656C122.52 475.73 122.202 475.853 121.918 476.018C121.35 476.347 120.949 476.854 120.814 477.381C120.781 477.514 120.758 477.648 120.755 477.785C120.743 477.939 120.75 478.251 120.746 478.474L120.742 479.945L120.722 485.824L120.715 487.337L119.14 487.323L108.941 487.24L107.666 487.229L107.028 487.224C106.857 487.234 106.72 487.223 106.567 487.246C105.972 487.304 105.402 487.515 104.946 487.842C104.494 488.171 104.152 488.607 104.016 489.081C103.97 489.197 103.96 489.321 103.938 489.441C103.93 489.548 103.917 489.686 103.92 489.917L103.908 491.127L103.605 510.489C103.471 513.756 103.595 516.815 104.129 519.955C104.767 523.048 105.75 526.087 107.116 528.993C109.912 534.773 114.05 540.024 119.14 544.295Z" fill="#D9CE55"/>
<path d="M133.309 513.092C133.309 513.092 141.874 554.258 133.309 554.258C124.744 554.258 133.309 513.092 133.309 513.092Z" fill="#D9CE55"/>
<path d="M133.309 513.092C133.309 513.092 141.874 481.542 133.309 481.542C124.744 481.542 133.309 513.092 133.309 513.092Z" fill="#D9CE55"/>
<path d="M133.31 513.092C133.31 513.092 155.411 506.8 155.411 513.092C155.411 519.385 133.31 513.092 133.31 513.092Z" fill="#D9CE55"/>
<path d="M140.525 520.582C140.525 520.582 155.127 528.044 151.757 531.242C148.387 534.439 140.525 520.582 140.525 520.582Z" fill="#F2E1C5"/>
<path d="M126.093 520.582C126.093 520.582 111.491 528.044 114.861 531.242C118.231 534.439 126.093 520.582 126.093 520.582Z" fill="#F2E1C5"/>
<path d="M140.525 505.604C140.525 505.604 155.127 498.142 151.757 494.944C148.387 491.746 140.525 505.604 140.525 505.604Z" fill="#F2E1C5"/>
<path d="M126.093 505.604C126.093 505.604 111.491 498.142 114.861 494.944C118.231 491.746 126.093 505.604 126.093 505.604Z" fill="#F2E1C5"/>
<path d="M133.309 513.092C133.309 513.092 111.208 506.8 111.208 513.092C111.208 519.385 133.309 513.092 133.309 513.092Z" fill="#D9CE55"/>
<path d="M134.184 512.265C120.797 524.97 145.825 524.97 132.438 512.265C145.825 524.97 145.825 501.216 132.438 513.922C145.825 501.216 120.797 501.216 134.184 513.922C120.797 501.216 120.797 524.97 134.184 512.265Z" fill="#1C1C20"/>
<path d="M174.045 566.583C174.045 568.545 175.721 570.135 177.788 570.135C179.857 570.135 181.532 568.545 181.532 566.583C181.532 564.619 179.857 563.029 177.788 563.029C175.721 563.029 174.045 564.619 174.045 566.583Z" fill="#EE5C39"/>
<path d="M165.458 576.964C165.458 578.703 166.943 580.111 168.773 580.111C170.604 580.111 172.088 578.703 172.088 576.964C172.088 575.228 170.604 573.818 168.773 573.818C166.943 573.818 165.458 575.228 165.458 576.964Z" fill="#EE5C39"/>
<path d="M155.744 583.004C155.744 584.308 156.858 585.364 158.23 585.364C159.604 585.364 160.717 584.308 160.717 583.004C160.717 581.701 159.604 580.644 158.23 580.644C156.858 580.644 155.744 581.701 155.744 583.004Z" fill="#EE5C39"/>
<path d="M146.156 584.985C146.156 585.855 146.898 586.558 147.813 586.558C148.728 586.558 149.471 585.855 149.471 584.985C149.471 584.116 148.728 583.412 147.813 583.412C146.898 583.412 146.156 584.116 146.156 584.985Z" fill="#EE5C39"/>
<path d="M713.903 623.5H-359.073V663.049H713.903V623.5Z" fill="#3E1F0D"/>
<path d="M343.176 794.598C343.176 794.598 335.954 799.735 334.297 801.505" stroke="#1C1C20" stroke-width="1.33333" stroke-miterlimit="10" stroke-linecap="round" stroke-linejoin="round"/>
<path d="M234.158 817.684C234.158 817.684 197.162 793.787 209.688 773.567C209.688 773.567 205.921 677.225 225.204 669.331L276.445 654.083C276.445 654.083 290.971 620.47 311.308 619.354C331.645 618.238 357.556 623.453 357.556 623.453L401.106 649.488C401.106 649.488 456.843 656.841 464.452 655.921C472.066 655.002 523.716 647.649 532.753 654.083C541.793 660.517 562.834 675.834 563.935 693.452L599.898 731.097C599.898 731.097 640.575 775.711 650.579 783.983C650.579 783.983 651.553 772.648 659.62 771.728C667.687 770.809 683.182 801.14 683.182 801.14C683.182 801.14 678.623 787.353 686.227 791.949C693.835 796.544 697.015 825.648 697.015 825.648H234.158V817.684Z" fill="#043F22"/>
<path d="M226.52 780.866C226.52 780.866 218.876 752.067 191.115 752.679C163.354 753.293 138.82 765.543 172.07 784.539C205.318 803.537 221.897 796.796 226.52 780.866Z" fill="#626129"/>
<path d="M156.532 764.979C156.532 764.979 199.949 758.808 226.522 787.605" stroke="#043F22" stroke-width="1.33333" stroke-miterlimit="10" stroke-linecap="round" stroke-linejoin="round"/>
<path d="M343.751 797.923C343.751 797.923 387.33 808.952 390.719 796.085C394.109 783.217 363.48 754.016 328.553 768.572L317.119 784.057L333.459 793.787L343.751 797.923Z" fill="#626129"/>
<path d="M250.298 772.256L255.624 797.463C193.161 832.389 185.737 806.042 210.916 782.758C236.095 759.473 247.716 769.53 247.716 769.53L250.298 772.256Z" fill="#8C7417"/>
<path d="M276.788 678.006C276.788 678.006 241.542 685.384 226.047 705.514C210.552 725.645 196.464 744.53 219.648 754.082C242.834 763.635 271.241 714.003 273.823 701.136C276.405 688.268 276.788 678.006 276.788 678.006Z" fill="#626129"/>
<path d="M216.016 756.81C216.016 756.81 236.498 698.378 276.788 678.006" stroke="#043F22" stroke-width="1.33333" stroke-miterlimit="10" stroke-linecap="round" stroke-linejoin="round"/>
<path d="M259.982 662.248C259.982 662.248 203.813 628.694 188.964 663.14C174.116 697.588 246.728 681.105 253.356 671.677C259.982 662.248 259.982 662.248 259.982 662.248Z" fill="#C2A131"/>
<path d="M259.983 662.248C208.98 656.322 187.778 666.388 187.778 666.388" stroke="#D9CE55" stroke-width="1.33333" stroke-miterlimit="10" stroke-linecap="round" stroke-linejoin="round"/>
<path d="M288.389 683.993C288.476 685.33 290.326 740.547 311.307 732.854C332.289 725.161 307.11 676.142 303.237 674.303C299.363 672.465 287.827 675.456 288.389 683.993Z" fill="#C2A131"/>
<path d="M312.98 732.096C312.98 732.096 310.692 697.025 293.569 675.555" stroke="#D9CE55" stroke-width="1.33333" stroke-miterlimit="10" stroke-linecap="round" stroke-linejoin="round"/>
<path d="M311.309 659.598C311.309 659.598 311.632 596.235 270.959 609.534C230.285 622.834 311.309 659.598 311.309 659.598Z" fill="#626129"/>
<path d="M269.724 609.965C269.724 609.965 314.674 638.185 311.308 659.598" stroke="#043F22" stroke-width="1.33333" stroke-miterlimit="10" stroke-linecap="round" stroke-linejoin="round"/>
<path d="M355.856 693.452C355.856 693.452 339.358 677.438 328.552 691.459C317.747 705.483 334.874 719.951 334.874 719.951C334.874 719.951 319.379 744.135 344.235 747.822C369.09 751.508 371.351 732.854 371.351 732.854C371.351 732.854 384.263 741.091 391.687 724.242C399.111 707.391 378.453 706.18 378.453 706.18C378.453 706.18 391.364 694.524 375.224 687.783C359.085 681.044 355.856 693.452 355.856 693.452Z" fill="#F3A8C1"/>
<path d="M354.888 711.068C354.888 711.068 360.375 714.871 364.249 713.43C364.249 713.43 364.572 706.193 362.312 706.18C360.054 706.165 354.888 711.068 354.888 711.068Z" fill="#B7301A"/>
<path d="M259.982 658.982C259.982 658.982 236.134 662.221 242.57 677.759C249.006 693.297 264.239 684.72 264.239 684.72C264.239 684.72 253.527 717.426 282.579 713.021C311.632 708.617 296.937 680.346 296.937 680.346C296.937 680.346 315.775 699.237 326.437 675.555C337.099 651.872 303.966 656.05 303.966 656.05C303.966 656.05 308.099 638.765 285.01 637.999C261.919 637.232 259.982 655.715 259.982 658.982Z" fill="#F3A8C1"/>
<path d="M276.768 671.677C276.768 671.677 286.35 670.61 287.855 667.403C287.855 667.403 281.932 658.985 278.382 659.598C274.831 660.21 276.768 671.677 276.768 671.677Z" fill="#B7301A"/>
<path d="M285.01 768.572C285.01 768.572 254.855 739.757 242.57 769.53C230.284 799.302 269.99 802.671 269.99 802.671C269.99 802.671 257.106 829.02 293.569 831.777C330.032 834.534 321.638 810.024 321.638 810.024C321.638 810.024 338.424 820.134 346.817 799.913C355.211 779.693 328.552 776.017 328.552 776.017C328.552 776.017 344.924 746.3 319.563 742.317C294.2 738.333 281.952 752.55 285.01 768.572Z" fill="#F3A8C1"/>
<path d="M416.381 703.395C416.381 703.395 398.465 712.912 395.56 733.589C392.655 754.266 399.918 776 422.676 772.256C445.434 768.512 449.308 734.837 438.171 706.18L416.381 703.395Z" fill="#8C7417"/>
<path d="M425.97 771.446C425.97 771.446 414.734 724.825 425.97 704.619" stroke="#D9CE55" stroke-width="1.33333" stroke-miterlimit="10" stroke-linecap="round" stroke-linejoin="round"/>
<path d="M431.877 640.756C431.877 640.756 422.648 621.803 415.414 609.534C407.506 596.123 401.684 589.106 390.719 596.525C375.674 606.702 399.919 643.514 399.919 643.514C399.919 643.514 355.916 604.452 337.003 622.834C318.088 641.216 381.035 663.87 381.035 663.87L431.877 651.786V640.756Z" fill="#8C7417"/>
<path d="M390.719 596.525C390.719 596.525 411.823 626.402 412.648 647.596" stroke="#D9CE55" stroke-width="1.33333" stroke-miterlimit="10" stroke-linecap="round" stroke-linejoin="round"/>
<path d="M337.002 622.834C337.002 622.834 380.066 641.216 390.719 653.164" stroke="#D9CE55" stroke-width="1.33333" stroke-miterlimit="10" stroke-linecap="round" stroke-linejoin="round"/>
<path d="M397.982 673.783C397.982 673.783 376.677 692.062 397.982 699.268C419.288 706.472 428.972 693.452 428.972 693.452C428.972 693.452 453.196 700.919 459.483 687.612C465.772 674.304 455.119 662.467 441.077 662.411C441.077 662.411 459.477 642.089 431.877 637.975C404.277 633.863 408.036 655.493 408.036 655.493C408.036 655.493 378.614 632.084 371.351 655.493C364.088 678.899 397.982 673.783 397.982 673.783Z" fill="#F3A8C1"/>
<path d="M415.832 667.403C415.832 667.403 417.49 670.611 423.472 667.403C423.472 667.403 424.373 659.533 419.651 659.565C414.929 659.598 415.832 667.403 415.832 667.403Z" fill="#B7301A"/>
<path d="M-102.427 827.098C-102.427 827.098 -139.423 803.202 -126.897 782.981C-126.897 782.981 -130.665 686.639 -111.381 678.746L-60.1403 663.498C-60.1403 663.498 -45.614 629.885 -25.2772 628.769C-4.94033 627.653 20.9708 632.868 20.9708 632.868L64.5206 658.902C64.5206 658.902 120.257 666.255 127.867 665.336C135.481 664.417 187.131 657.064 196.168 663.498C205.207 669.932 226.249 685.249 227.349 702.866L263.312 740.512C263.312 740.512 303.99 785.126 313.994 793.398C313.994 793.398 314.968 782.062 323.035 781.143C331.102 780.224 346.597 810.555 346.597 810.555C346.597 810.555 342.037 796.768 349.641 801.363C357.249 805.959 360.429 835.063 360.429 835.063H-102.427V827.098Z" fill="#043F22"/>
<path d="M7.1654 807.338C7.1654 807.338 50.7443 818.367 54.1338 805.5C57.5233 792.632 26.8941 763.431 -8.033 777.987L-19.4662 793.472L-3.12696 803.202L7.1654 807.338Z" fill="#626129"/>
<path d="M19.2703 702.866C19.2703 702.866 2.77229 686.852 -8.03336 700.874C-18.839 714.898 -1.71153 729.366 -1.71153 729.366C-1.71153 729.366 -17.2062 753.55 7.64925 757.237C32.5047 760.923 34.765 742.269 34.765 742.269C34.765 742.269 47.678 750.505 55.1019 733.656C62.5258 716.806 41.8674 715.594 41.8674 715.594C41.8674 715.594 54.7784 703.938 38.6387 697.197C22.499 690.458 19.2703 702.866 19.2703 702.866Z" fill="#F3A8C1"/>
<path d="M18.3025 720.482C18.3025 720.482 23.7896 724.286 27.6633 722.845C27.6633 722.845 27.9867 715.607 25.7264 715.595C23.4681 715.579 18.3025 720.482 18.3025 720.482Z" fill="#B7301A"/>
<path d="M-76.6032 668.396C-76.6032 668.396 -100.452 671.636 -94.0155 687.174C-87.5793 702.712 -72.3461 694.135 -72.3461 694.135C-72.3461 694.135 -83.0587 726.841 -54.0061 722.436C-24.9535 718.032 -39.6483 689.761 -39.6483 689.761C-39.6483 689.761 -20.8105 708.652 -10.1482 684.97C0.514088 661.286 -32.6195 665.465 -32.6195 665.465C-32.6195 665.465 -28.4863 648.18 -51.5754 647.414C-74.6664 646.647 -76.6032 665.13 -76.6032 668.396Z" fill="#F3A8C1"/>
<path d="M-51.5756 777.987C-51.5756 777.987 -81.7303 749.171 -94.0157 778.945C-106.301 808.716 -66.5958 812.085 -66.5958 812.085C-66.5958 812.085 -79.4797 838.434 -43.0167 841.192C-6.55371 843.949 -14.9479 819.438 -14.9479 819.438C-14.9479 819.438 1.83866 829.548 10.231 809.328C18.6253 789.108 -8.03343 785.431 -8.03343 785.431C-8.03343 785.431 8.33871 755.715 -17.0223 751.732C-42.3852 747.748 -54.6339 761.965 -51.5756 777.987Z" fill="#F3A8C1"/>
<path d="M98.6817 762.302C98.6817 762.302 111.916 811.779 138.71 796.231C165.503 780.684 137.419 751.732 133.061 746.217C128.703 740.703 98.1975 732.89 98.6817 734.269C99.1659 735.648 98.6817 762.302 98.6817 762.302Z" fill="#8C7417"/>
<path d="M142.986 792.876C142.986 792.876 119.017 759.544 104.491 746.217" stroke="#D9CE55" stroke-width="1.33333" stroke-miterlimit="10" stroke-linecap="round" stroke-linejoin="round"/>
<path d="M79.7958 712.809C79.7958 712.809 61.88 722.326 58.9748 743.004C56.0695 763.68 63.3327 785.415 86.0906 781.671C108.848 777.926 112.722 744.252 101.585 715.595L79.7958 712.809Z" fill="#8C7417"/>
<path d="M89.3842 780.86C89.3842 780.86 78.1486 734.24 89.3842 714.034" stroke="#D9CE55" stroke-width="1.33333" stroke-miterlimit="10" stroke-linecap="round" stroke-linejoin="round"/>
<path d="M95.2908 710.077C95.2908 710.077 100.247 772.252 139.894 754.64C179.543 737.026 95.2908 695.121 95.2908 695.121V710.077Z" fill="#626129"/>
<path d="M95.2908 695.121C95.2908 695.121 141.5 736.246 142.366 753.41" stroke="#043F22" stroke-width="1.33333" stroke-miterlimit="10" stroke-linecap="round" stroke-linejoin="round"/>
<path d="M101.586 673.284C101.586 673.284 125.519 616.256 145.753 631.475C165.984 646.693 153.063 674.691 145.966 678.746C138.87 682.799 104.491 678.746 104.491 678.746L101.586 673.284Z" fill="#626129"/>
<path d="M107.597 678.746C107.597 678.746 131.999 644.809 151.182 636.824" stroke="#043F22" stroke-width="1.33333" stroke-miterlimit="10" stroke-linecap="round" stroke-linejoin="round"/>
<path d="M214.368 751.055C213.438 751.732 219.388 809.176 255.15 803.202C290.912 797.228 251.263 743.004 251.263 743.004L226.512 736.567L214.368 751.055Z" fill="#8C7417"/>
<path d="M217.867 741.511C217.867 741.511 259.299 787.533 262.759 800.652" stroke="#D9CE55" stroke-width="1.33333" stroke-miterlimit="10" stroke-linecap="round" stroke-linejoin="round"/>
<path d="M225.543 741.511C225.543 741.511 278.868 771.666 290.701 747.452C302.533 723.24 239.585 716.904 233.291 719.381C226.996 721.861 223.122 731.839 223.122 731.839L225.543 741.511Z" fill="#8C7417"/>
<path d="M228.772 729.673C228.772 729.673 280.322 738.963 290.701 747.452" stroke="#D9CE55" stroke-width="1.33333" stroke-miterlimit="10" stroke-linecap="round" stroke-linejoin="round"/>
<path d="M230.87 726.451C230.87 726.451 271.469 694.328 257.463 685.117C243.46 675.906 216.342 703.315 211.016 708.683C205.691 714.049 207.725 731.839 207.725 731.839L223.691 734.109L230.87 726.451Z" fill="#8C7417"/>
<path d="M211.015 726.451C212.469 726.916 246.773 688.354 257.462 685.117" stroke="#D9CE55" stroke-width="1.33333" stroke-miterlimit="10" stroke-linecap="round" stroke-linejoin="round"/>
<path d="M188.151 710.077C188.151 710.077 179.255 700.312 168.891 705.786C158.527 711.26 157.754 728.295 168.891 736.567C168.891 736.567 145.707 760.923 174.489 768.276C203.27 775.629 199.536 743.004 199.536 743.004C199.536 743.004 208.383 766.265 225.544 747.452C242.704 728.64 214.281 726.454 214.281 726.454C214.281 726.454 234.883 711.291 217.866 700.262C200.849 689.233 188.151 710.077 188.151 710.077Z" fill="#F3A8C1"/>
<path d="M95.2918 650.171C95.2918 650.171 86.0628 631.217 78.8287 618.949C70.9205 605.538 65.0984 598.521 54.1339 605.94C39.0885 616.116 63.3339 652.928 63.3339 652.928C63.3339 652.928 19.3308 613.867 0.417518 632.249C-18.4977 650.631 44.4497 673.284 44.4497 673.284L95.2918 661.2V650.171Z" fill="#8C7417"/>
<path d="M54.1333 605.94C54.1333 605.94 75.2371 635.816 76.0622 657.011" stroke="#D9CE55" stroke-width="1.33333" stroke-miterlimit="10" stroke-linecap="round" stroke-linejoin="round"/>
<path d="M0.41687 632.249C0.41687 632.249 43.4806 650.631 54.1333 662.579" stroke="#D9CE55" stroke-width="1.33333" stroke-miterlimit="10" stroke-linecap="round" stroke-linejoin="round"/>
<path d="M194.319 729.673C194.319 729.673 186.808 721.153 183.903 724.265C180.998 727.376 185.84 734.109 185.84 734.109L194.319 729.673Z" fill="#B7301A"/>
<path d="M61.397 683.198C61.397 683.198 40.0918 701.477 61.397 708.683C82.7023 715.887 92.3865 702.867 92.3865 702.867C92.3865 702.867 116.611 710.334 122.898 697.027C129.186 683.718 118.534 671.882 104.492 671.825C104.492 671.825 122.892 651.504 95.2918 647.39C67.6918 643.278 71.4511 664.908 71.4511 664.908C71.4511 664.908 42.0286 641.498 34.7654 664.908C27.5023 688.314 61.397 683.198 61.397 683.198Z" fill="#F3A8C1"/>
<path d="M79.2462 676.818C79.2462 676.818 80.9041 680.025 86.887 676.818C86.887 676.818 87.7876 668.948 83.0656 668.98C78.3436 669.013 79.2462 676.818 79.2462 676.818Z" fill="#B7301A"/>
<path d="M166.552 818.598C166.552 818.598 187.034 877.03 227.325 897.402" stroke="#043F22" stroke-width="1.33333" stroke-miterlimit="10" stroke-linecap="round" stroke-linejoin="round"/>
<path d="M210.518 913.16C210.518 913.16 154.35 946.714 139.5 912.268C124.652 877.82 197.265 894.303 203.892 903.731C210.518 913.16 210.518 913.16 210.518 913.16Z" fill="#C2A131"/>
<path d="M210.52 913.16C159.517 919.086 138.314 909.02 138.314 909.02" stroke="#D9CE55" stroke-width="1.33333" stroke-miterlimit="10" stroke-linecap="round" stroke-linejoin="round"/>
<path d="M238.925 891.415C239.012 890.077 240.862 834.861 261.844 842.554C282.826 850.247 257.647 899.266 253.773 901.104C249.9 902.943 238.364 899.952 238.925 891.415Z" fill="#C2A131"/>
<path d="M263.516 843.312C263.516 843.312 261.229 878.383 244.105 899.853" stroke="#D9CE55" stroke-width="1.33333" stroke-miterlimit="10" stroke-linecap="round" stroke-linejoin="round"/>
<path d="M261.845 915.81C261.845 915.81 262.169 979.173 221.495 965.874C180.822 952.574 261.845 915.81 261.845 915.81Z" fill="#626129"/>
<path d="M220.261 965.443C220.261 965.443 265.211 937.223 261.845 915.81" stroke="#043F22" stroke-width="1.33333" stroke-miterlimit="10" stroke-linecap="round" stroke-linejoin="round"/>
<path d="M306.392 881.956C306.392 881.956 289.894 897.97 279.089 883.949C268.283 869.925 285.411 855.457 285.411 855.457C285.411 855.457 269.916 831.273 294.771 827.586C319.627 823.9 321.887 842.554 321.887 842.554C321.887 842.554 334.8 834.317 342.224 851.166C349.648 868.017 328.99 869.228 328.99 869.228C328.99 869.228 341.901 880.884 325.761 887.625C309.621 894.364 306.392 881.956 306.392 881.956Z" fill="#F3A8C1"/>
<path d="M305.425 864.34C305.425 864.34 310.912 860.537 314.785 861.978C314.785 861.978 315.109 869.215 312.849 869.228C310.59 869.243 305.425 864.34 305.425 864.34Z" fill="#B7301A"/>
<path d="M385.804 822.521C385.804 822.521 399.038 773.044 425.832 788.592C452.625 804.139 424.541 833.091 420.183 838.605C415.825 844.12 385.32 851.932 385.804 850.554C386.288 849.175 385.804 822.521 385.804 822.521Z" fill="#8C7417"/>
<path d="M430.108 791.947C430.108 791.947 406.139 825.279 391.613 838.606" stroke="#D9CE55" stroke-width="1.33333" stroke-miterlimit="10" stroke-linecap="round" stroke-linejoin="round"/>
<path d="M388.708 911.538C388.708 911.538 412.641 968.567 432.876 953.348C453.106 938.13 440.185 910.132 433.089 906.077C425.992 902.024 391.613 906.077 391.613 906.077L388.708 911.538Z" fill="#626129"/>
<path d="M394.719 906.077C394.719 906.077 419.122 940.014 438.304 947.999" stroke="#043F22" stroke-width="1.33333" stroke-miterlimit="10" stroke-linecap="round" stroke-linejoin="round"/>
<path d="M-42.298 768.07C-42.298 768.07 1.28097 757.041 4.67044 769.908C8.05992 782.776 -22.5693 811.977 -57.4964 797.421L-68.9296 781.936L-52.5903 772.206L-42.298 768.07Z" fill="#626129"/>
<path d="M-30.1931 872.542C-30.1931 872.542 -46.6911 888.555 -57.4967 874.534C-68.3024 860.51 -51.1749 846.042 -51.1749 846.042C-51.1749 846.042 -66.6696 821.858 -41.8141 818.171C-16.9586 814.485 -14.6983 833.139 -14.6983 833.139C-14.6983 833.139 -1.78541 824.903 5.63851 841.752C13.0624 858.602 -7.59595 859.813 -7.59595 859.813C-7.59595 859.813 5.31505 871.47 -10.8247 878.211C-26.9644 884.949 -30.1931 872.542 -30.1931 872.542Z" fill="#F3A8C1"/>
<path d="M49.2183 813.106C49.2183 813.106 62.4528 763.629 89.247 779.177C116.039 794.724 87.9552 823.676 83.5973 829.191C79.2394 834.705 48.7341 842.518 49.2183 841.139C49.7026 839.76 49.2183 813.106 49.2183 813.106Z" fill="#8C7417"/>
<path d="M93.5222 782.532C93.5222 782.532 69.5538 815.864 55.0275 829.191" stroke="#D9CE55" stroke-width="1.33333" stroke-miterlimit="10" stroke-linecap="round" stroke-linejoin="round"/>
<path d="M30.3325 862.599C30.3325 862.599 12.4167 853.082 9.5114 832.404C6.60614 811.728 13.8693 789.993 36.6272 793.737C59.3851 797.482 63.2588 831.156 52.1219 859.813L30.3325 862.599Z" fill="#8C7417"/>
<path d="M39.9209 794.548C39.9209 794.548 28.6852 841.168 39.9209 861.374" stroke="#D9CE55" stroke-width="1.33333" stroke-miterlimit="10" stroke-linecap="round" stroke-linejoin="round"/>
<path d="M45.8274 865.331C45.8274 865.331 50.7838 803.156 90.4309 820.768C130.08 838.382 45.8274 880.287 45.8274 880.287V865.331Z" fill="#626129"/>
<path d="M45.8274 880.287C45.8274 880.287 92.0366 839.161 92.9023 821.998" stroke="#043F22" stroke-width="1.33333" stroke-miterlimit="10" stroke-linecap="round" stroke-linejoin="round"/>
<path d="M52.1223 902.124C52.1223 902.124 76.0559 959.152 96.2901 943.933C116.52 928.715 103.6 900.717 96.5031 896.662C89.4065 892.609 55.0276 896.662 55.0276 896.662L52.1223 902.124Z" fill="#626129"/>
<path d="M58.1338 896.662C58.1338 896.662 82.5361 930.599 101.719 938.584" stroke="#043F22" stroke-width="1.33333" stroke-miterlimit="10" stroke-linecap="round" stroke-linejoin="round"/>
<path d="M176.08 833.897C176.08 833.897 229.405 803.742 241.237 827.956C253.069 852.168 190.122 858.504 183.827 856.027C177.533 853.547 173.659 843.569 173.659 843.569L176.08 833.897Z" fill="#8C7417"/>
<path d="M179.309 845.735C179.309 845.735 230.858 836.444 241.238 827.956" stroke="#D9CE55" stroke-width="1.33333" stroke-miterlimit="10" stroke-linecap="round" stroke-linejoin="round"/>
<path d="M181.407 848.957C181.407 848.957 222.005 881.08 208 890.291C193.997 899.502 166.879 872.093 161.552 866.725C156.228 861.359 158.262 843.569 158.262 843.569L174.227 841.299L181.407 848.957Z" fill="#8C7417"/>
<path d="M161.551 848.957C163.006 848.492 197.309 887.054 207.999 890.291" stroke="#D9CE55" stroke-width="1.33333" stroke-miterlimit="10" stroke-linecap="round" stroke-linejoin="round"/>
<path d="M138.688 865.331C138.688 865.331 129.792 875.096 119.428 869.622C109.064 864.148 108.291 847.113 119.428 838.841C119.428 838.841 96.2439 814.485 125.025 807.132C153.807 799.779 150.073 832.404 150.073 832.404C150.073 832.404 158.92 809.143 176.081 827.956C193.241 846.768 164.818 848.954 164.818 848.954C164.818 848.954 185.42 864.117 168.403 875.146C151.386 886.175 138.688 865.331 138.688 865.331Z" fill="#F3A8C1"/>
<path d="M144.856 845.735C144.856 845.735 137.345 854.255 134.439 851.143C131.534 848.032 136.376 841.299 136.376 841.299L144.856 845.735Z" fill="#B7301A"/>
<path d="M160.59 109.303C160.59 109.303 192.384 180.44 199.006 180.505C205.627 180.569 206.641 97.957 206.641 97.957C206.641 97.957 259.341 186.263 269.505 183.415C279.667 180.569 259.361 98.1599 259.361 98.1599C259.361 98.1599 297.028 155.409 303.819 155.928C310.61 156.449 297.748 92.4696 297.748 92.4696L224.272 68L152 75.6898L160.59 109.303Z" fill="#626129"/>
<path d="M2.13329 130.721C2.13329 130.721 36.5733 200.616 43.1933 200.432C49.8124 200.248 47.7266 117.656 47.7266 117.656C47.7266 117.656 103.702 203.922 113.752 200.695C123.8 197.47 100.417 115.881 100.417 115.881C100.417 115.881 140.205 171.676 147.01 171.94C153.817 172.206 138.564 108.754 138.564 108.754L64.2214 87.0583L-7.7115 97.4539L2.13329 130.721Z" fill="#626129"/>
<path d="M448.359 149.736C448.359 149.736 406.675 215.567 400.112 214.68C393.55 213.792 404.416 131.892 404.416 131.892C404.416 131.892 339.576 211.71 329.927 207.432C320.279 203.156 352.213 124.518 352.213 124.518C352.213 124.518 306.713 175.762 299.918 175.3C293.122 174.84 315.042 113.372 315.042 113.372L391.271 99.7124L461.689 117.705L448.359 149.736Z" fill="#626129"/>
<path d="M168.903 68C168.903 68 262.759 175.736 243.359 193.234C230.725 204.63 220.326 137.535 115.029 105.596C115.029 105.596 184.811 166.523 178.197 183.243C171.583 199.962 108.484 132.006 47.4856 122.748C47.4856 122.748 106.717 193.049 91.8327 197.037C76.9488 201.022 10.1108 133.949 -10.5219 130.539C-10.5219 130.539 38.1448 176.939 19.3098 235.904C0.476162 294.868 -40 99.6221 -40 99.6221L168.903 68Z" fill="#043F22"/>
<path d="M310.265 84.3723C310.265 84.3723 225.799 181.707 243.577 198.011C255.156 208.63 264.072 147.323 359.55 119.579C359.55 119.579 296.594 174.385 302.743 189.793C308.892 205.204 365.715 143.862 421.1 136.257C421.1 136.257 367.811 199.799 381.377 203.663C394.941 207.529 455.173 147.051 473.904 144.224C473.904 144.224 507.878 139.526 525.476 193.802C543.075 248.079 500.455 116.327 500.455 116.327L310.265 84.3723Z" fill="#043F22"/>
<path d="M169.304 65.6724C169.304 65.6724 108.719 179.418 129.69 191.338C143.349 199.102 138.343 137.352 225.209 88.9783C225.209 88.9783 176.088 156.464 185.525 170.109C194.961 183.756 236.643 111.27 288.929 91.4829C288.929 91.4829 251.183 165.325 265.27 166.06C279.355 166.798 324.552 94.3916 342.178 87.4512C342.178 87.4512 374.244 75.2814 403.524 124.255C432.804 173.228 361.825 54.3279 361.825 54.3279L169.304 65.6724Z" fill="#043F22"/>
<path d="M-20 -14H445L430 121.5L205 80L-11 116L-20 -14Z" fill="#043F22"/>
</g>
</svg>
