<svg width="680" height="827" viewBox="0 0 680 827" fill="none" xmlns="http://www.w3.org/2000/svg">
<g filter="url(#filter0_d_312_22153)">
<path d="M311.234 349.689C281.975 346.32 279.933 344.516 269.254 345.56C258.826 346.579 237.589 351.64 211.226 372.571C182.065 395.723 163.946 424.247 154.706 440.971C164.908 447.429 179.334 455.706 197.454 463.413C221.457 473.624 289.346 502.501 371.654 482.65C450.564 463.621 496.674 410.91 511.845 391.855C503.372 375.521 493.332 364.496 486.076 357.969C474.27 347.353 461.838 340.679 450.977 336.452C438.077 331.429 423.626 333.054 411.886 340.388C403.401 345.69 395.922 348.63 390.374 350.377C371.184 356.424 350.94 354.261 311.234 349.689Z" fill="#D19074"/>
<path d="M353.909 357.491L332.229 496.503L397.27 495.227L353.909 357.491Z" fill="#F0F1EB"/>
<path d="M385.218 393.87C384.684 394.073 374.806 397.775 363.16 399.399C315.537 406.034 260.436 374.806 246.108 366.316C276.509 375.992 302.375 379.192 320.477 380.265C336.8 381.233 352.453 382.058 372.15 378.244C402.361 372.395 424.514 359.034 437.408 349.737C430.129 361.182 413.826 382.978 385.218 393.87Z" fill="#F0F1EB"/>
<path d="M248.659 400.112C248.659 400.112 383.206 442.836 439.959 383.533C439.959 383.533 369.816 493.212 248.659 400.112Z" fill="#F0F1EB"/>
<path d="M232.935 434.604C232.935 434.604 394.259 471.241 459.377 409.427C459.377 409.427 380.273 522.184 232.935 434.604Z" fill="#F0F1EB"/>
<path d="M214.275 384.558C208.016 393.056 208.242 403.85 214.78 408.664C221.317 413.478 231.69 410.493 237.949 401.993C244.208 393.495 243.983 382.703 237.445 377.887C230.908 373.073 220.534 376.06 214.275 384.558Z" fill="#F0F1EB"/>
<path d="M156.312 482.11C152.57 479.121 151.959 473.665 154.948 469.922L201.13 412.097C204.12 408.355 209.576 407.744 213.318 410.733C217.061 413.722 217.671 419.18 214.682 422.922L168.501 480.746C165.512 484.488 160.055 485.099 156.312 482.11Z" fill="#F0F1EB"/>
<path d="M446.793 373.954C454.257 381.417 464.96 382.814 470.702 377.072C476.442 371.331 475.046 360.628 467.583 353.165C460.12 345.7 449.416 344.305 443.676 350.045C437.934 355.787 439.33 366.491 446.793 373.954Z" fill="#F0F1EB"/>
<path d="M519.553 459.968C515.576 462.636 510.188 461.574 507.521 457.597L466.299 396.138C463.63 392.16 464.692 386.772 468.671 384.105C472.648 381.437 478.035 382.498 480.703 386.475L521.925 447.934C524.593 451.913 523.532 457.3 519.553 459.968Z" fill="#F0F1EB"/>
<path d="M217.764 569.082L196.994 600.96L84.9316 763.003L2 764.433L98.5943 629.871L154.925 541.989C190.656 514.88 217.764 569.082 217.764 569.082Z" fill="#D19074"/>
<path d="M112.357 631.758C107.81 631.758 102.946 631.259 98.5947 629.87L114.001 605.834C122.135 607.894 131.155 609.117 141.102 609.117C144.694 609.117 148.408 608.957 152.242 608.619C165.964 607.417 181.254 603.942 198.233 597.367C198.723 597.178 199.217 596.984 199.712 596.788L196.994 600.959C173.598 620.114 143.647 631.238 113.369 631.75C113.035 631.755 112.696 631.758 112.357 631.758Z" fill="#B9765B"/>
<path d="M645.932 674.503L578.119 658.735C578.119 658.735 521.633 565.012 494.416 517.52C485.623 502.203 479.89 491.685 480.077 490.691C488.481 445.872 546.365 461.749 546.365 461.749L568.332 508.821L645.932 674.503Z" fill="#D19074"/>
<path d="M522.753 521.792C513.096 521.792 503.638 520.127 494.415 517.52C490.951 511.485 487.962 506.195 485.622 501.938C496.48 500.894 531.289 497.219 559.798 490.536L568.331 508.82C557.752 515.112 545.945 519.369 533.734 521.047C530.048 521.556 526.386 521.792 522.753 521.792Z" fill="#B9765B"/>
<path d="M250.905 651.221L119.811 755.741L609.5 803.5L450.593 643.002C428.261 650.816 397.651 658.952 360.663 661.48C314.764 664.618 276.702 657.916 250.905 651.221Z" fill="#4E8AF5"/>
<path d="M219.544 550.276C216.963 553.385 250.905 651.221 250.905 651.221C250.905 651.221 308.727 697.282 374.39 667.88L421.432 656.12C421.432 656.12 435.152 665.92 448.873 638.48C462.594 611.039 494.935 543.416 482.194 502.254C469.454 461.092 262.665 498.335 219.544 550.276Z" fill="#F0F1EB"/>
<path d="M355.836 677.458L355.25 676.019C378.674 666.509 395.247 655.594 405.475 630.602L406.914 631.191C396.479 656.686 379.632 667.797 355.836 677.458Z" fill="#4E8AF5"/>
<path d="M414.306 660.243L413.761 658.791C420.275 656.348 425.352 650.636 427.008 643.88L428.516 644.25C426.739 651.497 421.294 657.626 414.306 660.243Z" fill="#4E8AF5"/>
<path d="M383.23 357.552C379.018 361.437 367.997 370.471 352.35 370.974C331.421 371.628 317.347 356.526 314.052 352.838C313.046 326.192 312.043 299.568 311.039 272.944C310.385 255.946 309.751 238.945 309.119 221.945C310.472 220.57 313.637 217.536 318.285 214.613C324.547 210.684 333.474 206.952 344.319 207.738C353.18 208.392 360.534 211.841 366.251 215.901C368.825 217.69 371.073 219.632 372.973 221.465C376.792 225.153 379.192 228.492 380.152 229.823L382.641 331.911L382.75 336.82L383.23 357.552Z" fill="#D19074"/>
<path d="M382.641 331.911C340.107 327.174 319.834 295.052 311.039 272.944C310.965 270.994 310.89 269.046 310.815 267.096C310.957 266.8 311.1 266.5 311.238 266.2C317.07 275.178 322.529 283.461 324.626 285.319C333.073 292.806 347.693 294.451 358.508 296.522C366.175 297.99 374.023 299.385 381.859 299.874L382.641 331.911Z" fill="#B9765B"/>
<path d="M337.352 303.713C335.124 309.756 336.634 313.517 337.17 314.656C341.489 323.833 359.088 325.472 365.132 318.44C366.684 316.634 367.274 314.488 367.504 312.761C367.757 310.738 368.009 308.715 368.262 306.694C366.764 307.743 360.376 311.965 351.579 310.864C343.623 309.868 338.734 305.147 337.352 303.713Z" fill="#F0F1EB"/>
<path d="M336.348 319.778C334.12 325.821 335.63 329.582 336.166 330.721C340.485 339.898 358.083 341.537 364.128 334.505C365.68 332.699 366.27 330.553 366.5 328.826C366.752 326.803 367.005 324.782 367.258 322.759C365.76 323.808 359.371 328.03 350.575 326.93C342.618 325.933 337.729 321.213 336.348 319.778Z" fill="#F0F1EB"/>
<path d="M335.678 338.187C333.45 344.229 334.96 347.991 335.496 349.13C339.815 358.305 357.415 359.944 363.458 352.913C365.01 351.108 365.6 348.962 365.83 347.233C366.082 345.212 366.335 343.19 366.588 341.167C365.091 342.215 358.701 346.439 349.905 345.338C341.948 344.342 337.06 339.621 335.678 338.187Z" fill="#F0F1EB"/>
<path d="M589.775 456.475C586.527 454.525 572.272 439.029 562.732 428.466L517.774 372.271C517.774 372.271 423.992 464.923 331.339 464.923C238.685 464.923 147.747 435.723 147.747 435.723L52.249 559.836C52.249 559.836 103.877 658.879 240.711 576.145C249.012 571.126 256.366 564.709 262.743 557.402C273.633 544.921 296.65 524.357 329.078 525.938C375.406 528.199 405.913 558.707 466.928 513.509C472.172 509.625 477.28 505.876 482.258 502.249C484.925 502.019 642.778 488.275 589.775 456.475Z" fill="#F0F1EB"/>
<path d="M482.25 502.249C477.279 505.869 472.168 509.628 466.933 513.512C405.911 558.704 375.4 528.193 329.074 525.94C296.652 524.355 273.629 544.924 262.739 557.399C256.369 564.715 249.005 571.132 240.71 576.15C103.876 658.874 52.2529 559.838 52.2529 559.838L66.9178 540.776C82.3602 562.029 137.23 618.421 250.699 549.802C258.995 544.784 266.358 538.368 272.728 531.067C283.618 518.592 306.641 498.023 339.063 499.608C385.389 501.861 415.9 532.372 476.922 487.18C482.157 483.296 487.268 479.537 492.239 475.917C493.948 475.761 558.885 470.107 591.835 457.772C638.456 488.656 484.891 502.016 482.25 502.249Z" fill="#F02DE3"/>
<path d="M182.078 583.038L181.272 580.691C176.075 565.572 161.297 554.39 145.334 553.496C132.311 552.786 116.31 558.002 107.68 569.296C106.791 571.292 105.651 573.178 104.255 574.894L100.2 579.873L102.951 574.071C103.896 572.077 105.038 570.217 106.344 568.493C110.72 558.494 108.448 545.609 100.201 538.263C90.3574 529.492 73.6542 530.082 64.4593 539.528L63.3457 538.444C73.0971 528.43 90.8028 527.804 101.235 537.102C108.948 543.975 111.729 555.418 109.091 565.295C118.42 555.683 133.187 551.263 145.42 551.946C161.186 552.827 175.841 563.375 181.878 577.911C182.382 575.922 182.824 573.939 183.252 572.006C184.904 564.57 186.464 557.546 191.262 551.191C198.531 541.559 208.862 535.808 218.898 535.803H218.907C226.504 535.803 233.689 539.568 238.042 545.092C237.208 535.196 241.209 525.424 249.609 517.64C260.221 507.811 277.012 505.415 289.99 511.735C290.902 497.028 300.481 485.543 314.677 482.297C329.11 478.991 345.096 486.088 352.482 498.872C359.505 487.04 376.965 481.875 390.33 483.057C403.205 484.193 414.942 492.923 419.993 504.755C421.942 492.181 432.874 482.981 443.092 478.37C455.021 472.987 469.623 474.802 479.923 482.818C481.085 469.17 488.633 458.872 499.439 456.382C511.176 453.68 524.334 459.123 530.926 469.164C533.421 458.463 544.407 446.613 554.319 444.409C564.908 442.057 578.465 450.595 584.476 460.052L583.166 460.887C577.555 452.057 564.462 443.744 554.656 445.925C544.825 448.112 533.438 460.981 532.091 471.423L531.785 473.784L530.639 471.699C524.821 461.118 511.565 455.179 499.789 457.895C487.022 460.839 481.888 474.017 481.37 484.408L481.294 485.985L480.092 484.96C470.201 476.518 455.588 474.438 443.732 479.787C433.008 484.623 421.472 494.66 421.243 508.328L421.161 513.246L419.724 508.542C415.781 495.633 403.636 485.79 390.193 484.606C376.875 483.434 359.36 488.719 353.17 500.837L352.482 502.181L351.789 500.842C345.065 487.877 329.26 480.554 315.023 483.812C300.936 487.032 291.919 498.215 291.489 512.996L291.452 514.25L290.346 513.66C277.793 506.955 261.105 509.109 250.666 518.782C241.752 527.04 238.014 537.623 240.029 548.101C241.217 550.286 241.985 552.655 242.218 555.114L242.673 559.912L240.734 555.499C239.729 553.217 238.999 550.905 238.536 548.587C234.885 542.073 227.158 537.357 218.909 537.357H218.898C209.347 537.362 199.479 542.882 192.502 552.125C187.907 558.213 186.383 565.076 184.769 572.344C184.169 575.046 183.548 577.843 182.754 580.65L182.078 583.038Z" fill="#4E8AF5"/>
<path d="M517.78 372.267C517.78 372.267 423.994 464.918 331.342 464.918C238.691 464.918 147.748 435.728 147.748 435.728L144.268 440.249L144.004 440.124C150.195 432.627 156.387 425.128 162.578 417.631C184.097 428.742 263.809 466.618 363.379 443.003C441.044 424.581 489.161 378.622 507.635 358.913C511.017 363.364 514.398 367.816 517.78 372.267Z" fill="#4E8AF5"/>
<path d="M526.765 606.454C530.5 607.388 645.997 674.36 645.997 674.36C645.997 674.36 674.664 782.997 514.355 660.182L526.765 606.454Z" fill="#D19074"/>
<path d="M530.109 607.867L531.36 615.294C533.914 630.471 528.885 645.936 517.893 656.706L514.346 660.18C514.346 660.18 468.75 633.724 464.804 633.724C460.874 633.724 413.01 627.525 413.01 627.525C413.01 627.525 357.27 608.945 351.087 606.693C344.888 604.44 330.814 589.805 330.814 589.805L328.592 575.886L328.561 575.731L326.945 571.195L322.937 559.963C320.778 556.747 320.685 551.729 320.902 548.482V548.467C320.964 547.488 321.058 546.664 321.12 546.121V546.106C321.197 545.608 321.244 545.329 321.244 545.329C317.873 536.319 322.362 533.506 322.362 533.506C321.834 532.621 321.492 531.611 321.306 530.524C321.135 529.591 321.089 528.597 321.12 527.603V527.587C321.259 522.492 323.497 517.179 323.497 517.179L380.914 557.71L417.515 557.151L404 542.517C362.909 547.581 365.721 522.803 366.28 521.125H420.902L461.433 559.403L471.562 575.171L530.109 607.867Z" fill="#D19074"/>
<path d="M387.206 577.113C360.89 569.128 337.587 552.629 321.306 530.523C321.168 529.765 321.11 528.968 321.11 528.162C321.11 527.975 321.113 527.789 321.12 527.602C337.261 550.455 360.89 567.512 387.657 575.622L387.206 577.113Z" fill="#E45513"/>
<path d="M374.607 590.753C353.324 582.069 334.371 567.124 320.902 548.482V548.467C320.964 547.488 321.058 546.664 321.12 546.121C334.48 565.214 353.619 580.516 375.198 589.324L374.607 590.753Z" fill="#E45513"/>
<path d="M357.814 596.362C346.287 592.586 336.064 585.393 328.592 575.886L328.561 575.731L326.945 571.195L327.054 571.117C334.464 582.271 345.556 590.722 358.295 594.87L357.814 596.362Z" fill="#E45513"/>
<path d="M556.632 622.936C555.518 622.301 554.426 621.682 553.351 621.071L553.483 620.649C554.219 620.878 554.955 621.116 555.687 621.359C556.004 621.887 556.319 622.414 556.632 622.936Z" fill="#182021"/>
<path d="M608.313 652.577C606.557 651.565 604.768 650.534 602.961 649.493C589.736 638.424 574.505 629.691 558.37 623.926C557.788 623.593 557.205 623.262 556.632 622.936C556.32 622.414 556.004 621.887 555.688 621.359C575.099 627.781 593.334 638.452 608.554 652.313L608.313 652.577Z" fill="#E45513"/>
<path d="M607.507 653.462C606.019 652.108 604.503 650.784 602.96 649.493C604.767 650.534 606.556 651.565 608.312 652.577L607.507 653.462ZM558.369 623.926C556.597 623.291 554.812 622.694 553.018 622.132L553.35 621.072C554.425 621.682 555.517 622.302 556.631 622.936C557.204 623.262 557.787 623.593 558.369 623.926Z" fill="#E45513"/>
<path d="M405.831 448.763C405.831 444.9 403.527 441.578 400.221 440.082C403.234 438.479 405.287 435.311 405.287 431.662C405.287 426.396 401.018 422.127 395.753 422.127C394.922 422.127 394.121 422.245 393.353 422.444C393.518 421.741 393.614 421.013 393.614 420.259C393.614 414.995 389.345 410.725 384.08 410.725C379.089 410.725 375 414.563 374.587 419.447C373.582 419.086 372.503 418.88 371.374 418.88C366.109 418.88 361.84 423.147 361.84 428.414C361.84 433.679 366.109 437.948 371.374 437.948C376.365 437.948 380.454 434.111 380.868 429.228C381.873 429.588 382.951 429.795 384.08 429.795C384.911 429.795 385.713 429.677 386.48 429.478C386.316 430.18 386.219 430.909 386.219 431.662C386.219 435.526 388.523 438.846 391.828 440.343C388.815 441.945 386.762 445.114 386.762 448.763C386.762 451.468 387.893 453.902 389.699 455.638C385.118 456.334 381.604 460.276 381.604 465.052C381.604 468.109 383.049 470.823 385.286 472.568C384.633 472.426 383.959 472.349 383.266 472.349C378 472.349 373.732 476.616 373.732 481.883C373.732 483.674 374.234 485.344 375.095 486.776C374.834 486.755 374.573 486.736 374.307 486.736C369.042 486.736 364.773 491.005 364.773 496.27C364.773 496.619 364.795 496.964 364.831 497.303C363.488 497.614 362.256 498.207 361.195 499.018C359.455 497.144 356.978 495.965 354.219 495.965C354.055 495.965 353.897 495.982 353.735 495.99C354.24 494.828 354.523 493.546 354.523 492.198C354.523 486.933 350.256 482.664 344.989 482.664C343.779 482.664 342.626 482.899 341.561 483.31C343.358 481.577 344.48 479.148 344.48 476.453C344.48 471.188 340.211 466.919 334.946 466.919C334.108 466.919 333.3 467.037 332.527 467.241C335.294 465.572 337.15 462.546 337.15 459.08C337.15 454.221 333.513 450.22 328.817 449.629C330.444 447.918 331.449 445.611 331.449 443.063C331.449 440.264 330.235 437.755 328.315 436.01C331.725 435.153 334.4 432.465 335.238 429.046C336.171 429.352 337.167 429.523 338.203 429.523C339.26 429.523 340.274 429.344 341.225 429.026C341.561 433.988 345.68 437.91 350.726 437.91C355.993 437.91 360.262 433.643 360.262 428.377C360.262 423.112 355.993 418.843 350.726 418.843C349.67 418.843 348.655 419.021 347.705 419.34C347.369 414.378 343.249 410.454 338.203 410.454C333.721 410.454 329.973 413.55 328.952 417.718C328.019 417.412 327.023 417.241 325.987 417.241C320.722 417.241 316.453 421.51 316.453 426.775C316.453 429.574 317.666 432.083 319.586 433.828C315.449 434.867 312.381 438.602 312.381 443.063C312.381 447.921 316.016 451.922 320.714 452.513C319.086 454.224 318.081 456.532 318.081 459.08C318.081 464.345 322.35 468.614 327.616 468.614C328.454 468.614 329.261 468.494 330.035 468.293C327.268 469.961 325.412 472.987 325.412 476.453C325.412 481.72 329.679 485.987 334.946 485.987C336.156 485.987 337.309 485.752 338.374 485.342C336.577 487.076 335.455 489.504 335.455 492.198C335.455 497.464 339.724 501.732 344.989 501.732C345.152 501.732 345.312 501.716 345.474 501.709C344.969 502.871 344.685 504.152 344.685 505.501C344.685 510.766 348.954 515.035 354.219 515.035C356.397 515.035 358.396 514.297 360.001 513.068C361.742 514.941 364.219 516.121 366.978 516.121C372.244 516.121 376.512 511.852 376.512 506.585C376.512 506.237 376.491 505.892 376.454 505.554C380.684 504.578 383.843 500.797 383.843 496.27C383.843 494.479 383.339 492.809 382.479 491.378C382.74 491.398 383.001 491.417 383.266 491.417C388.531 491.417 392.8 487.148 392.8 481.883C392.8 478.825 391.355 476.111 389.118 474.367C389.771 474.508 390.445 474.586 391.138 474.586C396.404 474.586 400.672 470.317 400.672 465.052C400.672 462.349 399.542 459.913 397.734 458.178C402.315 457.483 405.831 453.539 405.831 448.763Z" fill="#081D52"/>
<path d="M360.013 433.301C363.145 430.138 365.829 427.067 368.848 424.487C371.335 422.36 374.074 420.423 376.954 419.08C385.899 414.915 394.627 420.331 396.631 431.002C397.631 436.331 396.838 441.51 395.612 446.633C393.004 457.544 388.446 467.499 383.467 477.221C377.023 489.809 369.705 501.744 361.761 513.357C361.455 513.141 361.166 513.032 361.006 512.81C348.708 495.734 337.218 478.055 328.968 458.035C325.994 450.819 323.586 443.368 323.638 435.242C323.692 426.916 328.892 419.194 335.674 418.474C338.662 418.159 341.974 419.108 344.838 420.351C350.423 422.776 354.846 427.255 359.031 431.971C359.392 432.377 359.688 432.857 360.013 433.301Z" fill="#F24040"/>
<path d="M360.667 448.471C362.858 446.256 364.738 444.106 366.85 442.299C368.592 440.811 370.509 439.455 372.525 438.516C378.786 435.6 384.896 439.391 386.299 446.862C386.999 450.592 386.443 454.216 385.586 457.803C383.76 465.44 380.569 472.408 377.085 479.215C372.574 488.025 367.452 496.382 361.89 504.51C361.676 504.358 361.474 504.283 361.362 504.128C352.754 492.173 344.71 479.798 338.935 465.784C336.854 460.732 335.168 455.518 335.204 449.829C335.241 444 338.882 438.596 343.628 438.092C345.721 437.872 348.039 438.535 350.044 439.407C353.953 441.103 357.049 444.238 359.979 447.539C360.232 447.824 360.439 448.159 360.667 448.471Z" fill="#F02DE3"/>
<path d="M360.716 452.981C362.47 451.209 363.972 449.489 365.662 448.044C367.056 446.853 368.589 445.768 370.203 445.018C375.212 442.684 380.099 445.717 381.222 451.693C381.782 454.678 381.337 457.578 380.651 460.446C379.19 466.557 376.638 472.131 373.849 477.576C370.24 484.625 366.144 491.309 361.695 497.812C361.522 497.69 361.362 497.631 361.272 497.505C354.385 487.943 347.951 478.042 343.33 466.831C341.665 462.79 340.317 458.619 340.346 454.067C340.376 449.405 343.287 445.08 347.085 444.678C348.758 444.501 350.613 445.032 352.218 445.729C355.345 447.087 357.822 449.594 360.166 452.235C360.368 452.462 360.534 452.731 360.716 452.981Z" fill="#D424A0"/>
<path d="M296.198 463.622C291.229 463.267 286.307 462.847 281.431 462.37C281.431 462.369 281.431 462.369 281.431 462.366C286.307 462.842 291.229 463.262 296.197 463.618C296.198 463.619 296.198 463.621 296.198 463.622Z" fill="#F7C54B"/>
<path d="M411.696 445.263C411.696 445.261 411.696 445.261 411.696 445.26C416.264 443.18 420.744 440.995 425.142 438.727C425.142 438.729 425.142 438.727 425.142 438.73C420.746 440.999 416.265 443.183 411.696 445.263Z" fill="#F7F7F4"/>
<path d="M354.641 532.131C350.849 532.131 347.122 531.842 343.483 531.288L336.812 526.577C339.77 526.916 342.669 527.354 345.526 527.859C351.517 528.918 357.313 530.278 363.036 531.656C360.281 531.97 357.48 532.131 354.641 532.131Z" fill="#F7F7F4"/>
<path d="M363.035 531.656C357.312 530.278 351.516 528.918 345.526 527.859C351.518 528.918 357.312 530.276 363.038 531.654C363.037 531.656 363.038 531.656 363.035 531.656ZM405.64 511.477C398.949 510.961 392.468 509.793 386.018 508.379C393.584 503.577 399.972 497.094 404.659 489.45C408.935 492.063 412.661 495.586 415.476 499.728C412.611 503.983 409.31 507.921 405.64 511.477ZM300.7 508.462C298.373 505.932 296.223 503.242 294.264 500.403C296.424 495.575 299.77 491.533 304.081 488.55C307.138 493.74 310.969 498.417 315.418 502.423C310.126 503.975 305.212 506.061 300.7 508.462ZM293.298 498.965C286.346 488.361 282.071 475.841 281.431 462.37C286.307 462.847 291.229 463.267 296.198 463.622C296.887 472.143 299.396 480.149 303.337 487.25C299.037 490.239 295.611 494.241 293.298 498.965ZM416.394 498.331C413.497 494.233 409.737 490.739 405.451 488.121C410.427 479.504 413.276 469.502 413.276 458.838C413.276 454.165 412.729 449.621 411.696 445.263C416.265 443.183 420.745 440.999 425.142 438.73C426.961 445.118 427.935 451.865 427.935 458.838C427.935 473.38 423.698 486.934 416.394 498.331Z" fill="#F7F7F4"/>
<path d="M363.039 531.654C357.313 530.276 351.518 528.919 345.526 527.859C342.669 527.354 339.771 526.916 336.813 526.577L323.497 517.179C323.497 517.179 322.144 520.391 321.478 524.216C313.634 520.23 306.603 514.873 300.701 508.462C305.213 506.062 310.126 503.975 315.419 502.423C325.809 511.779 339.561 517.472 354.641 517.472C358.964 517.472 363.176 517.005 367.232 516.118C368.722 516.079 370.126 515.698 371.371 515.05C376.595 513.498 381.517 511.236 386.019 508.38C392.469 509.793 398.95 510.961 405.641 511.477C401.888 515.114 397.749 518.352 393.291 521.125H366.281C366.054 521.803 365.459 526.264 367.552 530.997C366.064 531.261 364.557 531.482 363.039 531.654Z" fill="#F736F0"/>
<path d="M294.265 500.404C293.939 499.928 293.616 499.448 293.299 498.965C295.612 494.241 299.038 490.239 303.338 487.25C303.58 487.687 303.83 488.122 304.082 488.55C299.771 491.533 296.424 495.575 294.265 500.404ZM415.477 499.728C412.662 495.586 408.936 492.063 404.659 489.45C404.93 489.012 405.194 488.568 405.452 488.122C409.738 490.739 413.497 494.233 416.395 498.331C416.093 498.802 415.789 499.265 415.477 499.728Z" fill="#9FC0FA"/>
<path d="M297.93 443.882C292.819 443.475 287.884 443.005 283.175 442.495C284.564 436.399 286.714 430.587 289.518 425.173C294.18 427.292 298.75 429.11 303.215 430.645C300.944 434.779 299.156 439.217 297.93 443.882ZM405.416 429.494C405.16 429.054 404.899 428.614 404.632 428.181C404.138 426.918 403.381 425.787 402.429 424.855C401.564 423.642 400.655 422.462 399.704 421.321C404.088 418.664 408.129 415.841 411.821 412.983C414.472 416.284 416.844 419.821 418.899 423.556C414.551 425.607 410.054 427.592 405.416 429.494ZM317.383 413.559C310.97 412.93 304.776 412.135 298.901 411.243C303.976 405.304 309.984 400.187 316.698 396.116C326.676 398.512 336.998 400.092 347.232 400.294L347.173 400.673C335.943 402.101 325.701 406.707 317.383 413.559ZM388.136 410.705C382.096 406.494 375.228 403.392 367.823 401.69L366.911 398.798C376.856 397.007 384.742 394.05 385.217 393.87C385.859 393.625 386.498 393.374 387.127 393.12C393.76 396.404 399.825 400.664 405.134 405.711C399.65 407.751 393.964 409.396 388.136 410.705Z" fill="#F7C54B"/>
<path d="M367.823 401.69C363.585 400.716 359.173 400.202 354.64 400.202C354.556 400.202 354.469 400.202 354.385 400.204C357.331 400.065 360.259 399.803 363.16 399.399C364.435 399.22 365.689 399.018 366.911 398.798L367.823 401.69ZM347.174 400.673L347.233 400.294C347.972 400.309 348.715 400.316 349.453 400.316C350.031 400.316 350.61 400.311 351.188 400.303C349.837 400.381 348.499 400.505 347.174 400.673Z" fill="#F7F7F4"/>
<path d="M349.454 400.315C348.716 400.315 347.973 400.309 347.234 400.294C336.999 400.092 326.677 398.512 316.699 396.116C327.766 389.407 340.754 385.543 354.641 385.543C366.308 385.543 377.338 388.269 387.128 393.12C386.499 393.374 385.86 393.624 385.219 393.87C384.743 394.05 376.858 397.006 366.912 398.798C365.689 399.018 364.436 399.22 363.16 399.399C360.26 399.803 357.331 400.065 354.386 400.204C353.314 400.207 352.247 400.241 351.189 400.303C350.611 400.311 350.031 400.315 349.454 400.315Z" fill="#F7F7F4"/>
<path d="M303.216 430.645C298.751 429.11 294.181 427.292 289.519 425.173C292.113 420.163 295.268 415.493 298.902 411.243C304.777 412.135 310.971 412.93 317.384 413.559C311.644 418.287 306.822 424.081 303.216 430.645ZM399.705 421.321C396.344 417.289 392.451 413.715 388.137 410.705C393.964 409.396 399.65 407.751 405.134 405.711C407.522 407.982 409.756 410.41 411.822 412.983C408.129 415.841 404.089 418.664 399.705 421.321Z" fill="#F7F7F4"/>
<path d="M296.579 450.607C291.57 450.576 286.67 450.416 281.857 450.14C282.163 447.545 282.605 444.999 283.175 442.495C287.884 443.005 292.819 443.475 297.93 443.882C297.352 446.077 296.9 448.321 296.579 450.607Z" fill="#F7F7F4"/>
<path d="M296.197 463.618C291.229 463.262 286.307 462.843 281.431 462.366C281.375 461.196 281.347 460.02 281.347 458.838C281.347 455.895 281.521 452.99 281.858 450.14C286.671 450.416 291.57 450.576 296.579 450.607C296.201 453.296 296.006 456.045 296.006 458.838C296.006 460.446 296.071 462.041 296.197 463.618ZM411.696 445.26C410.366 439.65 408.229 434.351 405.417 429.493C410.054 427.592 414.551 425.607 418.9 423.556C421.517 428.314 423.624 433.397 425.142 438.728C420.744 440.996 416.263 443.18 411.696 445.26Z" fill="#9FC0FA"/>
<path d="M343.483 531.287C335.674 530.094 328.271 527.669 321.478 524.216C322.144 520.391 323.497 517.178 323.497 517.178L336.812 526.577L343.483 531.287ZM367.552 530.997C365.459 526.263 366.054 521.803 366.281 521.124H393.29C385.554 525.934 376.856 529.344 367.552 530.997Z" fill="#F7C54B"/>
<path d="M367.231 516.117C368.63 515.811 370.011 515.454 371.37 515.05C370.126 515.698 368.721 516.078 367.231 516.117ZM404.632 428.18C403.935 427.045 403.2 425.937 402.429 424.854C403.382 425.786 404.138 426.917 404.632 428.18Z" fill="#27215A"/>
<path d="M305.628 464.215C302.471 464.044 299.328 463.846 296.198 463.623C296.198 463.621 296.198 463.62 296.196 463.618C299.316 463.84 302.449 464.038 305.595 464.207C305.603 464.208 305.62 464.213 305.628 464.215Z" fill="#FBDF4D"/>
<path d="M317.837 464.723C313.755 464.603 309.68 464.432 305.628 464.215C305.621 464.213 305.603 464.208 305.596 464.207C309.658 464.426 313.742 464.598 317.837 464.718C317.837 464.72 317.837 464.721 317.837 464.723Z" fill="#FBFBF9"/>
<path d="M315.418 502.423C310.969 498.416 307.138 493.74 304.081 488.55C307.239 486.366 310.915 484.75 315.022 483.812C317.298 483.291 319.614 483.04 321.928 483.04C322.572 483.04 323.219 483.06 323.862 483.099C327.13 488.615 331.544 493.371 336.775 497.041C337.356 498.022 338.104 498.89 338.985 499.605C337.822 499.549 336.672 499.521 335.533 499.521C328.326 499.521 321.612 500.607 315.418 502.423ZM303.337 487.25C299.395 480.149 296.886 472.143 296.198 463.622C299.329 463.846 302.471 464.043 305.628 464.214C309.68 464.432 313.755 464.603 317.837 464.722C318.435 470.747 320.223 476.42 322.962 481.506C322.61 481.495 322.258 481.489 321.906 481.489C319.484 481.489 317.059 481.752 314.676 482.297C310.452 483.263 306.636 484.958 303.337 487.25Z" fill="#FBFBF9"/>
<path d="M354.641 517.472C339.561 517.472 325.809 511.778 315.419 502.423C321.613 500.607 328.327 499.521 335.534 499.521C336.673 499.521 337.822 499.549 338.986 499.605C340.625 500.935 342.714 501.732 344.99 501.732C345.085 501.732 345.178 501.727 345.271 501.721C345.326 501.744 345.383 501.767 345.439 501.791C344.956 502.931 344.686 504.183 344.686 505.501C344.686 510.765 348.955 515.034 354.22 515.034C356.398 515.034 358.397 514.297 360.002 513.068C361.743 514.941 364.22 516.12 366.979 516.12C367.064 516.12 367.148 516.119 367.232 516.117C363.176 517.004 358.964 517.472 354.641 517.472Z" fill="#FB3DF7"/>
<path d="M304.082 488.551C303.83 488.122 303.58 487.687 303.338 487.25C306.638 484.959 310.453 483.264 314.677 482.298C317.06 481.752 319.485 481.49 321.907 481.49C322.26 481.49 322.611 481.496 322.963 481.507C323.252 482.044 323.554 482.576 323.863 483.099C323.22 483.06 322.574 483.04 321.929 483.04C319.616 483.04 317.299 483.292 315.023 483.812C310.916 484.751 307.24 486.366 304.082 488.551Z" fill="#CBDDFC"/>
<path d="M405.79 447.873C405.79 447.871 405.79 447.87 405.79 447.868C407.772 447.02 409.741 446.15 411.697 445.26C411.697 445.262 411.697 445.262 411.697 445.263C409.742 446.153 407.772 447.025 405.79 447.873Z" fill="#FBFBF9"/>
<path d="M386.018 508.379C382.845 507.683 379.681 506.928 376.502 506.161C376.493 505.957 376.476 505.754 376.454 505.554C379.35 504.886 381.744 502.902 382.965 500.265C389.299 497.029 394.761 492.336 398.912 486.627C400.91 487.387 402.833 488.336 404.658 489.45C399.971 497.095 393.583 503.577 386.018 508.379ZM405.45 488.122C403.659 487.028 401.778 486.088 399.827 485.319C404.658 478.154 407.478 469.521 407.478 460.231C407.478 456.004 406.894 451.914 405.803 448.035C405.798 447.98 405.794 447.927 405.789 447.873C407.771 447.025 409.741 446.153 411.696 445.263C412.729 449.621 413.276 454.165 413.276 458.838C413.276 469.503 410.426 479.504 405.45 488.122Z" fill="#FBFBF9"/>
<path d="M371.37 515.05C374.426 513.462 376.512 510.268 376.512 506.585C376.512 506.444 376.509 506.302 376.503 506.161C379.681 506.928 382.846 507.683 386.018 508.379C381.516 511.236 376.595 513.498 371.37 515.05Z" fill="#FB3DF7"/>
<path d="M404.66 489.45C402.834 488.336 400.911 487.387 398.913 486.627C399.225 486.197 399.531 485.76 399.828 485.319C401.779 486.088 403.661 487.028 405.452 488.122C405.194 488.568 404.93 489.012 404.66 489.45Z" fill="#CBDDFC"/>
<path d="M312.545 444.829C307.55 444.582 302.658 444.259 297.931 443.882C299.156 439.216 300.944 434.778 303.216 430.644C308.063 432.31 312.778 433.642 317.388 434.682C314.407 436.291 312.381 439.437 312.381 443.063C312.381 443.667 312.437 444.258 312.545 444.829ZM402.429 424.854C401.204 423.652 399.656 422.779 397.927 422.376C398.525 422.027 399.119 421.674 399.705 421.32C400.655 422.462 401.564 423.641 402.429 424.854ZM330.373 414.562C325.973 414.315 321.628 413.973 317.384 413.559C325.701 406.706 335.944 402.1 347.174 400.672L345.175 413.492C343.436 411.623 340.958 410.453 338.204 410.453C334.956 410.453 332.092 412.081 330.373 414.562ZM371.549 413.528L367.823 401.69C375.229 403.391 382.097 406.493 388.137 410.705C387.612 410.823 387.087 410.938 386.56 411.051C385.77 410.838 384.938 410.725 384.081 410.725C381.979 410.725 380.036 411.405 378.46 412.56C376.167 412.928 373.867 413.248 371.549 413.528Z" fill="#FBDF4D"/>
<path d="M346.319 414.999C345.988 414.458 345.603 413.953 345.174 413.492L347.173 400.672C348.498 400.505 349.836 400.38 351.187 400.303C352.253 400.286 353.322 400.252 354.385 400.203C354.468 400.202 354.555 400.202 354.639 400.202C359.173 400.202 363.585 400.716 367.822 401.69L371.548 413.528C363.19 414.533 354.714 414.977 346.319 414.999Z" fill="#FBFBF9"/>
<path d="M351.188 400.303C352.246 400.241 353.314 400.206 354.386 400.203C353.323 400.251 352.254 400.286 351.188 400.303Z" fill="#FBFBF9"/>
<path d="M317.389 434.682C312.778 433.643 308.063 432.31 303.216 430.645C306.822 424.081 311.644 418.287 317.384 413.559C321.628 413.974 325.973 414.316 330.373 414.563C329.72 415.506 329.234 416.57 328.953 417.718C328.019 417.412 327.023 417.241 325.987 417.241C320.722 417.241 316.453 421.51 316.453 426.775C316.453 429.574 317.667 432.083 319.587 433.828C318.813 434.022 318.075 434.311 317.389 434.682ZM393.354 422.444C393.519 421.742 393.615 421.013 393.615 420.26C393.615 415.852 390.623 412.142 386.56 411.052C387.087 410.938 387.612 410.823 388.137 410.705C392.451 413.715 396.344 417.289 399.705 421.321C399.119 421.675 398.526 422.027 397.927 422.377C397.23 422.214 396.501 422.127 395.754 422.127C394.923 422.127 394.121 422.245 393.354 422.444ZM347.494 417.884C347.261 416.85 346.859 415.877 346.32 414.999C354.715 414.978 363.191 414.533 371.549 413.528C373.867 413.249 376.167 412.928 378.46 412.56C376.929 413.682 375.743 415.253 375.097 417.078C371.115 415.921 366.904 415.301 362.548 415.301C357.267 415.301 352.2 416.213 347.494 417.884Z" fill="#FBFBF9"/>
<path d="M298.299 450.612C297.726 450.612 297.148 450.61 296.579 450.607C296.901 448.32 297.353 446.077 297.931 443.882C302.658 444.259 307.55 444.583 312.545 444.83C312.933 446.897 313.989 448.727 315.479 450.091C309.641 450.446 303.915 450.612 298.299 450.612Z" fill="#FBFBF9"/>
<path d="M405.072 429.635C404.965 429.135 404.818 428.648 404.633 428.181C404.9 428.614 405.161 429.054 405.417 429.493C405.299 429.542 405.19 429.587 405.072 429.635Z" fill="#FBDF4D"/>
<path d="M317.838 464.718C313.743 464.598 309.659 464.425 305.597 464.206C302.451 464.037 299.317 463.84 296.198 463.618C296.072 462.041 296.007 460.445 296.007 458.837C296.007 456.044 296.203 453.296 296.58 450.607C297.149 450.61 297.727 450.612 298.3 450.612C303.916 450.612 309.642 450.445 315.48 450.091C316.324 450.862 317.307 451.483 318.385 451.913C317.88 454.609 317.618 457.388 317.618 460.231C317.618 461.746 317.692 463.242 317.838 464.718ZM405.791 447.868C405.643 446.29 405.11 444.825 404.287 443.565C403.634 441.931 402.889 440.346 402.056 438.813C404.038 437.067 405.289 434.511 405.289 431.662C405.289 430.966 405.214 430.287 405.073 429.634C405.191 429.586 405.3 429.541 405.418 429.493C408.23 434.351 410.367 439.65 411.697 445.26C409.741 446.15 407.773 447.02 405.791 447.868Z" fill="#CBDDFC"/>
<path d="M366.978 516.121C364.219 516.121 361.742 514.941 360.001 513.068C358.396 514.297 356.397 515.035 354.219 515.035C348.954 515.035 344.685 510.766 344.685 505.501C344.685 504.183 344.955 502.931 345.438 501.791C348.525 503.063 351.786 504.002 355.174 504.561C357.089 507.331 359.038 510.079 361.004 512.81C361.164 513.032 361.453 513.141 361.759 513.357C363.673 510.561 365.55 507.744 367.388 504.904C372.946 504.309 378.202 502.7 382.965 500.265C381.744 502.902 379.35 504.886 376.454 505.554C376.476 505.754 376.493 505.958 376.502 506.161C376.508 506.302 376.512 506.444 376.512 506.585C376.512 510.269 374.425 513.463 371.369 515.05C370.01 515.454 368.629 515.811 367.231 516.117C367.147 516.119 367.063 516.121 366.978 516.121ZM344.989 501.732C342.713 501.732 340.624 500.935 338.985 499.605C338.104 498.891 337.355 498.022 336.774 497.042C339.412 498.892 342.258 500.466 345.27 501.721C345.177 501.727 345.084 501.732 344.989 501.732ZM318.384 451.914C317.305 451.484 316.322 450.862 315.479 450.092C313.989 448.728 312.932 446.898 312.544 444.83C312.437 444.258 312.381 443.668 312.381 443.063C312.381 439.438 314.407 436.292 317.388 434.682C318.074 434.311 318.812 434.022 319.586 433.828C317.666 432.083 316.453 429.574 316.453 426.775C316.453 421.51 320.722 417.241 325.987 417.241C327.023 417.241 328.019 417.412 328.952 417.718C329.233 416.57 329.72 415.506 330.372 414.563C332.092 412.082 334.955 410.454 338.203 410.454C340.958 410.454 343.436 411.623 345.174 413.492C345.603 413.954 345.988 414.459 346.319 414.999C346.858 415.877 347.26 416.849 347.493 417.884C346.013 418.411 344.571 419.012 343.167 419.683C341.126 418.939 338.944 418.414 336.867 418.414C336.465 418.414 336.066 418.434 335.673 418.474C328.89 419.194 323.69 426.916 323.636 435.241C323.631 436.052 323.65 436.856 323.692 437.654C321.163 441.996 319.341 446.804 318.384 451.914ZM405.803 448.035C405.374 446.511 404.866 445.019 404.285 443.565C405.109 444.825 405.641 446.29 405.789 447.868C405.789 447.87 405.789 447.872 405.789 447.873C405.794 447.928 405.798 447.98 405.803 448.035ZM402.054 438.813C400.521 435.993 398.696 433.354 396.617 430.94C395.056 422.751 389.528 417.674 382.991 417.674C381.64 417.674 380.245 417.892 378.832 418.342C377.613 417.869 376.365 417.446 375.096 417.078C375.743 415.252 376.928 413.682 378.46 412.56C380.035 411.406 381.978 410.725 384.08 410.725C384.938 410.725 385.769 410.839 386.56 411.052C390.622 412.142 393.614 415.852 393.614 420.259C393.614 421.013 393.518 421.741 393.353 422.444C394.121 422.245 394.922 422.127 395.753 422.127C396.501 422.127 397.229 422.214 397.927 422.377C399.656 422.779 401.203 423.652 402.429 424.855C403.199 425.937 403.934 427.045 404.632 428.181C404.817 428.648 404.964 429.135 405.071 429.635C405.213 430.287 405.287 430.966 405.287 431.662C405.287 434.511 404.037 437.067 402.054 438.813Z" fill="#4E255C"/>
<path d="M361.761 513.357C361.455 513.141 361.166 513.032 361.006 512.81C359.039 510.079 357.091 507.331 355.175 504.561C357.574 504.957 360.036 505.162 362.548 505.162C364.184 505.162 365.798 505.075 367.389 504.904C365.551 507.744 363.675 510.561 361.761 513.357ZM323.693 437.654C323.651 436.856 323.633 436.052 323.637 435.242C323.692 426.916 328.891 419.194 335.674 418.474C336.067 418.434 336.466 418.414 336.869 418.414C338.946 418.414 341.127 418.939 343.168 419.683C335.014 423.589 328.22 429.879 323.693 437.654ZM396.618 430.94C391.852 425.4 385.761 421.038 378.834 418.342C380.246 417.892 381.641 417.674 382.993 417.674C389.53 417.674 395.057 422.751 396.618 430.94Z" fill="#FB5E46"/>
<path d="M382.966 500.266C383.528 499.051 383.843 497.698 383.843 496.27C383.843 494.479 383.34 492.809 382.479 491.378C382.74 491.398 383.001 491.417 383.267 491.417C387.49 491.417 391.072 488.672 392.324 484.867C394.58 485.221 396.787 485.818 398.913 486.627C394.762 492.336 389.299 497.03 382.966 500.266ZM399.828 485.319C397.53 484.414 395.136 483.747 392.689 483.353C392.762 482.874 392.801 482.383 392.801 481.883C392.801 481.221 392.733 480.576 392.605 479.952C393.988 477.848 395.156 475.59 396.079 473.208C398.833 471.536 400.673 468.509 400.673 465.052C400.673 462.736 399.845 460.618 398.471 458.967C398.46 458.658 398.445 458.353 398.428 458.047C402.666 457.079 405.832 453.297 405.832 448.763C405.832 448.52 405.823 448.276 405.804 448.035C406.895 451.914 407.479 456.004 407.479 460.232C407.479 469.522 404.659 478.154 399.828 485.319Z" fill="#FDFDFC"/>
<path d="M398.912 486.627C396.786 485.818 394.579 485.221 392.323 484.867C392.485 484.377 392.608 483.873 392.688 483.352C395.135 483.747 397.529 484.413 399.827 485.319C399.53 485.76 399.224 486.197 398.912 486.627Z" fill="#E3EDFD"/>
<path d="M404.287 443.565C403.297 442.051 401.886 440.836 400.223 440.082C400.883 439.731 401.498 439.304 402.056 438.813C402.888 440.347 403.634 441.931 404.287 443.565Z" fill="#E3EDFD"/>
<path d="M367.388 504.904C369.647 501.415 371.845 497.89 373.976 494.322C381.682 491.74 388.22 486.619 392.604 479.951C392.732 480.576 392.8 481.221 392.8 481.882C392.8 482.383 392.761 482.874 392.688 483.352C392.607 483.873 392.485 484.377 392.323 484.867C391.071 488.671 387.489 491.416 383.266 491.416C383.001 491.416 382.74 491.398 382.479 491.378C383.339 492.808 383.843 494.478 383.843 496.27C383.843 497.697 383.527 499.05 382.965 500.265C378.202 502.7 372.946 504.309 367.388 504.904ZM396.078 473.208C397.636 469.183 398.492 464.806 398.492 460.231C398.492 459.809 398.484 459.386 398.47 458.967C399.844 460.618 400.672 462.735 400.672 465.052C400.672 468.508 398.832 471.536 396.078 473.208ZM398.427 458.047C398.177 453.902 397.226 449.945 395.691 446.296C396.87 441.283 397.608 436.214 396.63 431.002C396.625 430.982 396.622 430.96 396.617 430.94C398.696 433.354 400.521 435.993 402.054 438.813C401.497 439.304 400.881 439.731 400.221 440.082C401.885 440.836 403.296 442.05 404.285 443.565C404.866 445.019 405.374 446.511 405.803 448.035C405.822 448.275 405.831 448.519 405.831 448.763C405.831 453.296 402.665 457.079 398.427 458.047Z" fill="#9F2B66"/>
<path d="M345.438 501.791C345.382 501.767 345.325 501.744 345.271 501.721C345.337 501.716 345.406 501.712 345.474 501.708C345.462 501.735 345.449 501.763 345.438 501.791Z" fill="#FD4CFB"/>
<path d="M319.974 464.78C319.264 464.763 318.548 464.744 317.838 464.723C317.838 464.721 317.838 464.719 317.838 464.718C318.548 464.738 319.259 464.758 319.969 464.775C319.971 464.777 319.972 464.778 319.974 464.78Z" fill="#FDFDFC"/>
<path d="M336.775 497.042C331.545 493.371 327.131 488.616 323.862 483.099C325.537 483.199 327.201 483.427 328.841 483.778C330.496 485.158 332.624 485.987 334.947 485.987C335.167 485.987 335.386 485.979 335.604 485.964C336.141 486.202 336.673 486.45 337.198 486.714C336.101 488.265 335.456 490.155 335.456 492.198C335.456 493.966 335.938 495.622 336.775 497.042ZM327.112 481.889C325.739 481.679 324.352 481.55 322.963 481.507C320.224 476.421 318.436 470.747 317.838 464.723C318.548 464.744 319.264 464.763 319.974 464.78C321.706 467.1 324.47 468.603 327.586 468.614C327.696 469.077 327.816 469.539 327.945 469.995C326.374 471.692 325.413 473.958 325.413 476.453C325.413 478.474 326.04 480.348 327.112 481.889Z" fill="#FDFDFC"/>
<path d="M337.198 486.714C336.673 486.45 336.141 486.201 335.604 485.964C336.149 485.926 336.68 485.841 337.196 485.714C337.341 485.858 337.487 486.001 337.634 486.142C337.482 486.327 337.336 486.517 337.198 486.714ZM328.841 483.778C327.201 483.427 325.537 483.199 323.862 483.099C323.553 482.576 323.252 482.044 322.963 481.507C324.352 481.55 325.739 481.679 327.112 481.889C327.602 482.594 328.184 483.23 328.841 483.778Z" fill="#E3EDFD"/>
<path d="M319.969 464.776C319.259 464.759 318.548 464.738 317.838 464.718C317.692 463.242 317.617 461.746 317.617 460.232C317.617 457.389 317.88 454.609 318.385 451.914C319.121 452.208 319.902 452.411 320.715 452.514C319.087 454.224 318.082 456.533 318.082 459.08C318.082 461.215 318.784 463.186 319.969 464.776Z" fill="#E3EDFD"/>
<path d="M355.174 504.561C351.786 504.002 348.525 503.063 345.438 501.791C345.449 501.763 345.462 501.735 345.474 501.709C345.406 501.712 345.337 501.717 345.271 501.721C342.258 500.466 339.412 498.892 336.775 497.042C335.937 495.622 335.456 493.966 335.456 492.198C335.456 490.155 336.1 488.265 337.197 486.714C337.335 486.517 337.481 486.327 337.634 486.143C340.47 488.871 343.753 491.137 347.363 492.821C349.889 496.792 352.502 500.697 355.174 504.561ZM334.946 485.987C332.624 485.987 330.495 485.158 328.841 483.778C328.184 483.23 327.601 482.594 327.112 481.889C326.04 480.348 325.412 478.474 325.412 476.453C325.412 473.958 326.374 471.692 327.944 469.995C329.642 476.026 332.877 481.417 337.196 485.714C336.68 485.841 336.148 485.927 335.603 485.964C335.386 485.979 335.167 485.987 334.946 485.987ZM327.585 468.614C324.469 468.603 321.705 467.1 319.973 464.78C319.972 464.779 319.97 464.777 319.969 464.775C318.783 463.186 318.081 461.215 318.081 459.08C318.081 456.533 319.086 454.224 320.714 452.514C319.902 452.411 319.12 452.208 318.384 451.914C319.341 446.804 321.163 441.996 323.692 437.654C323.984 443.21 325.373 448.459 327.222 453.551C326.815 455.717 326.602 457.949 326.602 460.231C326.602 463.118 326.942 465.925 327.585 468.614Z" fill="#9F2B66"/>
<path d="M359.405 424.422C357.903 421.13 354.583 418.842 350.727 418.842C349.671 418.842 348.656 419.021 347.705 419.339C347.671 418.844 347.6 418.357 347.494 417.884C352.2 416.212 357.267 415.3 362.548 415.3C366.904 415.3 371.115 415.92 375.097 417.077C374.831 417.828 374.657 418.622 374.587 419.446C373.582 419.086 372.504 418.879 371.375 418.879C367.587 418.879 364.316 421.087 362.778 424.287C362.701 424.287 362.624 424.287 362.548 424.287C361.488 424.287 360.441 424.332 359.405 424.422Z" fill="#FDFDFC"/>
<path d="M352.821 425.619C350.391 423.47 347.775 421.626 344.837 420.351C344.295 420.116 343.737 419.891 343.167 419.683C344.571 419.012 346.013 418.411 347.494 417.884C347.599 418.358 347.671 418.844 347.705 419.34C348.656 419.021 349.67 418.842 350.726 418.842C354.582 418.842 357.902 421.131 359.404 424.423C357.144 424.618 354.943 425.024 352.821 425.619ZM368.508 424.778C366.641 424.468 364.728 424.3 362.777 424.288C364.315 421.087 367.587 418.88 371.374 418.88C372.504 418.88 373.582 419.086 374.587 419.447C374.657 418.622 374.831 417.828 375.096 417.078C376.366 417.446 377.613 417.868 378.833 418.342C378.208 418.543 377.582 418.788 376.953 419.08C374.073 420.422 371.334 422.36 368.847 424.486C368.733 424.583 368.62 424.681 368.508 424.778Z" fill="#9F2B66"/>
<path d="M362.548 505.162C360.036 505.162 357.574 504.957 355.175 504.561C352.503 500.698 349.89 496.792 347.364 492.821C349.864 493.988 352.522 494.877 355.295 495.445C357.269 498.373 359.3 501.263 361.363 504.128C361.475 504.283 361.677 504.358 361.891 504.51C363.85 501.647 365.755 498.754 367.597 495.824C369.794 495.517 371.927 495.009 373.978 494.322C371.846 497.89 369.648 501.415 367.389 504.904C365.798 505.075 364.184 505.162 362.548 505.162ZM327.223 453.551C325.374 448.459 323.985 443.21 323.693 437.654C328.22 429.879 335.014 423.589 343.168 419.683C343.738 419.891 344.296 420.117 344.838 420.351C347.776 421.627 350.392 423.471 352.822 425.619C339.791 429.273 329.754 440.089 327.223 453.551ZM395.693 446.297C390.99 435.127 380.805 426.831 368.509 424.779C368.621 424.681 368.734 424.583 368.848 424.487C371.335 422.36 374.074 420.423 376.954 419.081C377.583 418.788 378.209 418.543 378.834 418.343C385.761 421.038 391.852 425.4 396.618 430.94C396.623 430.96 396.626 430.982 396.631 431.002C397.61 436.214 396.872 441.283 395.693 446.297Z" fill="#FD824B"/>
<path d="M361.89 504.51C361.676 504.358 361.474 504.283 361.362 504.128C359.299 501.263 357.268 498.373 355.294 495.445C356.916 495.776 358.577 496 360.268 496.105C360.602 496.573 360.936 497.04 361.272 497.505C361.362 497.631 361.522 497.69 361.694 497.813C362.067 497.267 362.437 496.722 362.804 496.175C364.429 496.164 366.03 496.045 367.596 495.824C365.754 498.754 363.849 501.647 361.89 504.51Z" fill="#FD4CFB"/>
<path d="M361.695 497.812C361.522 497.69 361.362 497.631 361.272 497.505C360.937 497.04 360.603 496.573 360.269 496.105C361.022 496.153 361.782 496.177 362.548 496.177C362.633 496.177 362.718 496.177 362.804 496.175C362.437 496.722 362.068 497.267 361.695 497.812Z" fill="#F839E5"/>
<path d="M392.604 479.951C392.138 477.696 390.872 475.734 389.118 474.367C389.771 474.508 390.445 474.586 391.138 474.586C392.946 474.586 394.638 474.082 396.078 473.208C395.155 475.589 393.987 477.848 392.604 479.951ZM398.47 458.967C398.239 458.69 397.993 458.426 397.734 458.177C397.969 458.142 398.198 458.098 398.427 458.047C398.444 458.353 398.459 458.657 398.47 458.967Z" fill="#FEFEFD"/>
<path d="M373.978 494.322C377.311 488.74 380.482 483.049 383.466 477.22C388.445 467.499 393.003 457.544 395.612 446.633C395.64 446.521 395.666 446.41 395.693 446.296C397.227 449.945 398.178 453.902 398.428 458.047C398.2 458.098 397.97 458.142 397.735 458.177C397.995 458.426 398.24 458.69 398.472 458.967C398.486 459.386 398.494 459.809 398.494 460.231C398.494 464.806 397.638 469.183 396.079 473.208C394.639 474.082 392.948 474.586 391.139 474.586C390.446 474.586 389.772 474.508 389.12 474.367C390.874 475.734 392.14 477.696 392.606 479.952C388.222 486.619 381.683 491.74 373.978 494.322Z" fill="#CB3069"/>
<path d="M338.215 485.5C338.178 485.48 338.139 485.462 338.102 485.441C338.193 485.41 338.285 485.376 338.375 485.342C338.321 485.393 338.268 485.446 338.215 485.5Z" fill="#FEFEFD"/>
<path d="M337.633 486.142C337.486 486.001 337.34 485.858 337.195 485.714C337.503 485.637 337.806 485.547 338.101 485.442C338.138 485.462 338.177 485.481 338.214 485.501C338.011 485.706 337.817 485.92 337.633 486.142Z" fill="#F0F5FE"/>
<path d="M341.561 483.31C341.563 483.309 341.564 483.307 341.564 483.306L341.566 483.309C341.564 483.309 341.563 483.309 341.561 483.31ZM327.945 469.995C327.816 469.538 327.696 469.077 327.586 468.614C327.595 468.614 327.606 468.614 327.617 468.614C328.454 468.614 329.262 468.494 330.036 468.292C329.261 468.76 328.555 469.333 327.945 469.995ZM332.528 467.241C332.664 467.157 332.801 467.071 332.933 466.981C332.956 467.029 332.98 467.079 333.003 467.127C332.843 467.162 332.685 467.199 332.528 467.241Z" fill="#FEFEFD"/>
<path d="M347.364 492.821C343.753 491.137 340.471 488.87 337.634 486.142C337.817 485.92 338.012 485.706 338.215 485.501C338.268 485.446 338.321 485.393 338.375 485.342C338.285 485.376 338.193 485.411 338.102 485.442C337.806 485.547 337.504 485.637 337.196 485.713C332.877 481.416 329.643 476.026 327.945 469.995C328.555 469.333 329.261 468.76 330.036 468.292C329.262 468.494 328.454 468.614 327.617 468.614C327.606 468.614 327.595 468.614 327.586 468.614C326.943 465.925 326.603 463.118 326.603 460.231C326.603 457.949 326.815 455.717 327.222 453.551C327.769 455.058 328.356 456.551 328.967 458.034C330.218 461.068 331.543 464.048 332.933 466.981C332.801 467.071 332.664 467.157 332.528 467.241C332.685 467.199 332.843 467.161 333.003 467.127C335.641 472.678 338.513 478.056 341.564 483.306C341.564 483.307 341.563 483.309 341.561 483.31C341.563 483.309 341.564 483.309 341.566 483.309C343.436 486.524 345.374 489.692 347.364 492.821Z" fill="#CB3069"/>
<path d="M360.012 433.301C359.796 433.004 359.592 432.694 359.373 432.398C359.943 431.176 360.262 429.813 360.262 428.376C360.262 426.966 359.954 425.627 359.404 424.423C360.44 424.333 361.487 424.288 362.547 424.288C362.623 424.288 362.701 424.288 362.777 424.288C362.176 425.537 361.84 426.936 361.84 428.414C361.84 429.324 361.967 430.205 362.205 431.039C361.494 431.785 360.765 432.54 360.012 433.301Z" fill="#FEFEFD"/>
<path d="M359.374 432.399C359.265 432.251 359.152 432.107 359.031 431.971C357.047 429.736 355.01 427.553 352.821 425.619C354.943 425.024 357.145 424.619 359.405 424.423C359.955 425.627 360.263 426.966 360.263 428.377C360.263 429.814 359.944 431.176 359.374 432.399ZM362.206 431.039C361.968 430.205 361.841 429.324 361.841 428.414C361.841 426.937 362.177 425.537 362.778 424.288C364.729 424.3 366.641 424.468 368.509 424.779C366.346 426.668 364.344 428.805 362.206 431.039Z" fill="#CB3069"/>
<path d="M367.597 495.824C370.985 490.438 374.164 484.921 377.086 479.215C380.57 472.408 383.761 465.44 385.587 457.803C386.444 454.216 387 450.592 386.3 446.862C385.218 441.103 381.341 437.531 376.753 437.531C375.389 437.531 373.962 437.848 372.526 438.516C370.51 439.455 368.593 440.811 366.851 442.299C364.739 444.106 362.859 446.256 360.668 448.471C360.44 448.159 360.233 447.823 359.98 447.539C357.05 444.238 353.954 441.103 350.045 439.407C348.304 438.65 346.326 438.049 344.467 438.049C344.184 438.049 343.906 438.063 343.629 438.092C338.883 438.596 335.242 444 335.205 449.829C335.169 455.518 336.854 460.732 338.936 465.784C343.328 476.441 349.029 486.149 355.295 495.445C352.522 494.876 349.864 493.988 347.364 492.821C345.374 489.692 343.437 486.525 341.566 483.309L341.565 483.306C338.514 478.056 335.641 472.678 333.003 467.127C332.98 467.079 332.957 467.03 332.933 466.981C331.543 464.048 330.218 461.069 328.967 458.035C328.357 456.551 327.769 455.058 327.223 453.551C329.753 440.089 339.791 429.273 352.821 425.619C355.01 427.553 357.047 429.736 359.031 431.971C359.152 432.107 359.265 432.251 359.374 432.399C359.593 432.694 359.797 433.004 360.013 433.301C360.766 432.54 361.495 431.785 362.206 431.039C364.344 428.805 366.346 426.668 368.509 424.779C380.805 426.831 390.99 435.127 395.692 446.296C395.666 446.41 395.639 446.522 395.611 446.633C393.003 457.544 388.445 467.499 383.466 477.221C380.482 483.049 377.311 488.74 373.977 494.322C371.927 495.008 369.794 495.516 367.597 495.824Z" fill="#FE9E4D"/>
<path d="M362.803 496.175C366.826 490.188 370.543 484.034 373.849 477.576C376.637 472.131 379.19 466.557 380.65 460.446C381.337 457.578 381.781 454.678 381.222 451.693C380.357 447.087 377.254 444.23 373.585 444.23C372.493 444.23 371.351 444.482 370.203 445.018C368.589 445.768 367.055 446.852 365.662 448.044C363.972 449.489 362.469 451.209 360.716 452.981C360.534 452.731 360.368 452.462 360.166 452.235C357.821 449.594 355.345 447.087 352.218 445.729C350.824 445.123 349.243 444.643 347.756 444.643C347.529 444.643 347.306 444.654 347.085 444.678C343.287 445.08 340.375 449.405 340.346 454.067C340.316 458.619 341.665 462.79 343.33 466.831C347.725 477.496 353.762 486.975 360.268 496.105C358.576 496 356.916 495.776 355.294 495.445C349.028 486.149 343.327 476.441 338.935 465.784C336.854 460.732 335.168 455.518 335.204 449.829C335.241 444 338.882 438.596 343.628 438.092C343.905 438.063 344.183 438.049 344.466 438.049C346.325 438.049 348.303 438.65 350.044 439.406C353.953 441.103 357.049 444.238 359.979 447.539C360.232 447.823 360.439 448.159 360.667 448.471C362.858 446.256 364.738 444.106 366.85 442.299C368.592 440.811 370.509 439.455 372.525 438.516C373.961 437.848 375.388 437.531 376.752 437.531C381.34 437.531 385.218 441.103 386.299 446.862C386.999 450.592 386.443 454.216 385.586 457.803C383.76 465.44 380.569 472.408 377.085 479.215C374.163 484.921 370.984 490.438 367.596 495.824C366.03 496.045 364.428 496.164 362.803 496.175Z" fill="#FE58FD"/>
<path d="M362.547 496.176C361.782 496.176 361.022 496.153 360.268 496.105C353.762 486.975 347.725 477.495 343.33 466.83C341.665 462.79 340.317 458.618 340.346 454.067C340.376 449.405 343.287 445.08 347.085 444.677C347.306 444.654 347.53 444.643 347.756 444.643C349.243 444.643 350.825 445.123 352.218 445.729C355.345 447.087 357.822 449.594 360.166 452.235C360.368 452.462 360.534 452.731 360.716 452.981C362.47 451.208 363.972 449.488 365.662 448.044C367.056 446.852 368.589 445.768 370.203 445.017C371.351 444.482 372.493 444.23 373.585 444.23C377.255 444.23 380.357 447.087 381.222 451.693C381.782 454.677 381.337 457.578 380.651 460.445C379.19 466.557 376.638 472.131 373.849 477.576C370.543 484.034 366.826 490.187 362.804 496.175C362.718 496.176 362.633 496.176 362.547 496.176Z" fill="#FB40F1"/>
<path d="M250.436 144.666C250.436 144.666 238.128 201.16 266.848 209.681C266.848 209.681 271.898 212.207 273.792 211.259C275.686 210.313 277.264 190.429 277.264 190.429C277.264 190.429 284.207 137.091 250.436 144.666Z" fill="#4E8AF5"/>
<path d="M247.36 188.433C248.318 185.29 249.887 178.594 248.135 170.488C247.295 166.601 244.557 153.939 233.462 148.96C223.989 144.708 214.554 148.807 212.398 149.744C194.919 157.339 193.127 179.031 193.49 182.794C193.709 185.07 194.388 187.095 194.388 187.095C194.388 187.095 195.283 189.767 197.091 192.298C213.009 214.594 229.889 209.659 229.889 209.657C241.954 206.131 246.383 191.628 247.36 188.433Z" fill="#D424A0"/>
<path d="M247.78 176.187C247.78 185.44 241.577 192.94 233.926 192.94C226.275 192.94 220.073 185.44 220.073 176.187C220.073 166.934 226.275 159.434 233.926 159.434C241.577 159.434 247.78 166.934 247.78 176.187Z" fill="#F0F1EB"/>
<path d="M228.69 118.263C228.69 118.263 208.02 132.642 221.5 162.298C234.98 191.955 253.854 198.247 253.854 198.247C253.854 198.247 278.118 129.945 228.69 118.263Z" fill="#F02DE3"/>
<path d="M248.461 176.678C248.461 176.678 218.805 189.26 234.082 217.119C234.082 217.119 269.131 214.424 248.461 176.678Z" fill="#F02DE3"/>
<path d="M253.58 140.318L201.395 128.626L201.562 127.882L253.748 139.575L253.58 140.318Z" fill="#F0F1EB"/>
<path d="M197.839 127.827L188.018 125.627L188.185 124.883L198.005 127.085L197.839 127.827Z" fill="#F0F1EB"/>
<path d="M261.007 120.478L214.23 94.5561L214.599 93.8896L261.375 119.812L261.007 120.478Z" fill="#F0F1EB"/>
<path d="M211.041 92.7876L202.239 87.9095L202.607 87.2446L211.41 92.1227L211.041 92.7876Z" fill="#F0F1EB"/>
<path d="M273.722 103.532L236.143 65.4815L236.683 64.9455L274.263 102.997L273.722 103.532Z" fill="#F0F1EB"/>
<path d="M233.581 62.8872L226.508 55.7286L227.05 55.1926L234.122 62.3528L233.581 62.8872Z" fill="#F0F1EB"/>
<path d="M290.694 90.855L265.357 43.7587L266.027 43.3982L291.363 90.4946L290.694 90.855Z" fill="#F0F1EB"/>
<path d="M263.631 40.5479L258.863 31.6851L259.533 31.3247L264.302 40.1875L263.631 40.5479Z" fill="#F0F1EB"/>
<path d="M310.551 83.4746L299.509 31.1476L300.254 30.9906L311.297 83.3177L310.551 83.4746Z" fill="#F0F1EB"/>
<path d="M298.757 27.5806L296.679 17.7328L297.424 17.5759L299.503 27.4236L298.757 27.5806Z" fill="#F0F1EB"/>
<path d="M332.444 82.0466L331.685 81.9861L335.832 28.6694L336.592 28.7269L332.444 82.0466Z" fill="#F0F1EB"/>
<path d="M336.875 25.0933L336.115 25.0342L336.895 15.0001L337.655 15.0591L336.875 25.0933Z" fill="#F0F1EB"/>
<path d="M353.091 86.7834L352.38 86.5131L371.381 36.5226L372.092 36.7945L353.091 86.7834Z" fill="#F0F1EB"/>
<path d="M373.388 33.3862L372.675 33.1159L376.251 23.7078L376.964 23.9796L373.388 33.3862Z" fill="#F0F1EB"/>
<path d="M371.568 97.1467L370.961 96.6853L403.276 54.074L403.883 54.5354L371.568 97.1467Z" fill="#F0F1EB"/>
<path d="M406.087 51.6301L405.479 51.1703L411.56 43.1511L412.167 43.6109L406.087 51.6301Z" fill="#F0F1EB"/>
<path d="M386.377 112.295L385.925 111.683L428.935 79.9013L429.389 80.5134L386.377 112.295Z" fill="#F0F1EB"/>
<path d="M432.32 78.3477L431.866 77.734L439.96 71.7545L440.414 72.3666L432.32 78.3477Z" fill="#F0F1EB"/>
<path d="M396.318 131.003L396.057 130.288L446.28 111.912L446.541 112.626L396.318 131.003Z" fill="#F0F1EB"/>
<path d="M449.964 111.374L449.703 110.658L459.155 107.2L459.416 107.916L449.964 111.374Z" fill="#F0F1EB"/>
<path d="M318.091 236.334C318.091 253.951 310.028 274.426 297.522 285.177C297.118 285.534 296.699 285.876 296.279 286.202C291.495 289.977 286.104 292.338 280.294 292.618C279.952 292.633 279.595 292.649 279.253 292.649C278.321 292.649 277.404 292.602 276.472 292.509H276.456C265.815 291.422 256.059 283.809 250.528 275.98C241.922 263.816 243.227 250.642 243.77 245.997C244.92 235.93 248.586 232.947 261.496 210.111C275.586 185.177 275.602 181.122 280.294 180.05C292.831 177.192 318.091 205.435 318.091 236.334Z" fill="#4E8AF5"/>
<path d="M279.253 292.649C278.321 292.649 277.404 292.602 276.472 292.509H276.456C269.108 286.87 263.205 279.32 259.679 270.698C253.379 255.242 254.999 236.915 263.895 222.783C263.979 222.997 264.064 223.211 264.151 223.427C264.305 223.806 264.463 224.182 264.626 224.554C256.5 238.122 255.148 255.456 261.123 270.107C264.821 279.195 271.252 287.041 279.253 292.649Z" fill="#184BEB"/>
<path d="M296.279 286.202C292.504 283.437 289.086 280.159 286.181 276.446C277.918 265.876 274.065 252.126 275.308 238.818C275.791 239.203 276.28 239.572 276.774 239.918C275.83 252.531 279.577 265.473 287.408 275.483C290.298 279.18 293.715 282.442 297.521 285.177C297.118 285.534 296.698 285.876 296.279 286.202Z" fill="#184BEB"/>
<path d="M412.363 279.557C408.995 290.263 397.418 300.253 385.99 300.042C376.789 299.873 367.523 298.248 358.508 296.522C347.693 294.451 333.073 292.806 324.626 285.319C320.081 281.293 299.728 247.063 294.053 241.043C294.415 239.87 295.56 235.64 293.526 231.027C292.128 227.856 289.899 226.026 288.782 225.23C287.705 224.439 283.817 221.385 282.456 215.741C280.999 209.697 283.463 204.928 284.066 203.831C284.226 203.993 284.305 204.072 284.306 204.071C284.311 204.066 281.762 201.453 276.658 196.238C274.777 192.211 260.084 159.297 277.443 125.265C297.959 85.0402 343.641 81.6955 345.65 81.5837C377.402 78.1706 415.421 113.667 417.862 138.147C420.621 185.663 430.102 223.163 412.363 279.557Z" fill="#D19074"/>
<path d="M272.192 214.707C273.325 212.371 277.571 211.868 280.311 212.11C280.939 212.17 281.541 212.27 282.119 212.431C280.185 210.499 277.872 208.767 275.536 207.257C274.681 206.713 274.908 205.021 276.289 205.484C282.22 207.437 286.744 211.184 289.132 216.037C290.261 218.352 291.116 224.353 286.141 224.032C285.085 223.971 284.482 223.104 284.934 222.34C286.342 219.862 286.342 218.212 285.06 216.096C283.502 215.292 281.642 214.95 279.783 214.93C277.471 214.909 275.862 216.037 273.726 216.339C272.52 216.52 271.792 215.573 272.192 214.707ZM264.151 223.427C270.209 238.389 283.754 247.249 294.408 243.242C305.063 239.234 308.809 223.87 302.752 208.908C296.696 193.966 283.149 185.085 272.495 189.093C268.725 190.522 265.811 193.382 263.9 197.148C263.573 197.751 263.297 198.395 263.045 199.04C260.407 205.727 260.583 214.647 264.151 223.427Z" fill="#D19074"/>
<path d="M273.725 216.339C275.861 216.037 277.471 214.91 279.782 214.93C281.642 214.95 283.501 215.292 285.059 216.096C286.341 218.212 286.341 219.862 284.934 222.34C284.482 223.104 285.084 223.971 286.141 224.032C291.115 224.353 290.261 218.352 289.131 216.037C286.743 211.184 282.22 207.437 276.288 205.484C274.907 205.021 274.68 206.713 275.535 207.257C277.871 208.767 280.185 210.499 282.119 212.432C281.541 212.27 280.938 212.171 280.31 212.11C277.57 211.868 273.324 212.371 272.192 214.708C271.791 215.573 272.519 216.521 273.725 216.339Z" fill="#D19074"/>
<path d="M262.745 157.29C262.114 158.553 263.377 193.269 291.467 206.525L288.625 153.187L262.745 157.29Z" fill="#4E8AF5"/>
<path d="M286.518 224.044C286.395 224.044 286.271 224.04 286.142 224.032C286.271 224.04 286.396 224.044 286.518 224.044Z" fill="#4A5043"/>
<path d="M285.886 226.461C285.78 226.461 285.671 226.457 285.558 226.447C284.642 226.382 284.118 225.444 284.511 224.614C284.694 224.212 284.851 223.828 284.98 223.462C285.207 223.775 285.619 224.001 286.141 224.032C286.27 224.039 286.394 224.044 286.517 224.044C286.518 224.044 286.52 224.044 286.52 224.044C287.547 224.043 288.298 223.751 288.834 223.27C288.6 225.031 287.781 226.461 285.886 226.461Z" fill="#E45513"/>
<path d="M285.432 221.369C285.503 220.195 285.227 219.096 284.621 217.85C283.268 216.977 281.654 216.606 280.038 216.584C280.021 216.584 280.004 216.584 279.985 216.584C278.006 216.584 276.617 217.787 274.779 218.111C274.691 218.129 274.605 218.136 274.524 218.136C273.637 218.136 273.136 217.217 273.442 216.361C273.533 216.361 273.628 216.353 273.726 216.339C273.748 216.336 273.769 216.333 273.791 216.33C273.805 216.328 273.818 216.325 273.83 216.323C273.839 216.322 273.849 216.32 273.858 216.319C273.88 216.316 273.901 216.312 273.923 216.308C273.979 216.298 274.035 216.289 274.091 216.278C274.093 216.278 274.094 216.278 274.096 216.278C274.43 216.215 274.751 216.134 275.067 216.042C276.581 215.604 277.941 214.931 279.713 214.928C279.716 214.928 279.719 214.928 279.722 214.928C279.732 214.928 279.743 214.928 279.752 214.928C279.763 214.928 279.772 214.93 279.783 214.93C281.643 214.95 283.502 215.292 285.06 216.097C285.686 217.13 286.006 218.052 286.006 219.014C286.006 219.752 285.817 220.515 285.432 221.369Z" fill="#E45513"/>
<path d="M282.119 212.432C281.615 212.292 281.093 212.197 280.553 212.135C279.237 210.729 277.798 209.438 276.349 208.27C276.132 208.097 275.995 207.818 275.94 207.521C278.139 208.969 280.296 210.611 282.119 212.432Z" fill="#E45513"/>
<path d="M286.517 224.044C286.396 224.044 286.27 224.04 286.141 224.032C285.619 224.001 285.208 223.775 284.981 223.462C285.242 222.713 285.391 222.029 285.431 221.369C285.817 220.515 286.006 219.752 286.006 219.014C286.006 218.052 285.686 217.13 285.06 216.096C283.502 215.292 281.642 214.95 279.783 214.93C279.772 214.93 279.763 214.928 279.752 214.928C279.742 214.928 279.732 214.928 279.722 214.928C279.719 214.928 279.716 214.928 279.713 214.928C277.94 214.931 276.581 215.604 275.066 216.042C274.751 216.134 274.429 216.214 274.095 216.278C274.094 216.278 274.092 216.278 274.091 216.278C274.035 216.289 273.979 216.298 273.923 216.308C273.901 216.312 273.879 216.315 273.858 216.319C273.848 216.32 273.839 216.322 273.83 216.323C273.817 216.325 273.805 216.328 273.791 216.329C273.769 216.333 273.747 216.336 273.726 216.339C273.628 216.353 273.533 216.361 273.441 216.361C273.443 216.356 273.446 216.35 273.448 216.343C274.286 214.184 277.094 213.469 279.379 213.469C279.77 213.469 280.148 213.491 280.496 213.528C281.043 213.594 281.566 213.704 282.068 213.878C281.588 213.278 281.08 212.699 280.553 212.135C281.094 212.197 281.616 212.292 282.119 212.432C280.297 210.611 278.139 208.969 275.941 207.521C275.831 206.926 276.053 206.263 276.621 206.263C276.735 206.263 276.864 206.289 277.005 206.35C282.155 208.466 286.082 212.525 288.156 217.784C288.655 219.057 289.091 221.358 288.835 223.271C288.299 223.751 287.547 224.043 286.52 224.044C286.52 224.044 286.519 224.044 286.517 224.044Z" fill="#E45513"/>
<path d="M424.087 240.202C421.586 257.943 416.398 272.36 411.69 282.768C408.605 285.066 403.788 288.15 397.353 290.345C393.836 291.544 372.335 298.877 353.343 285.944C336.589 274.535 333.926 255.625 333.538 252.496C329.48 251.796 323.556 250.301 317.255 246.775C303.662 239.167 297.493 227.241 293.592 219.447C280.546 193.38 284.458 166.023 286.508 155.473C288.776 148.141 300.195 114.243 333.968 98.7543C339.141 96.3774 375.183 80.516 398.237 98.3193C410.743 107.982 414.44 123.626 417.858 138.151C419.272 144.101 420.064 149.725 420.468 154.914C420.499 155.287 420.514 155.644 420.545 156.001C420.685 157.679 420.763 159.31 420.794 160.879C420.81 161.175 420.81 161.454 420.81 161.734C420.949 167.886 420.577 173.168 420.095 177.316C423.761 190.893 427.894 213.217 424.087 240.202Z" fill="#F0F1EB"/>
<path d="M360.643 191.826C360.643 204.349 350.489 214.502 337.966 214.502C325.442 214.502 315.288 204.349 315.288 191.826C315.288 179.301 325.442 169.148 337.966 169.148C350.489 169.148 360.643 179.301 360.643 191.826Z" fill="#D424A0"/>
<path d="M363.453 193.72C363.453 205.669 353.767 215.357 341.817 215.357C329.867 215.357 320.18 205.669 320.18 193.72C320.18 181.77 329.867 172.082 341.817 172.082C353.767 172.082 363.453 181.77 363.453 193.72Z" fill="#081D52"/>
<path d="M339.123 212.492L339.499 214.951C339.82 217.05 341.079 218.897 343.042 220.154C345.186 221.526 347.858 221.945 350.187 221.271C353.673 220.263 355.29 216.718 355.306 216.682C357.254 212.335 354.594 208.271 354.479 208.1L352.332 204.888L355.554 207.021C355.739 207.145 360.17 210.017 364.33 207.948C365.85 207.192 367.043 205.936 367.875 204.212C369.368 201.124 369.514 195.598 365.909 193.26C363.373 191.616 360.212 192.461 359.302 192.759L358.741 191.313C362.974 189.41 365.287 184.627 364.121 180.188C362.896 175.533 358.329 172.525 353.521 173.199L352.626 173.325L352.635 172.422C352.674 168.728 350.627 165.41 347.653 164.352C345.851 163.709 343.707 163.917 341.77 164.925C339.496 166.109 337.787 168.256 337.083 170.816L336.628 172.469L335.685 171.037C334.933 169.893 333.594 168.38 331.489 167.669C327.983 166.483 323.487 167.944 322.241 170.676C321.497 172.309 321.809 174.535 321.924 175.18C322.044 175.854 322.241 176.519 322.511 177.154L323.655 179.845L321.326 178.076C321.292 178.049 317.843 175.47 314.327 176.993C312.359 177.846 310.718 180.03 310.67 181.863C310.649 182.671 311.29 183.704 312.345 184.558C313.535 185.522 314.952 186.019 315.871 185.801L316.282 187.299C312.166 188.57 309.271 193.075 309.827 197.345C310.383 201.616 314.335 205.231 318.638 205.405L319.734 205.449L319.33 206.468C317.391 211.346 319.901 217.485 324.703 219.606C329.502 221.725 335.733 219.447 338.034 214.728L339.123 212.492ZM347.922 223.138C345.941 223.138 343.928 222.562 342.205 221.462C340.443 220.334 339.152 218.796 338.456 217.019C335.298 221.338 329.025 223.21 324.076 221.027C318.857 218.722 315.988 212.298 317.555 206.861C312.94 206.176 308.892 202.192 308.287 197.546C307.754 193.462 309.926 189.191 313.372 186.966C312.621 186.657 311.926 186.218 311.366 185.766C309.901 184.579 309.081 183.14 309.117 181.823C309.18 179.362 311.157 176.673 313.711 175.567C316.33 174.434 318.845 175.088 320.465 175.811L320.394 175.45C320.223 174.482 319.922 172.017 320.827 170.032C322.401 166.581 327.722 164.754 331.986 166.197C333.81 166.814 335.143 167.916 336.078 168.989C337.072 166.643 338.829 164.705 341.054 163.547C343.369 162.342 345.961 162.098 348.175 162.887C351.523 164.08 353.902 167.58 354.164 171.574C359.477 171.262 364.273 174.656 365.621 179.794C366.667 183.768 365.318 187.976 362.401 190.712C363.777 190.724 365.321 191.027 366.755 191.956C370.877 194.63 371.271 200.751 369.274 204.888C368.287 206.929 366.856 208.427 365.023 209.339C361.957 210.864 358.82 210.167 356.817 209.381C357.527 211.285 358.105 214.235 356.724 217.316C356.648 217.488 354.79 221.557 350.617 222.764C349.749 223.014 348.839 223.138 347.922 223.138Z" fill="#D424A0"/>
<path d="M420.993 180.995C420.993 192.193 414.106 201.27 405.613 201.27C397.118 201.27 390.231 192.193 390.231 180.995C390.231 169.797 397.118 160.72 405.613 160.72C414.106 160.72 420.993 169.797 420.993 180.995Z" fill="#D424A0"/>
<path d="M419.009 183.333C419.009 193.519 412.744 201.776 405.016 201.776C397.289 201.776 391.025 193.519 391.025 183.333C391.025 173.147 397.289 164.888 405.016 164.888C412.744 164.888 419.009 173.147 419.009 183.333Z" fill="#081D52"/>
<path d="M406.529 198.463L406.903 201.686C407.158 203.888 408.309 205.809 409.979 206.824C411.21 207.57 412.557 207.725 413.771 207.262C416.024 206.404 417.108 203.283 417.119 203.251C418.447 199.344 416.635 195.663 416.558 195.508L414.769 191.952L417.762 194.576C417.882 194.68 420.689 197.097 423.302 195.381C424.3 194.728 425.086 193.625 425.642 192.104C426.791 188.966 426.543 184.163 424.346 182.285C422.816 180.977 420.956 181.567 420.228 181.882L419.523 180.503C422.355 178.823 423.893 174.551 423.1 170.566C422.286 166.492 419.322 163.852 416.229 164.419L415.305 164.588L415.313 163.649C415.337 160.347 413.987 157.399 412.03 156.479C411.11 156.046 410.027 156.095 408.988 156.614C407.198 157.508 405.808 159.589 405.266 162.185L404.811 164.369L403.812 162.373C403.31 161.374 402.429 160.054 401.071 159.448C400.02 158.982 398.768 158.993 397.629 159.485C396.478 159.985 395.594 160.921 395.202 162.052C394.69 163.532 394.906 165.547 394.983 166.13C395.066 166.732 395.201 167.332 395.386 167.913L396.358 170.963L394.095 168.696C394.073 168.676 391.901 166.544 389.757 167.772C388.462 168.51 387.38 170.445 387.349 172.086C387.329 173.04 388.053 174.286 389.067 175.045C389.624 175.46 390.18 175.65 390.515 175.544L391.042 177.004C388.312 178.113 386.4 182.125 386.779 185.943C387.15 189.715 389.728 192.906 392.524 193.054L393.512 193.106L393.226 194.054C391.929 198.357 393.63 203.953 396.796 205.795C398.061 206.532 399.56 206.653 401.026 206.125C402.953 205.435 404.589 203.708 405.403 201.506L406.529 198.463ZM412.348 209.08C411.273 209.08 410.191 208.767 409.175 208.151C407.682 207.246 406.526 205.778 405.878 204.031C404.809 205.705 403.301 206.959 401.55 207.588C399.647 208.27 397.685 208.112 396.013 207.138C392.443 205.061 390.464 199.32 391.516 194.477C388.319 193.757 385.643 190.277 385.232 186.095C384.867 182.41 386.318 178.662 388.69 176.652C388.507 176.547 388.322 176.426 388.138 176.29C386.947 175.398 385.762 173.743 385.796 172.055C385.838 169.856 387.211 167.435 388.987 166.422C390.675 165.458 392.289 165.819 393.451 166.386L393.445 166.336C393.327 165.48 393.127 163.299 393.733 161.544C394.267 160.001 395.462 158.732 397.012 158.061C398.545 157.394 400.256 157.386 401.704 158.03C402.785 158.513 403.618 159.305 404.244 160.128C405.075 157.884 406.521 156.111 408.292 155.225C409.77 154.488 411.329 154.435 412.69 155.073C415.031 156.173 416.644 159.213 416.844 162.791C420.511 162.656 423.714 165.707 424.623 170.262C425.331 173.821 424.452 177.49 422.48 179.937C423.403 179.996 424.418 180.302 425.358 181.104C428.165 183.506 428.449 188.962 427.102 192.639C426.428 194.48 425.437 195.841 424.155 196.681C422.168 197.981 420.158 197.599 418.73 196.972C419.176 198.662 419.479 201.138 418.59 203.751C418.457 204.144 417.203 207.618 414.323 208.715C413.681 208.958 413.016 209.08 412.348 209.08Z" fill="#D424A0"/>
<path d="M302.198 189.2C306.33 196.859 304.466 205.776 302.648 211.431C300.8 216.496 298.796 221.98 297.056 226.64C295.688 224.372 294.523 221.964 293.591 219.447C288.449 205.73 286.709 189.527 286.228 176.866C291.416 179.165 298.5 182.334 302.198 189.2Z" fill="#E6C7BA"/>
<path d="M393.405 117.288C396.792 126.718 394.166 130.773 393.359 131.829C387.828 139.177 369.761 135.651 359.849 127.153C354.101 122.213 351.538 115.968 351.118 114.943C349.316 110.422 348.944 106.398 348.897 103.819C348.151 107.75 346.846 113.358 344.454 119.836C341.316 128.303 333.439 149.586 315.543 160.74C304.451 167.653 292.893 168.57 286.073 169.595C286.042 161.113 286.508 155.474 286.508 155.474C288.776 148.141 300.194 114.243 333.968 98.7549C339.141 96.378 375.182 80.5166 398.237 98.3199C410.742 107.983 414.44 123.627 417.857 138.152C418.153 139.41 418.432 140.669 418.665 141.896C407.449 134.61 393.405 117.288 393.405 117.288Z" fill="#E6C7BA"/>
<path d="M295.119 85.4302C295.119 85.4302 236.228 110.72 251.041 189.48C251.041 189.48 255.321 190.726 259.258 188.619C264.451 188.287 271.134 188.262 276.318 189.628C282.292 190.132 286.043 196.292 287.887 201.997C291.447 213.014 291.611 225.104 288.35 236.214C292.991 226.247 297.726 215.871 297.699 204.875C297.673 193.808 292.835 183.443 287.755 173.542C309.612 160.232 338.507 136.962 347.143 103.494C349.214 108.404 352.859 114.95 359.326 120.701C362.538 123.558 376.867 136.295 391.392 131.375C397.472 129.317 401.369 124.916 403.505 121.919C404.53 124.764 413.289 148.593 421.296 147.504C422.618 147.325 424.398 146.399 426.239 143.011C419.619 108.86 395.263 81.666 363.693 73.3687C328.644 64.1579 299.977 82.2517 295.119 85.4302Z" fill="#4E8AF5"/>
<path d="M388.401 215.794C387.718 216.943 387.154 218.04 386.467 219.002C385.902 219.794 385.254 220.54 384.533 221.107C382.293 222.87 379.545 221.632 378.355 218.407C377.761 216.797 377.674 215.14 377.712 213.479C377.791 209.94 378.468 206.598 379.276 203.308C380.323 199.047 381.65 194.944 383.171 190.911L383.413 191.041C387.845 195.732 392.088 200.653 395.569 206.471C396.823 208.568 397.935 210.768 398.401 213.305C398.88 215.905 397.892 218.584 396.048 219.159C395.237 219.412 394.258 219.287 393.388 219.048C391.692 218.581 390.197 217.412 388.752 216.159L388.401 215.794Z" fill="#081D52"/>
<path d="M285.646 113.69C285.646 117.745 282.359 121.034 278.304 121.034C274.248 121.034 270.961 117.745 270.961 113.69C270.961 109.636 274.248 106.348 278.304 106.348C282.359 106.348 285.646 109.636 285.646 113.69Z" fill="#FEF7EA"/>
<path d="M308.923 119.822C308.999 118.371 308.101 117.006 306.933 116.143C305.763 115.281 304.347 114.835 302.955 114.421C299.194 113.301 295.395 112.311 291.569 111.441C294.35 110.517 297.129 109.592 299.91 108.67C301.912 108.003 303.961 107.312 305.605 105.99C307.249 104.666 308.428 102.555 308.053 100.478C307.679 98.4008 306.184 96.8193 304.235 97.6256C305.948 96.5459 306.582 94.0556 305.596 92.2877C304.609 90.5198 302.705 89.7834 300.885 90.6736C301.748 89.5038 301.195 87.6815 299.977 86.8908C298.757 86.0985 297.126 86.1932 295.794 86.7743C294.465 87.3568 293.369 88.3604 292.313 89.3578C289.464 92.0547 286.708 94.851 284.041 97.7281C284.631 94.8588 285.22 91.9894 285.81 89.1201C286.236 87.0524 286.661 84.9318 286.337 82.847C286.014 80.7622 284.774 78.6867 282.788 77.9721C280.803 77.2574 278.686 77.7608 278.411 79.8518C278.33 77.8291 276.492 76.0348 274.466 76.0037C272.442 75.9742 270.853 77.2574 270.713 79.277C270.132 77.9456 268.277 77.5138 266.983 78.1725C265.689 78.8327 264.954 80.2915 264.793 81.7362C264.631 83.1794 264.953 84.6304 265.29 86.0426C266.198 89.8596 267.242 93.6439 268.401 97.3926C266.211 95.446 264.02 93.501 261.83 91.556C260.253 90.1547 258.63 88.7239 256.661 87.9627C254.693 87.2015 252.276 87.2357 250.665 88.5981C249.054 89.9605 248.431 92.0453 250.104 93.3301C248.311 92.3871 245.84 93.0831 244.8 94.8215C243.763 96.5599 244.078 98.5779 245.757 99.7088C244.314 99.5457 243.012 100.936 242.936 102.387C242.86 103.838 243.758 105.204 244.926 106.066C246.096 106.926 247.513 107.374 248.905 107.789C252.666 108.909 256.464 109.898 260.29 110.768C257.51 111.693 254.73 112.615 251.95 113.54C249.947 114.206 247.898 114.896 246.254 116.22C244.611 117.543 243.432 119.654 243.806 121.731C244.181 123.809 245.673 125.39 247.623 124.584C245.911 125.663 245.277 128.154 246.264 129.922C247.25 131.689 249.155 132.426 250.974 131.536C250.112 132.706 250.665 134.528 251.883 135.319C253.102 136.111 254.732 136.016 256.063 135.435C257.395 134.852 258.49 133.849 259.545 132.85C262.395 130.155 265.151 127.36 267.817 124.481C267.228 127.351 266.638 130.22 266.048 133.089C265.624 135.157 265.196 137.277 265.521 139.362C265.846 141.447 267.084 143.523 269.069 144.237C271.056 144.952 273.174 144.45 273.449 142.357C273.528 144.38 275.367 146.174 277.392 146.206C279.416 146.235 281.007 144.952 281.145 142.932C281.727 144.264 283.582 144.696 284.876 144.037C286.17 143.377 286.904 141.918 287.067 140.473C287.228 139.03 286.907 137.58 286.57 136.167C285.659 132.35 284.617 128.564 283.456 124.815C285.647 126.762 287.837 128.707 290.029 130.653C291.606 132.055 293.23 133.485 295.198 134.247C297.166 135.008 299.584 134.974 301.195 133.611C302.806 132.249 303.428 130.164 301.755 128.879C303.547 129.822 306.02 129.126 307.059 127.388C308.097 125.649 307.781 123.631 306.102 122.5C307.545 122.662 308.847 121.273 308.923 119.822Z" fill="#6E2808"/>
<path d="M277.058 136.95C277.041 136.95 277.024 136.95 277.007 136.95C275.515 136.926 274.162 135.606 274.103 134.116C273.957 135.224 273.112 135.726 272.104 135.726C271.709 135.726 271.29 135.648 270.88 135.5C269.418 134.975 268.506 133.447 268.266 131.91C268.027 130.375 268.341 128.814 268.655 127.293C269.088 125.179 269.523 123.066 269.957 120.953C267.993 123.074 265.964 125.132 263.865 127.116C263.089 127.851 262.282 128.59 261.302 129.019C260.816 129.232 260.275 129.356 259.745 129.356C259.205 129.356 258.677 129.227 258.225 128.934C257.327 128.351 256.92 127.009 257.555 126.148C257.168 126.338 256.777 126.426 256.396 126.426C255.461 126.426 254.603 125.886 254.086 124.96C253.361 123.658 253.827 121.825 255.088 121.029C254.827 121.136 254.577 121.186 254.341 121.186C253.28 121.186 252.503 120.18 252.278 118.929C252.003 117.4 252.87 115.845 254.08 114.871C255.29 113.897 256.798 113.388 258.273 112.898C260.32 112.218 262.368 111.537 264.415 110.857C261.597 110.217 258.801 109.488 256.031 108.663C255.006 108.357 253.963 108.029 253.103 107.394C252.242 106.759 251.58 105.754 251.636 104.686C251.689 103.675 252.551 102.704 253.545 102.704C253.601 102.704 253.657 102.707 253.715 102.713C252.478 101.881 252.245 100.395 253.009 99.1154C253.541 98.2252 254.583 97.7064 255.613 97.7064C256.064 97.7064 256.513 97.8058 256.915 98.0171C255.681 97.071 256.141 95.5361 257.328 94.5325C258.016 93.95 258.905 93.6983 259.814 93.6983C260.469 93.6983 261.136 93.8303 261.743 94.0649C263.191 94.6257 264.387 95.679 265.549 96.7105C267.162 98.1429 268.775 99.5753 270.387 101.009C269.534 98.2486 268.765 95.4615 268.096 92.6512C267.847 91.6104 267.611 90.5431 267.729 89.4805C267.849 88.4179 268.389 87.3429 269.342 86.8566C269.638 86.7059 269.974 86.6329 270.309 86.6329C271.054 86.6329 271.795 86.9949 272.09 87.6707C272.191 86.1995 273.336 85.2596 274.802 85.2596C274.819 85.2596 274.836 85.2596 274.853 85.2596C276.345 85.2829 277.698 86.6034 277.757 88.0932C277.901 86.9871 278.748 86.4838 279.755 86.4838C280.149 86.4838 280.569 86.5615 280.98 86.709C282.442 87.2357 283.354 88.7628 283.593 90.2992C283.833 91.8341 283.517 93.3953 283.205 94.9178C282.772 97.0306 282.337 99.1434 281.902 101.256C283.865 99.1371 285.894 97.0787 287.993 95.0934C288.179 94.9178 288.366 94.7422 288.555 94.5714C288.515 95.2984 288.659 96.0301 289.015 96.6702C289.717 97.927 290.884 98.6618 292.153 98.6618C292.669 98.6618 293.202 98.5406 293.727 98.2843C292.865 99.4541 293.418 101.276 294.636 102.067C295.249 102.466 295.969 102.64 296.7 102.64C297.421 102.64 298.156 102.471 298.816 102.182C298.92 102.137 299.023 102.089 299.124 102.039C299.343 102.395 299.5 102.821 299.582 103.28C299.857 104.809 298.99 106.364 297.78 107.338C296.57 108.312 295.06 108.822 293.586 109.311C291.54 109.992 289.492 110.672 287.446 111.352C290.263 111.992 293.059 112.721 295.829 113.546C296.853 113.852 297.897 114.18 298.757 114.815C299.618 115.449 300.28 116.454 300.224 117.523C300.169 118.534 299.309 119.505 298.315 119.505C298.259 119.505 298.203 119.502 298.145 119.496C299.382 120.329 299.615 121.814 298.851 123.094C298.319 123.984 297.277 124.503 296.247 124.503C295.796 124.503 295.347 124.404 294.945 124.192C296.178 125.138 295.719 126.673 294.532 127.675C293.844 128.258 292.955 128.511 292.048 128.511C291.391 128.511 290.724 128.379 290.117 128.144C288.669 127.584 287.473 126.53 286.311 125.499C284.698 124.066 283.085 122.633 281.471 121.2C282.326 123.961 283.095 126.748 283.764 129.558C284.011 130.599 284.249 131.666 284.129 132.729C284.01 133.793 283.471 134.866 282.517 135.353C282.222 135.503 281.886 135.576 281.551 135.576C280.806 135.576 280.065 135.216 279.77 134.539C279.669 136.01 278.524 136.95 277.058 136.95Z" fill="#E45513"/>
<path d="M281.104 111.935C281.104 115.657 278.085 118.676 274.361 118.676C270.638 118.676 267.619 115.657 267.619 111.935C267.619 108.211 270.638 105.193 274.361 105.193C278.085 105.193 281.104 108.211 281.104 111.935Z" fill="#FEF7EA"/>
<path d="M350.107 87.3983C350.183 85.9489 349.285 84.5834 348.117 83.7212C346.947 82.859 345.53 82.4131 344.138 81.9967C340.377 80.8767 336.579 79.8886 332.753 79.0187C335.532 78.0943 338.313 77.17 341.093 76.2457C343.096 75.5808 345.145 74.8894 346.789 73.5658C348.432 72.2422 349.61 70.1325 349.237 68.0555C348.862 65.9784 347.368 64.3954 345.418 65.2033C347.13 64.122 347.766 61.6333 346.779 59.8654C345.793 58.0959 343.887 57.3611 342.067 58.2497C342.93 57.0815 342.378 55.2592 341.159 54.4669C339.941 53.6762 338.309 53.7709 336.978 54.3519C335.647 54.9345 334.553 55.9381 333.497 56.9355C330.646 59.6308 327.892 62.4271 325.224 65.3058C325.815 62.4364 326.403 59.5671 326.994 56.6978C327.418 54.63 327.845 52.5095 327.52 50.4246C327.197 48.3398 325.957 46.2628 323.972 45.5497C321.987 44.8351 319.869 45.3369 319.594 47.4295C319.513 45.4053 317.676 43.611 315.65 43.5814C313.626 43.5519 312.036 44.8335 311.897 46.8547C311.316 45.5233 309.461 45.0899 308.167 45.7501C306.871 46.4088 306.138 47.8692 305.976 49.3124C305.815 50.7572 306.136 52.2065 306.473 53.6202C307.382 57.4372 308.426 61.2216 309.585 64.9702C307.394 63.0237 305.204 61.0787 303.014 59.1321C301.437 57.7308 299.813 56.3016 297.845 55.5388C295.877 54.7776 293.459 54.8133 291.848 56.1758C290.237 57.5382 289.613 59.623 291.288 60.9078C289.495 59.9648 287.022 60.6608 285.984 62.3976C284.946 64.136 285.262 66.1555 286.941 67.285C285.498 67.1234 284.196 68.5138 284.12 69.9648C284.044 71.4142 284.94 72.7798 286.11 73.642C287.28 74.5042 288.696 74.9516 290.088 75.3663C293.849 76.4864 297.648 77.4745 301.474 78.346C298.693 79.2688 295.914 80.1931 293.133 81.1175C291.131 81.7824 289.08 82.4737 287.436 83.7973C285.793 85.1209 284.615 87.2321 284.99 89.3091C285.364 91.3846 286.857 92.9677 288.807 92.1599C287.095 93.2411 286.459 95.7298 287.446 97.4993C288.432 99.2672 290.338 100.002 292.158 99.1134C291.295 100.283 291.848 102.105 293.066 102.896C294.284 103.687 295.916 103.594 297.247 103.011C298.578 102.43 299.674 101.427 300.728 100.428C303.579 97.7323 306.335 94.936 309.001 92.0589C308.412 94.9282 307.822 97.7976 307.231 100.667C306.807 102.735 306.38 104.854 306.705 106.94C307.029 109.025 308.268 111.1 310.253 111.815C312.238 112.53 314.356 112.026 314.632 109.935C314.712 111.958 316.551 113.752 318.575 113.782C320.599 113.813 322.189 112.53 322.328 110.51C322.909 111.841 324.764 112.273 326.06 111.615C327.354 110.954 328.087 109.496 328.249 108.051C328.412 106.608 328.089 105.157 327.753 103.744C326.843 99.9259 325.799 96.1415 324.64 92.3929C326.831 94.3379 329.021 96.2844 331.213 98.231C332.79 99.6322 334.413 101.061 336.382 101.823C338.348 102.585 340.766 102.55 342.378 101.187C343.989 99.8264 344.612 97.7401 342.939 96.4553C344.73 97.3983 347.203 96.7039 348.243 94.9655C349.28 93.2271 348.965 91.2091 347.284 90.0781C348.729 90.2397 350.031 88.8493 350.107 87.3983Z" fill="#6E2808"/>
<path d="M318.241 104.528C318.224 104.528 318.207 104.528 318.19 104.526C316.699 104.505 315.346 103.184 315.287 101.694C315.141 102.8 314.294 103.304 313.287 103.304C312.893 103.304 312.473 103.226 312.063 103.078C310.601 102.552 309.688 101.023 309.45 99.4882C309.211 97.9534 309.525 96.3921 309.837 94.8696C310.272 92.7569 310.707 90.6441 311.14 88.5313C309.177 90.6503 307.148 92.7087 305.049 94.6941C304.272 95.4289 303.466 96.1684 302.486 96.5972C301.999 96.8084 301.459 96.9327 300.928 96.9327C300.388 96.9327 299.86 96.8053 299.408 96.5117C298.51 95.9291 298.103 94.5869 298.739 93.7262C298.352 93.9158 297.959 94.0043 297.58 94.0043C296.644 94.0043 295.785 93.4637 295.27 92.5378C294.544 91.236 295.01 89.4028 296.272 88.6059C296.011 88.7146 295.761 88.7643 295.524 88.7643C294.463 88.7643 293.687 87.7576 293.461 86.5071C293.185 84.9768 294.053 83.4233 295.263 82.4493C296.474 81.4752 297.982 80.9657 299.456 80.4763C301.504 79.7959 303.551 79.1154 305.599 78.435C302.781 77.7934 299.983 77.0664 297.215 76.2415C296.189 75.9354 295.147 75.606 294.286 74.9722C293.424 74.3368 292.764 73.3317 292.82 72.2629C292.873 71.2531 293.735 70.2822 294.727 70.2822C294.783 70.2822 294.841 70.2853 294.898 70.2915C293.662 69.4588 293.429 67.9721 294.193 66.6936C294.724 65.8034 295.767 65.2845 296.797 65.2845C297.247 65.2845 297.696 65.3839 298.099 65.5952C296.865 64.6491 297.325 63.1143 298.51 62.1107C299.2 61.5281 300.089 61.2749 300.996 61.2749C301.653 61.2749 302.318 61.4069 302.927 61.6431C304.375 62.2039 305.571 63.2556 306.731 64.2887C308.346 65.721 309.958 67.1534 311.571 68.5857C310.716 65.8267 309.949 63.0397 309.279 60.2294C309.031 59.1885 308.794 58.1213 308.913 57.0586C309.032 55.9945 309.573 54.921 310.525 54.4347C310.822 54.284 311.157 54.211 311.491 54.211C312.236 54.211 312.977 54.5714 313.273 55.2488C313.374 53.7776 314.519 52.8377 315.986 52.8377C316.003 52.8377 316.02 52.8377 316.037 52.8377C317.527 52.8595 318.881 54.1815 318.939 55.6713C319.085 54.5637 319.932 54.0619 320.938 54.0619C321.333 54.0619 321.752 54.138 322.164 54.2872C323.626 54.8122 324.538 56.3409 324.777 57.8758C325.015 59.4122 324.701 60.9735 324.389 62.4944C323.954 64.6087 323.52 66.7215 323.085 68.8327C325.049 66.7137 327.078 64.6553 329.177 62.6715C329.953 61.9351 330.76 61.1972 331.74 60.7684C332.226 60.5556 332.767 60.4313 333.298 60.4313C333.837 60.4313 334.367 60.5603 334.819 60.8539C335.715 61.4364 336.122 62.7771 335.487 63.6378C335.875 63.4498 336.267 63.3597 336.647 63.3597C337.581 63.3597 338.44 63.9019 338.956 64.8278C339.683 66.1296 339.215 67.9627 337.954 68.7581C338.217 68.6494 338.467 68.5997 338.703 68.5997C339.764 68.5997 340.541 69.6079 340.766 70.8585C341.041 72.3872 340.174 73.9407 338.964 74.9163C337.754 75.8904 336.244 76.3983 334.769 76.8893C332.722 77.5697 330.676 78.2501 328.628 78.9306C331.446 79.5706 334.243 80.2992 337.011 81.1241C338.036 81.4286 339.08 81.758 339.941 82.3918C340.802 83.0272 341.462 84.0323 341.406 85.1012C341.353 86.1125 340.492 87.0834 339.498 87.0834C339.442 87.0834 339.386 87.0803 339.329 87.0726C340.565 87.9052 340.798 89.3919 340.034 90.672C339.503 91.5622 338.46 92.0811 337.43 92.0811C336.98 92.0811 336.531 91.9801 336.129 91.7688C337.362 92.7149 336.902 94.2513 335.715 95.2534C335.027 95.8359 334.139 96.0892 333.23 96.0892C332.574 96.0892 331.908 95.9571 331.3 95.721C329.851 95.1601 328.656 94.1084 327.494 93.0769C325.882 91.643 324.269 90.2107 322.655 88.7783C323.509 91.5374 324.277 94.3244 324.948 97.1362C325.195 98.1771 325.433 99.2443 325.313 100.307C325.193 101.37 324.654 102.445 323.7 102.931C323.405 103.082 323.07 103.155 322.734 103.155C321.99 103.155 321.249 102.793 320.954 102.117C320.851 103.588 319.708 104.528 318.241 104.528Z" fill="#E45513"/>
<path d="M323.856 78.6821C323.856 82.4059 320.837 85.4243 317.113 85.4243C313.39 85.4243 310.371 82.4059 310.371 78.6821C310.371 74.9583 313.39 71.9398 317.113 71.9398C320.837 71.9398 323.856 74.9583 323.856 78.6821Z" fill="#FEF7EA"/>
<path d="M412.114 86.4342C412.19 84.9832 411.292 83.6192 410.122 82.757C408.954 81.8948 407.537 81.449 406.145 81.0326C402.384 79.9125 398.586 78.9245 394.759 78.053C397.539 77.1302 400.319 76.2058 403.099 75.2815C405.101 74.6166 407.152 73.9253 408.795 72.6017C410.439 71.2781 411.617 69.1684 411.242 67.0914C410.869 65.0143 409.375 63.4313 407.425 64.2391C409.139 63.1579 409.773 60.6692 408.786 58.9013C407.8 57.1318 405.893 56.397 404.074 57.2856C404.936 56.1174 404.385 54.2935 403.165 53.5028C401.947 52.712 400.316 52.8068 398.985 53.3878C397.654 53.9688 396.558 54.974 395.504 55.9713C392.653 58.6682 389.897 61.463 387.231 64.3417C387.821 61.4723 388.41 58.603 389 55.7321C389.425 53.6659 389.852 51.5454 389.527 49.4605C389.204 47.3757 387.964 45.2986 385.979 44.584C383.994 43.871 381.876 44.3728 381.6 46.4654C381.52 44.4412 379.683 42.6469 377.657 42.6173C375.632 42.5878 374.043 43.8694 373.903 45.8906C373.322 44.5592 371.468 44.1258 370.173 44.786C368.878 45.4447 368.145 46.905 367.983 48.3482C367.821 49.793 368.143 51.2424 368.479 52.6561C369.389 56.4731 370.433 60.2575 371.592 64.0061C369.401 62.0596 367.211 60.1146 365.02 58.168C363.444 56.7667 361.82 55.3375 359.852 54.5747C357.884 53.8135 355.466 53.8492 353.855 55.2117C352.244 56.5741 351.62 58.6589 353.295 59.9437C351.502 59.0007 349.029 59.6951 347.991 61.435C346.951 63.1719 347.268 65.1914 348.948 66.3208C347.505 66.1593 346.203 67.5497 346.127 68.9991C346.05 70.4501 346.947 71.8156 348.117 72.6778C349.286 73.54 350.703 73.9859 352.095 74.4007C355.855 75.5223 359.655 76.5103 363.481 77.3819C360.7 78.3046 357.921 79.229 355.14 80.1533C353.138 80.8183 351.087 81.5096 349.445 82.8332C347.8 84.1568 346.622 86.268 346.997 88.3435C347.371 90.4205 348.864 92.0036 350.814 91.1957C349.102 92.277 348.466 94.7657 349.453 96.5352C350.439 98.3031 352.345 99.0379 354.164 98.1493C353.302 99.3191 353.855 101.141 355.073 101.932C356.291 102.723 357.922 102.63 359.254 102.047C360.585 101.466 361.68 100.462 362.735 99.4636C365.586 96.7682 368.342 93.9719 371.008 91.0932C370.417 93.9641 369.829 96.8335 369.238 99.7028C368.814 101.769 368.387 103.89 368.712 105.976C369.036 108.061 370.274 110.136 372.26 110.851C374.245 111.565 376.363 111.062 376.639 108.971C376.718 110.994 378.556 112.788 380.582 112.818C382.606 112.849 384.195 111.565 384.335 109.546C384.916 110.877 386.771 111.309 388.065 110.65C389.361 109.99 390.094 108.53 390.256 107.087C390.417 105.643 390.096 104.192 389.76 102.78C388.85 98.9617 387.806 95.1774 386.647 91.4288C388.837 93.3738 391.028 95.3203 393.218 97.2669C394.797 98.6681 396.42 100.097 398.388 100.859C400.355 101.621 402.772 101.586 404.385 100.223C405.996 98.8608 406.619 96.776 404.946 95.4912C406.737 96.4342 409.21 95.7397 410.249 93.9998C411.287 92.2614 410.972 90.2434 409.291 89.114C410.736 89.2756 412.038 87.8852 412.114 86.4342Z" fill="#6E2808"/>
<path d="M380.248 103.563C380.231 103.563 380.214 103.561 380.197 103.561C378.706 103.54 377.353 102.219 377.294 100.729C377.147 101.835 376.301 102.339 375.294 102.339C374.9 102.339 374.48 102.261 374.07 102.114C372.608 101.587 371.695 100.058 371.457 98.5234C371.218 96.9885 371.532 95.4272 371.844 93.9048C372.279 91.792 372.714 89.6792 373.147 87.5664C371.184 89.6854 369.155 91.7438 367.056 93.7292C366.279 94.464 365.473 95.2035 364.493 95.6307C364.006 95.8436 363.466 95.9679 362.934 95.9679C362.395 95.9679 361.867 95.8405 361.415 95.5469C360.517 94.9643 360.11 93.622 360.745 92.7614C360.359 92.9509 359.966 93.0395 359.587 93.0395C358.651 93.0395 357.792 92.4989 357.276 91.573C356.551 90.2696 357.017 88.4364 358.278 87.641C358.017 87.7498 357.767 87.7995 357.531 87.7995C356.47 87.7995 355.693 86.7928 355.467 85.5422C355.192 84.012 356.06 82.4585 357.27 81.4844C358.48 80.5088 359.989 80.0008 361.463 79.5115C363.511 78.831 365.558 78.1506 367.604 77.4701C364.788 76.8285 361.99 76.1015 359.221 75.2751C358.196 74.9706 357.154 74.6412 356.293 74.0074C355.431 73.372 354.771 72.3669 354.827 71.298C354.879 70.2883 355.742 69.3173 356.734 69.3173C356.792 69.3173 356.848 69.3204 356.905 69.3266C355.667 68.4939 355.436 67.0072 356.2 65.7271C356.731 64.8385 357.774 64.3197 358.804 64.3197C359.254 64.3197 359.703 64.4191 360.105 64.6304C358.872 63.6843 359.332 62.1494 360.517 61.1458C361.207 60.5632 362.095 60.31 363.003 60.31C363.66 60.31 364.325 60.4421 364.934 60.6782C366.382 61.2375 367.578 62.2907 368.738 63.3238C370.351 64.7562 371.965 66.1885 373.577 67.6209C372.723 64.8603 371.956 62.0748 371.286 59.2645C371.037 58.2237 370.801 57.1564 370.919 56.0938C371.039 55.0296 371.58 53.9546 372.532 53.4699C372.829 53.3192 373.164 53.2446 373.498 53.2446C374.242 53.2446 374.983 53.6066 375.279 54.2824C375.381 52.8128 376.526 51.8729 377.993 51.8729C378.01 51.8729 378.027 51.8729 378.044 51.8729C379.534 51.8946 380.888 53.2167 380.946 54.7065C381.092 53.5988 381.938 53.0971 382.945 53.0971C383.34 53.0971 383.759 53.1732 384.171 53.3223C385.633 53.8474 386.545 55.376 386.784 56.9109C387.022 58.4473 386.708 60.0086 386.396 61.5295C385.961 63.6423 385.527 65.7551 385.092 67.8679C387.056 65.7489 389.085 63.6905 391.183 61.7066C391.96 60.9703 392.767 60.2323 393.747 59.8036C394.233 59.5907 394.774 59.4665 395.305 59.4665C395.844 59.4665 396.374 59.5954 396.826 59.8875C397.722 60.4716 398.129 61.8123 397.494 62.6729C397.881 62.4849 398.274 62.3948 398.653 62.3948C399.588 62.3948 400.447 62.9354 400.963 63.8613C401.69 65.1647 401.222 66.9979 399.961 67.7933C400.223 67.6846 400.474 67.6348 400.71 67.6348C401.771 67.6348 402.547 68.6415 402.773 69.8937C403.048 71.4223 402.181 72.9758 400.971 73.9515C399.76 74.9255 398.25 75.4335 396.776 75.9244C394.73 76.6049 392.683 77.2853 390.635 77.9657C393.453 78.6058 396.249 79.3344 399.018 80.1593C400.043 80.4638 401.087 80.7931 401.948 81.427C402.808 82.0623 403.469 83.0675 403.413 84.1363C403.36 85.1476 402.499 86.117 401.505 86.117C401.449 86.117 401.393 86.1139 401.336 86.1077C402.572 86.9404 402.805 88.4271 402.041 89.7072C401.508 90.5974 400.466 91.1147 399.437 91.1147C398.985 91.1147 398.538 91.0153 398.135 90.804C399.367 91.7501 398.909 93.2849 397.722 94.2885C397.034 94.8711 396.145 95.1243 395.237 95.1243C394.581 95.1243 393.915 94.9923 393.307 94.7561C391.858 94.1953 390.663 93.1436 389.501 92.112C387.888 90.6781 386.276 89.2458 384.662 87.8119C385.516 90.5725 386.284 93.3595 386.955 96.1714C387.202 97.2107 387.439 98.2795 387.32 99.3421C387.2 100.405 386.66 101.48 385.707 101.966C385.411 102.117 385.075 102.19 384.741 102.19C383.997 102.19 383.256 101.828 382.961 101.152C382.86 102.623 381.715 103.563 380.248 103.563Z" fill="#E45513"/>
<path d="M385.863 77.7172C385.863 81.441 382.845 84.4595 379.121 84.4595C375.397 84.4595 372.379 81.441 372.379 77.7172C372.379 73.9935 375.397 70.975 379.121 70.975C382.845 70.975 385.863 73.9935 385.863 77.7172Z" fill="#FEF7EA"/>
<path d="M320.106 189.376L320.097 189.398C320.17 189.455 325.433 185.935 329.555 181.868C330.106 181.324 331.041 180.372 332.581 179.283C333.931 178.329 335.167 177.678 335.974 177.29C336.817 176.934 337.989 176.504 339.443 176.149C342.688 175.362 345.329 175.444 345.868 175.474C350.14 175.699 353.326 177.145 354.973 178.035C354.973 178.035 340.222 153.462 320.106 189.376Z" fill="#131428"/>
<path d="M323.056 185.472C318.922 183.157 315.526 179.994 313.279 176.365C315.937 179.878 321.518 181.773 326.494 180.855C324.861 182.78 324.688 183.547 323.056 185.472Z" fill="#131428"/>
<path d="M327.611 178.481C324.392 175.363 322.165 171.586 321.198 167.606C322.6 171.562 327.352 174.585 332.452 174.768C330.241 176.273 329.822 176.976 327.611 178.481Z" fill="#131428"/>
<path d="M335.026 173.123C333.424 169.28 333.044 165.108 333.929 161.117C333.46 165.213 336.533 169.415 341.208 171.071C338.47 171.831 337.763 172.365 335.026 173.123Z" fill="#131428"/>
<path d="M423.781 177.186L423.795 177.203C423.757 177.278 418.614 175.303 414.164 172.516C413.569 172.142 412.55 171.481 411.028 170.849C409.69 170.293 408.539 169.998 407.8 169.836C407.041 169.718 406.008 169.613 404.787 169.654C402.059 169.746 400.069 170.507 399.669 170.672C396.481 171.991 394.514 174.183 393.543 175.452C393.543 175.452 396.916 148.367 423.781 177.186Z" fill="#131428"/>
<path d="M420.279 174.25C422.69 170.99 424.265 167.117 424.815 163.098C423.914 167.111 420.265 170.349 416.175 170.765C418.037 172.166 418.415 172.85 420.279 174.25Z" fill="#131428"/>
<path d="M414.563 168.804C416.018 165.02 416.504 160.867 415.965 156.848C416.166 160.956 413.511 165.048 409.677 166.539C411.847 167.392 412.392 167.951 414.563 168.804Z" fill="#131428"/>
<path d="M407.187 165.646C407.176 161.592 406.129 157.543 404.173 153.99C405.845 157.748 404.847 162.524 401.813 165.3C404.145 165.311 404.855 165.634 407.187 165.646Z" fill="#131428"/>
<path d="M338.119 159.833C332.343 160.718 324.26 163.917 314.774 174.492C314.84 173.173 315.056 171.271 315.759 169.106C317.237 164.563 319.913 161.775 322.001 159.649C323.918 157.697 328.63 153.008 336.471 150.492L341.932 149.003C344.432 148.67 349.532 147.903 349.932 147.503C350.432 147.003 360.432 149.003 361.432 149.003C362.232 149.003 368.098 149.336 370.932 149.503L375.932 150.492L380.932 149.503L387.432 147.503L393.932 147.007H401.432H406.138C414.212 148.61 419.429 152.735 421.559 154.457C421.624 154.511 421.691 154.565 421.76 154.62L421.76 154.62C421.884 154.719 422.011 154.821 422.136 154.93C422.126 155.113 422.113 155.292 422.1 155.47C422.086 155.653 422.073 155.835 422.063 156.017C421.973 157.698 421.826 159.325 421.642 160.883C421.618 161.177 421.579 161.453 421.54 161.729L421.54 161.731C415.029 157.788 409.669 156.623 405.565 156.479H404.932C403.265 155.962 399.732 154.93 398.932 154.93H387.932C387.432 154.93 379.932 156.479 379.432 157.003C379.032 157.422 376.265 157.511 374.932 157.503C371.098 157.008 363.232 156.017 362.432 156.017H348.932L338.119 159.833Z" fill="#4E8AF5"/>
<path d="M285.591 171.894C285.591 171.894 278.554 180.92 271.035 178.916L270.522 187.958C270.522 187.958 269.264 188.532 267.306 189.185C266.949 189.294 266.576 189.402 266.188 189.527C264.836 189.931 263.252 190.319 261.589 190.599C261.217 190.661 260.828 190.723 260.424 190.769C258.591 190.987 256.68 191.033 254.894 190.754C254.49 190.692 254.086 190.614 253.697 190.505C252.765 190.288 251.864 189.946 251.041 189.48L248.944 172.888L242.419 171.894C242.419 171.894 238.193 154.464 247.546 142.983C255.344 133.383 269.885 133.01 278.88 141.492C284.923 147.178 289.77 156.639 285.591 171.894Z" fill="#FEF7EA"/>
<path d="M272.261 165.788C272.261 167.952 271.259 169.706 270.022 169.706C268.786 169.706 267.782 167.952 267.782 165.788C267.782 163.624 268.786 161.87 270.022 161.87C271.259 161.87 272.261 163.624 272.261 165.788Z" fill="#081D52"/>
<path d="M248.976 163.549C248.976 165.713 247.974 167.467 246.738 167.467C245.501 167.467 244.499 165.713 244.499 163.549C244.499 161.385 245.501 159.631 246.738 159.631C247.974 159.631 248.976 161.385 248.976 163.549Z" fill="#081D52"/>
<path d="M254.894 190.754C254.49 190.692 254.086 190.614 253.698 190.506L252.082 176.26L253.247 176.12L254.894 190.754Z" fill="#081D52"/>
<path d="M261.589 190.599C261.216 190.661 260.828 190.723 260.424 190.77C259.368 186.14 258.762 181.402 258.575 176.664L259.74 176.617C259.911 181.309 260.533 186.016 261.589 190.599Z" fill="#081D52"/>
<path d="M267.306 189.185C266.949 189.294 266.576 189.403 266.187 189.527L264.308 177.41L265.457 177.223L267.306 189.185Z" fill="#081D52"/>
<path d="M352.888 254.662C359.444 246.556 367.38 239.568 376.253 234.091C378.07 232.968 380.279 231.875 382.255 232.689C383.647 233.263 384.541 234.689 384.87 236.157C385.199 237.627 385.05 239.155 384.901 240.653C389.035 238.964 392.884 236.354 396.099 233.253C397.405 231.993 399.192 230.516 400.801 231.355C402.212 232.09 402.293 234.06 402.064 235.635C401.37 240.429 399.605 245.066 396.936 249.109C397.014 252.003 397.237 255.219 396.608 258.043C395.979 260.869 394.626 263.621 392.366 265.43C390.105 267.238 386.849 267.937 384.222 266.722C374.04 262.012 362.263 260.824 352.888 254.662Z" fill="#F02DE3"/>
<path d="M379.315 254.232C363.985 254.232 349.151 248.013 348.264 247.634L348.838 246.289C349.146 246.419 379.729 259.237 398.032 248.284L398.784 249.539C392.974 253.016 386.095 254.232 379.315 254.232Z" fill="#081D52"/>
</g>
<defs>
<filter id="filter0_d_312_22153" x="0" y="0" width="683.987" height="826.5" filterUnits="userSpaceOnUse" color-interpolation-filters="sRGB">
<feFlood flood-opacity="0" result="BackgroundImageFix"/>
<feColorMatrix in="SourceAlpha" type="matrix" values="0 0 0 0 0 0 0 0 0 0 0 0 0 0 0 0 0 0 127 0" result="hardAlpha"/>
<feOffset dx="17" dy="4"/>
<feGaussianBlur stdDeviation="9.5"/>
<feComposite in2="hardAlpha" operator="out"/>
<feColorMatrix type="matrix" values="0 0 0 0 0 0 0 0 0 0 0 0 0 0 0 0 0 0 0.25 0"/>
<feBlend mode="normal" in2="BackgroundImageFix" result="effect1_dropShadow_312_22153"/>
<feBlend mode="normal" in="SourceGraphic" in2="effect1_dropShadow_312_22153" result="shape"/>
</filter>
</defs>
</svg>
