<svg width="1440" height="230" viewBox="0 0 1440 230" fill="none" xmlns="http://www.w3.org/2000/svg">
<mask id="mask0_312_7848" style="mask-type:alpha" maskUnits="userSpaceOnUse" x="-7" y="0" width="1473" height="230">
<path d="M-7 0H1466V230H-7V0Z" fill="white"/>
</mask>
<g mask="url(#mask0_312_7848)">
<path d="M1614.43 125.664C1605.56 150.705 1596.7 175.743 1587.84 200.784C1584.72 167.653 1562.46 137.153 1526.83 113.502C1524.37 81.4012 1492.24 52.5392 1444.73 37.5384C1446.82 22.7715 1427.78 8.94439 1400.65 6.36093C1373.34 3.75948 1348.38 13.5594 1343.48 28.1964C1291.67 33.8192 1246.99 54.8688 1228.78 85.1084C1228.78 85.1084 1228.79 85.1084 1228.79 85.1084C1183.78 101.233 1148.67 126.398 1130.36 157.125C1134.75 126.48 1136.94 111.159 1141.33 80.5134C1109.71 78.7677 1093.89 77.9999 1062.23 76.6702C1058.61 109.939 1054.99 143.21 1051.36 176.479C1034.28 175.761 1025.73 175.435 1008.64 174.844C1010.61 152.842 1011.59 141.84 1013.57 119.839C986.836 118.915 973.465 118.529 946.719 117.908C947.759 100.631 948.281 91.9929 949.321 74.7166C932.563 74.3266 924.184 74.1627 907.423 73.8887C908.048 59.1198 908.361 51.7354 908.982 36.9665C890.457 36.6646 881.195 36.5486 862.667 36.3867C862.995 21.9277 863.156 14.6992 863.485 0.240266C838.783 0.0243118 826.434 -0.0217342 801.729 0.00825953C801.774 14.4672 801.797 21.6977 801.842 36.1567C783.313 36.1787 774.048 36.2247 755.523 36.3867C755.858 51.1596 756.025 58.546 756.36 73.3189C739.596 73.4649 731.214 73.5688 714.453 73.8308C715.159 91.1131 715.51 99.7553 716.212 117.04C689.459 117.46 676.082 117.746 649.342 118.467C650.884 140.483 651.654 151.488 653.197 173.504C637.505 173.928 629.657 174.166 613.972 174.696C611.576 147.363 610.378 133.698 607.983 106.368C594.007 106.84 587.023 107.098 573.054 107.652C569.27 76.6922 526.474 52.2573 475.297 49.6638C476.079 48.2601 476.417 46.7565 476.198 45.2088C475.29 38.7841 465.247 34.0791 453.773 34.745C442.3 35.4108 433.828 41.1856 434.848 47.6043C435.093 49.14 435.869 50.5697 437.041 51.8534C387.409 60.2576 352.661 89.2535 358.186 120.097C344.279 121.157 337.326 121.709 323.435 122.85C319.902 106.278 318.134 97.9917 314.602 81.4192C310.065 81.7931 307.794 81.981 303.26 82.363C301.316 73.4528 300.343 68.9978 298.401 60.0897C291.037 60.7096 287.353 61.0254 279.992 61.6673C278.15 53.529 277.229 49.4599 275.39 41.3216C261.537 42.5294 254.614 43.1532 240.777 44.4409C242.738 52.5692 243.717 56.6324 245.678 64.7587C239.067 65.3746 235.76 65.6865 229.152 66.3184C231.361 75.2045 232.462 79.6476 234.671 88.5317C229.41 89.0356 226.779 89.2915 221.52 89.8054C225.137 104.028 226.946 111.141 230.563 125.364C223.639 126.044 220.178 126.388 213.254 127.088C175.811 111.729 156.773 104.194 118.089 89.4355C88.5253 111.767 74.1184 123.026 46.0581 145.7C47.3107 145.832 47.9386 145.898 49.1913 146.03C47.5039 146.25 46.6602 146.36 44.9697 146.58C40.484 147.165 38.2428 147.461 33.7604 148.055C28.914 133.974 26.4893 126.934 21.643 112.853C17.1509 113.448 14.9064 113.748 10.4175 114.354C7.34875 105.568 5.81275 101.175 2.74395 92.3889C-4.54323 93.3707 -8.18843 93.8666 -15.4692 94.8704C-18.3383 86.848 -19.7713 82.8369 -22.6404 74.8146C-36.3454 76.7042 -43.1914 77.6679 -56.8738 79.6375C-53.8855 87.6438 -52.3945 91.647 -49.4063 99.6533C-55.9431 100.593 -59.2116 101.069 -65.7453 102.027C-62.4156 110.777 -60.7508 115.152 -57.4212 123.902C-62.6217 124.666 -65.2204 125.05 -70.4209 125.824C-47.7543 184.448 -25.091 243.071 -2.42438 301.697C31.4805 296.642 48.4732 294.249 82.523 289.729C143.941 281.953 205.127 274.897 266.947 268.466C301.254 265.103 318.437 263.553 352.838 260.726C440.748 254.067 528.381 248.962 616.754 245.357C618.12 245.311 618.802 245.287 620.168 245.241C761.863 241.312 902.104 241.883 1043.7 246.964C1238.81 256.446 1430.05 274.593 1620.79 301.697C1642.18 246.375 1663.57 191.05 1684.96 135.728C1656.79 131.535 1642.68 129.521 1614.43 125.664Z" fill="#C62B29"/>
<path d="M44.6064 145.556C44.7449 145.968 44.8158 146.174 44.9542 146.588C45.3889 146.236 45.6079 146.06 46.0426 145.708C45.4694 145.646 45.1829 145.616 44.6064 145.556Z" fill="#C62B29"/>
</g>
</svg>
